<svg xmlns="http://www.w3.org/2000/svg" width="43" height="47"><rect id="backgroundrect" width="100%" height="100%" x="0" y="0" fill="none" stroke="none" class="" style=""/>
	<defs>
		<clipPath clipPathUnits="userSpaceOnUse" id="cp1">
			<path d="M-1743 -1133L177 -1133L177 1796L-1743 1796Z" id="svg_1"/>
		</clipPath>
	</defs>
	<style>
		tspan { white-space:pre }
		.shp0 { fill: none;stroke: #ffcc33;stroke-width: 3 } 
		.shp1 { fill: #1d2734;stroke: #ffcc33;stroke-width: 3 } 
	</style>
	
<g class="currentLayer" style=""><title>Layer 1</title><g id="Web 1920 – 6" clip-path="url(#cp1)" class="selected">
		<g id="Group 118">
			<g id="Group 102">
				<path id="Path 327" class="shp0" d="M21.5,2 C27.85,2 33,7.15 33,13.5 C33,19.85 27.25,25 21.5,25 C15.75,25 10,19.85 10,13.5 C10,7.15 15.149999999999999,2 21.5,2 z"/>
				<path id="Rectangle 1128" class="shp1" d="M9,13 L34,13 C37.32,13 40,15.68 40,19 L40,39 C40,42.32 37.32,45 34,45 L9,45 C5.68,45 3,42.32 3,39 L3,19 C3,15.68 5.68,13 9,13 z"/>
			</g>
		</g>
	</g></g></svg>