<svg xmlns="http://www.w3.org/2000/svg" viewBox="0 0 103 54" width="103" height="54">
	<defs>
		<clipPath clipPathUnits="userSpaceOnUse" id="cp1">
			<path d="M-156 -2117L258 -2117L258 72L-156 72Z" />
		</clipPath>
	</defs>
	<style>
		tspan { white-space:pre }
		.shp0 { fill: #eee5dd } 
	</style>
	<g id="iPhone XR/XS Max/11 – 1" clip-path="url(#cp1)">
		<g id="Group 79">
			<path id="Path 299" class="shp0" d="M71.39 41.2C71.32 41.02 71.13 40.94 70.79 40.95C70.46 40.97 70.16 41.05 69.89 41.19L69.88 41.2C69.56 41.38 69.39 41.75 69.44 42.12L69.57 43.05C69.89 45.28 69.87 48.47 69.75 49.25C69.74 49.32 69.77 49.39 69.81 49.44C70.17 49.9 70.78 50.21 71.69 50.4C71.85 50.43 72 50.3 71.99 50.14C71.94 49.05 71.7 45.48 71.66 44.14C71.62 42.6 71.53 41.62 71.39 41.2Z" />
			<path id="Path 300" fill-rule="evenodd" class="shp0" d="M77.11 44.77C77.31 45.21 77.38 45.66 77.33 46.13C77.29 46.59 77.08 47 76.71 47.36C76.35 47.72 75.91 47.98 75.41 48.13C74.91 48.29 74.44 48.31 74.02 48.2C74.14 48.35 74.32 48.48 74.55 48.57C74.88 48.71 75.94 49.12 76.89 49.1C77.31 49.19 77.08 50.06 76.84 50.09C76.26 50.14 75.59 50.16 74.84 50.15C74.25 50.15 73.81 49.8 73.46 49.51C73.26 49.35 73.09 49.18 72.94 48.99C72.84 48.86 72.18 47.9 72.19 46.89C72.2 45.34 72.52 44.29 73.39 43.74C73.82 43.47 74.25 43.25 74.77 43.25C75.29 43.25 75.79 43.46 76.2 43.72C76.61 43.99 76.92 44.34 77.11 44.77ZM75.43 45.92C75.43 45.79 75.38 45.66 75.28 45.54C75.11 45.35 74.91 45.26 74.69 45.26C74.46 45.26 74.28 45.32 74.14 45.43C74.04 45.51 73.96 45.6 73.9 45.71C73.55 46.33 74.3 47.03 74.9 46.65L74.91 46.64C75.26 46.41 75.43 46.17 75.43 45.92Z" />
			<path id="Path 301" class="shp0" d="M68.12 41.26C67.69 41.03 67.15 40.91 66.63 40.95C66.12 40.98 65.72 41.16 65.32 41.46C64.49 42.07 64.24 43.14 64.33 44.69C64.33 44.77 64.34 44.86 64.36 44.94C64.57 46.84 64.75 49.5 64.78 50.25C64.79 50.38 64.85 50.5 64.97 50.56C65.53 50.89 66.14 50.45 66.42 50.19C66.51 50.1 66.56 49.98 66.54 49.85C66.49 49.44 66.5 48.55 66.49 48.14L66.48 48.09L66.48 48.08C66.48 47.86 66.67 47.68 66.89 47.7C67.25 47.72 67.76 47.71 68.15 47.67C68.31 47.65 68.45 47.53 68.49 47.37C68.58 47 68.5 46.42 68.37 46.07C68.3 45.91 68.14 45.81 67.97 45.82C67.35 45.87 66.73 45.93 66.38 45.91C66.21 45.9 66.07 45.79 66.02 45.62C65.91 45.22 65.73 44.31 65.96 43.4C65.99 43.28 66.09 43.19 66.18 43.1C66.31 42.98 66.49 42.91 66.71 42.9C66.93 42.88 67.12 42.95 67.3 43.11C67.32 43.12 67.33 43.14 67.35 43.16C67.43 43.26 67.48 43.37 67.5 43.49C67.41 43.97 68.38 44.4 68.91 44.44C69.07 44.45 69.23 44.35 69.29 44.19C69.36 44 69.4 43.79 69.41 43.58C69.43 43.12 69.33 42.67 69.1 42.25C68.88 41.82 68.55 41.5 68.12 41.26Z" />
			<path id="Path 302" class="shp0" d="M76.23 50.67C75.18 50.85 74.14 51.11 73.14 51.44C72.93 51.51 72.88 51.72 72.93 51.87C72.97 52.01 73.09 52.09 73.22 52.09C73.25 52.09 73.29 52.09 73.33 52.07C74.32 51.74 75.34 51.49 76.38 51.31C76.55 51.29 76.65 51.14 76.62 50.96C76.6 50.79 76.44 50.64 76.23 50.67Z" />
			<path id="Path 303" class="shp0" d="M82.77 44.57C82.69 44.19 82.3 43.8 81.9 43.56C81.74 43.46 81.54 43.54 81.48 43.72C81.36 44.06 81.2 44.25 80.86 44.42C80.73 44.49 80.67 44.63 80.71 44.77C80.81 45.08 80.94 45.51 80.99 45.67C81 45.72 81.01 45.76 81 45.81C80.96 45.99 80.9 46.15 80.82 46.29C80.75 46.4 80.68 46.48 80.6 46.54C80.59 46.56 80.57 46.57 80.55 46.58C80.17 46.77 79.63 46.62 79.46 46.15C79.43 46.07 79.4 45.99 79.38 45.91L79.37 45.88C79.35 45.78 79.34 45.68 79.33 45.57L79.33 45.57C79.33 45.36 79.46 44.97 79.56 44.7C79.61 44.58 79.57 44.44 79.46 44.36C79.11 44.12 79.14 43.98 79 43.6C78.94 43.45 78.76 43.37 78.61 43.44C78.19 43.64 77.71 44.13 77.62 44.44C77.55 44.67 77.52 44.93 77.52 45.21C77.5 45.8 77.52 45.97 77.52 45.97C77.54 46.1 77.56 46.23 77.59 46.36C77.74 47.02 78.05 47.55 78.52 47.93C78.67 48.04 78.81 48.16 78.97 48.23C79.66 48.5 80.34 48.48 80.74 48.43C80.93 49.12 81.18 50.19 80.99 50.82C80.95 50.94 80.85 51.03 80.76 51.11C80.62 51.22 80.44 51.28 80.21 51.29C80 51.29 79.81 51.22 79.63 51.05C79.62 51.04 79.6 51.02 79.59 51C79.51 50.89 79.46 50.78 79.46 50.67C79.56 50.18 78.61 49.71 78.09 49.66C77.92 49.64 77.76 49.73 77.7 49.89C77.61 50.08 77.56 50.28 77.55 50.49C77.51 50.95 77.59 51.4 77.8 51.84C78.01 52.27 78.32 52.61 78.74 52.86C79.16 53.11 79.63 53.23 80.14 53.22C80.66 53.21 81.13 53.06 81.54 52.78C82.4 52.2 82.69 51.15 82.67 49.6C82.67 49.51 82.66 49.43 82.65 49.35C82.62 48.85 82.77 47.05 82.75 46.49C82.81 46.25 82.85 45.48 82.85 45.38C82.86 45.09 82.84 44.82 82.77 44.57Z" />
			<path id="Path 304" class="shp0" d="M90.53 41.2C90.47 41.02 90.27 40.94 89.94 40.95C89.6 40.97 89.3 41.05 89.04 41.19L89.03 41.2C88.7 41.38 88.53 41.75 88.59 42.12L88.72 43.05C89.03 45.28 89.01 48.47 88.9 49.25C88.89 49.32 88.91 49.39 88.95 49.44C89.31 49.9 89.92 50.21 90.83 50.4C90.99 50.43 91.14 50.3 91.13 50.14C91.08 49.05 90.84 45.48 90.8 44.14C90.76 42.6 90.67 41.62 90.53 41.2Z" />
			<path id="Path 305" fill-rule="evenodd" class="shp0" d="M96.26 44.77C96.45 45.21 96.53 45.66 96.48 46.13C96.43 46.59 96.22 47 95.86 47.36C95.49 47.72 95.05 47.98 94.55 48.13C94.05 48.29 93.59 48.31 93.17 48.2C93.28 48.35 93.46 48.48 93.69 48.57C94.03 48.71 95.08 49.12 96.04 49.1C96.46 49.19 96.22 50.06 95.98 50.09C95.4 50.14 94.74 50.16 93.98 50.15C93.4 50.15 92.96 49.8 92.6 49.51C92.41 49.35 92.23 49.18 92.08 48.99C91.98 48.86 91.32 47.9 91.33 46.89C91.35 45.34 91.67 44.29 92.54 43.74C92.96 43.47 93.39 43.25 93.91 43.25C94.43 43.25 94.93 43.46 95.34 43.72C95.76 43.99 96.06 44.34 96.26 44.77ZM94.57 45.92C94.58 45.79 94.53 45.66 94.43 45.54C94.25 45.35 94.06 45.26 93.83 45.26C93.61 45.26 93.42 45.32 93.28 45.43C93.19 45.51 93.11 45.6 93.04 45.71C92.7 46.33 93.45 47.03 94.04 46.65L94.05 46.64C94.4 46.41 94.57 46.17 94.57 45.92Z" />
			<path id="Path 306" class="shp0" d="M87.26 41.26C86.83 41.03 86.29 40.91 85.78 40.95C85.26 40.98 84.87 41.16 84.46 41.46C83.63 42.07 83.38 43.14 83.47 44.69C83.48 44.77 83.49 44.86 83.5 44.94C83.72 46.84 83.9 49.5 83.93 50.25C83.93 50.38 84 50.5 84.11 50.56C84.68 50.89 85.28 50.45 85.57 50.19C85.66 50.1 85.7 49.98 85.69 49.85C85.63 49.44 85.64 48.55 85.63 48.14L85.63 48.09L85.63 48.08C85.63 47.86 85.81 47.68 86.04 47.7C86.4 47.72 86.91 47.71 87.29 47.67C87.46 47.65 87.59 47.53 87.63 47.37C87.72 47 87.64 46.42 87.51 46.07C87.45 45.91 87.29 45.81 87.11 45.82C86.49 45.87 85.87 45.93 85.52 45.91C85.35 45.9 85.21 45.79 85.17 45.62C85.06 45.22 84.87 44.31 85.1 43.4C85.13 43.28 85.23 43.19 85.32 43.1C85.45 42.98 85.63 42.91 85.86 42.9C86.07 42.88 86.27 42.95 86.45 43.11C86.46 43.12 86.48 43.14 86.49 43.16C86.58 43.26 86.63 43.37 86.64 43.49C86.56 43.97 87.52 44.4 88.05 44.44C88.22 44.45 88.37 44.35 88.43 44.19C88.51 44 88.55 43.79 88.56 43.58C88.57 43.12 88.47 42.67 88.24 42.25C88.02 41.82 87.69 41.5 87.26 41.26Z" />
			<path id="Path 307" class="shp0" d="M95.37 50.67C94.33 50.85 93.29 51.11 92.28 51.44C92.08 51.51 92.02 51.72 92.07 51.87C92.12 52.01 92.23 52.09 92.36 52.09C92.4 52.09 92.43 52.09 92.47 52.07C93.46 51.74 94.49 51.49 95.52 51.31C95.69 51.29 95.8 51.14 95.77 50.96C95.74 50.79 95.58 50.64 95.37 50.67Z" />
			<path id="Path 308" class="shp0" d="M101.89 46.49C101.96 46.25 101.99 45.48 102 45.38C102.01 45.09 101.98 44.82 101.92 44.57C101.83 44.19 101.44 43.8 101.05 43.56C100.89 43.46 100.68 43.54 100.63 43.72C100.51 44.06 100.35 44.25 100 44.42C99.88 44.49 99.81 44.63 99.86 44.77C99.95 45.08 100.09 45.51 100.13 45.67C100.15 45.72 100.15 45.76 100.14 45.81C100.11 45.99 100.05 46.15 99.96 46.29C99.9 46.4 99.83 46.48 99.75 46.54C99.73 46.56 99.71 46.57 99.7 46.58C99.31 46.77 98.78 46.62 98.6 46.15C98.57 46.07 98.54 45.99 98.52 45.91L98.51 45.88C98.49 45.78 98.48 45.68 98.47 45.57L98.47 45.57C98.47 45.36 98.61 44.97 98.71 44.7C98.75 44.58 98.71 44.44 98.6 44.36C98.25 44.12 98.28 43.98 98.14 43.6C98.08 43.45 97.9 43.37 97.75 43.44C97.33 43.64 96.85 44.13 96.76 44.44C96.7 44.67 96.67 44.93 96.67 45.21C96.65 45.8 96.67 45.97 96.67 45.97C96.68 46.1 96.7 46.23 96.73 46.36C96.89 47.02 97.2 47.55 97.67 47.93C97.81 48.04 97.95 48.16 98.12 48.23C98.81 48.5 99.49 48.48 99.89 48.43C100.07 49.12 100.32 50.19 100.13 50.82C100.1 50.94 100 51.03 99.9 51.11C99.76 51.22 99.58 51.28 99.36 51.29C99.14 51.29 98.95 51.22 98.78 51.05C98.76 51.04 98.75 51.02 98.73 51C98.65 50.89 98.61 50.78 98.6 50.67C98.7 50.18 97.76 49.71 97.23 49.66C97.07 49.64 96.91 49.73 96.84 49.89C96.76 50.08 96.71 50.28 96.69 50.49C96.65 50.95 96.74 51.4 96.94 51.84C97.15 52.27 97.47 52.61 97.88 52.86C98.3 53.11 98.77 53.23 99.29 53.22C99.81 53.21 100.27 53.06 100.69 52.78C101.55 52.2 101.84 51.15 101.82 49.6C101.82 49.51 101.81 49.43 101.8 49.35C101.76 48.85 101.92 47.05 101.89 46.49Z" />
			<path id="Path 309" fill-rule="evenodd" class="shp0" d="M61.69 32.59C61.63 30.96 60.18 30.26 58.64 30.15C58.68 30.9 58.73 31.64 58.77 32.39C58.96 32.5 59.13 32.65 59.29 32.83C59.72 33.32 60 33.9 60.28 34.48C60.51 34.97 60.78 35.44 60.97 35.95C61.3 36.85 60.93 37.59 60.01 37.95C59.7 38.07 59.36 38.14 59.01 38.17C59.02 38.42 59.03 38.67 59.03 38.93C59.34 38.92 59.65 38.94 59.96 39.02C60.54 39.17 60.79 39.57 60.76 40.2C60.73 40.73 60.77 41.27 60.78 41.8C60.78 42.23 60.82 42.66 60.79 43.08C60.75 43.58 60.49 43.95 60.02 44.1C59.74 44.19 59.45 44.24 59.16 44.29C59.18 45.45 59.21 46.61 59.22 47.78C59.29 47.8 59.36 47.84 59.41 47.89C59.47 47.93 59.52 47.99 59.57 48.06C59.68 48.24 59.73 48.43 59.73 48.56C59.73 48.63 59.72 48.69 59.72 48.76C59.7 49 59.64 49.21 59.53 49.4C59.49 49.46 59.44 49.53 59.39 49.6C59.35 49.64 59.31 49.67 59.26 49.71C59.05 49.89 58.76 49.97 58.45 49.91C58.34 49.89 58.24 49.85 58.15 49.8C58.05 49.76 57.97 49.7 57.89 49.65C57.78 49.57 57.67 49.48 57.59 49.38C57.57 49.36 57.56 49.33 57.54 49.3C57.42 49.12 57.42 48.92 57.5 48.72C57.61 48.46 57.79 48.23 58.04 48.06C58.03 46.85 58.02 45.65 58 44.45C58 44.38 57.99 44.31 57.99 44.24C57.13 44.07 56.34 43.72 55.65 43.09C55.1 42.58 54.73 41.96 54.94 41.13C55.08 40.57 55.46 40.2 55.9 39.88C56.5 39.44 57.16 39.2 57.86 39.06C57.85 38.75 57.84 38.43 57.82 38.11C57.07 37.97 56.35 37.64 55.86 37.16C55.21 36.53 54.89 35.42 55.37 34.54C55.39 34.51 55.72 33.65 56.85 32.83C57.06 32.68 57.3 32.55 57.54 32.45C57.52 32.07 57.5 31.7 57.48 31.32L57.46 31.08C57.44 30.78 57.42 30.49 57.41 30.2C56.21 30.36 55.18 30.86 55.05 31.53C53.28 40.54 49.44 40.91 49.44 40.91C46.4 41.61 44.05 36.03 42.35 36.59C33.57 39.47 33.11 39.47 27.61 36.95C26.9 36.63 23.68 38.85 22.95 39.15C21.48 39.75 19.14 38.75 17.14 38.19C16.49 38.01 15.11 41.09 14.53 41.34C13.33 41.86 12.21 42.12 11.16 42.12C10.11 42.12 9.08 41.93 8.09 41.57C7.09 41.21 6.18 40.71 5.38 40.07C3.66 38.73 2.54 36.97 2.01 34.78C1.48 32.59 -0.64 23.2 3.25 22.06C5.17 21.49 6.99 25.67 9.47 25.42C13.76 24.99 12.6 19.2 14.64 18.34C15.68 17.9 19.42 18.42 19.62 19.01C20.39 21.34 21.06 24.73 20.96 28.62C20.91 30.65 20.83 31.93 20.7 32.46C20.57 32.99 20.51 33.27 20.51 33.3C20.91 34.56 21.43 35.45 22.06 35.98C22.66 36.49 24.64 34.84 24.99 31.43C25.26 29.18 24.76 23.46 23.48 14.27L22.95 10.44C22.87 9.87 22.95 9.26 23.28 8.79C23.59 8.33 24.05 7.94 24.64 7.62C25.6 7.1 26.67 6.82 27.87 6.78C29.06 6.73 29.76 7.02 29.98 7.64C30.49 9.16 30.8 12.67 30.94 18.19C31.07 23.71 31.04 27.81 30.84 30.5L30.84 30.7C30.75 32.57 31.08 33.94 31.82 34.82C32.56 35.7 34.22 35.42 34.22 35.42C35.14 35.42 35.87 35.37 36.41 35.27C34.1 32.89 32.94 30.17 32.9 27.12C32.87 26.16 32.95 25.29 33.15 24.49C33.71 22.33 35.62 19.69 37.28 18.65C38.82 17.7 38.45 20.7 41.32 20.7C44.73 20.7 44.29 17.37 45.85 18.56C47.41 19.76 49.43 22.33 49.99 24.49C50.2 25.29 50.31 26.16 50.31 27.12C50.23 30.17 49.03 32.89 46.71 35.27C47.45 35.37 48.04 35.42 48.47 35.42L49.56 35.42C50.64 35.42 51.63 34.76 51.96 33.74C52.94 30.72 53.41 22.11 53.02 19.96C52.89 19.22 53.06 18.43 53.56 17.88C53.86 17.56 54.23 17.27 54.68 17.02C55.2 16.74 55.75 16.53 56.32 16.39C56.08 13.8 55.84 11.33 55.59 9.08C55.58 8.95 55.61 8.83 55.67 8.72C55.7 8.67 55.74 8.62 55.79 8.58C55.83 8.54 55.89 8.5 55.95 8.48L55.95 8.47L55.96 8.47C56 8.45 56.05 8.44 56.1 8.43C56.15 8.43 56.19 8.42 56.24 8.43C56.52 8.46 56.77 8.68 56.8 8.99C56.92 10.09 57.11 11.91 57.31 13.83C57.4 14.62 57.48 15.42 57.56 16.2C57.68 16.19 57.81 16.17 57.94 16.16C59.14 16.13 59.82 16.44 59.99 17.1C61.81 21.14 62.3 29.72 63.18 29.73C66.58 29.7 63.65 23.46 62.37 14.27L61.84 10.44C61.76 9.87 61.84 9.26 62.17 8.79C62.48 8.33 62.94 7.94 63.53 7.62C64.49 7.1 65.56 6.82 66.75 6.78C67.95 6.73 68.65 7.02 68.87 7.64C69.37 9.16 69.69 12.67 69.83 18.19C69.96 23.71 67.95 35.22 70.02 36.59C73.74 39.06 80.58 36.44 82.28 35.74C83.12 35.4 83.75 34.96 84.17 34.4C82.66 34.81 81.01 34.73 79.21 34.17C77.41 33.6 75.86 32.68 74.55 31.39C73.24 30.11 72.5 28.63 72.33 26.97C72.17 25.31 72.12 23.62 72.71 22.01C73.08 21.02 74.1 17.82 75.85 17.88C77.51 17.95 77.66 21.29 81.39 20.56C83.2 20.21 83.16 17.2 84.96 17.84C89.9 19.57 90.69 24.21 90.74 29.74C90.77 33.36 88.52 36.96 88.04 37.23C76.12 43.94 61.92 39.15 61.69 32.59ZM84.68 25.63C84.45 25.19 84.15 24.81 83.77 24.5C83.27 24.1 82.62 23.9 81.81 23.9C81.01 23.9 80.3 24.22 79.68 24.88C79.32 25.33 79.15 25.8 79.15 26.27C79.15 27.16 79.77 28.01 81.02 28.82C83.14 30.21 85.85 27.88 84.68 25.63ZM15.34 30.21C15.26 28.49 13.44 27.42 11.86 28.1L11.83 28.11C10.76 28.59 9.85 29.17 9.12 29.88C8.39 30.58 7.88 31.36 7.6 32.22C7.32 33.07 7.46 33.91 8.01 34.72C8.56 35.54 9.34 36.1 10.35 36.41C11.36 36.72 12.39 36.62 13.44 36.12C14.09 35.73 14.63 34.86 15.06 33.5C15.32 32.67 15.41 31.57 15.34 30.21ZM43.75 24.98C43.22 24.06 42.51 23.6 41.61 23.6C40.7 23.6 39.99 24.06 39.46 24.98C38.97 25.82 38.76 26.91 38.83 28.24C38.84 28.45 38.87 28.68 38.93 28.88C39.03 29.24 39.15 29.58 39.28 29.91C40.12 32 43.2 32.01 44.02 29.91C44.04 29.87 44.05 29.84 44.07 29.8C44.1 29.7 44.2 29.29 44.37 28.57C44.48 27.09 44.28 25.89 43.75 24.98Z" />
			<path id="Path 310" class="shp0" d="M33.25 40.74C29.51 41.37 25.86 42.27 22.26 43.46C21.42 43.73 21.78 45.06 22.62 44.78C26.22 43.6 29.88 42.69 33.61 42.07C34.49 41.93 34.12 40.6 33.25 40.74Z" />
			<path id="Path 311" fill-rule="evenodd" class="shp0" d="M23.66 2.07C24.08 1.27 24.95 0.9 25.77 1C25.9 0.72 26.17 0.53 26.53 0.66C27.8 1.11 28.59 2.49 28.16 3.81C27.76 5.07 26.25 5.71 25.03 5.31C23.74 4.91 23.03 3.28 23.66 2.07ZM25.71 4.05C26.61 4.12 27.06 3.25 26.81 2.6C26.57 2.73 26.26 2.75 26.01 2.51C25.6 2.13 24.9 2.39 24.81 2.93C24.72 3.5 25.16 4.01 25.71 4.05Z" />
			<path id="Path 312" fill-rule="evenodd" class="shp0" d="M62.07 3.83C61.65 2.69 62.29 1.38 63.39 0.9C64.58 0.38 66.09 1.08 66.42 2.36C66.64 3.22 66.21 4.07 65.51 4.52C65.53 4.81 65.4 5.12 65.04 5.23C63.88 5.62 62.5 5 62.07 3.83ZM63.77 3.79C63.86 3.59 64.05 3.43 64.35 3.45C64.96 3.49 65.33 2.85 64.89 2.38C64.54 1.99 64 2.02 63.64 2.37C63.12 2.87 63.31 3.5 63.77 3.79Z" />
			<path id="Path 313" class="shp0" d="M77.52 17.35C78 17.82 78.55 18.2 78.93 18.77C79.08 18.97 79.23 19.18 79.39 19.37C79.73 19.79 80.33 19.9 80.79 19.62C81.79 19 82.61 18.18 83.19 17.08C83.36 16.78 83.49 16.46 83.51 16.12C83.52 15.84 83.44 15.63 83.22 15.49C82.99 15.34 82.11 14.66 81.76 14.51C77.67 12.75 76.77 16.22 76.87 16.48C77 16.85 77.27 17.09 77.52 17.35Z" />
			<path id="Path 314" class="shp0" d="M10.49 18.17C10.15 18.09 9.79 18.06 9.44 18.01C8.79 17.93 8.24 18.08 7.8 18.51L7.79 18.53C7.69 18.66 7.57 18.78 7.48 18.93C7.15 19.46 7.01 20.08 7 20.75C6.98 21.75 7.16 22.72 7.75 23.67C8.19 24.36 8.87 24.63 9.49 24.32C9.78 24.17 10.07 23.97 10.29 23.73C10.81 23.18 11.23 22.55 11.53 21.84C11.79 21.26 11.99 20.65 11.99 19.96C11.98 19.04 11.43 18.36 10.49 18.17Z" />
			<path id="Path 315" class="shp0" d="M39.43 18.95C39.84 19.26 40.29 19.54 40.87 19.67C41.82 19.89 42.73 19.6 43.32 18.93C43.99 18.18 44.26 17.35 44.27 16.27C44.29 15.95 44.18 15.45 43.9 14.97C43.41 14.14 42.47 13.85 41.35 14.19C39.91 14.64 39 15.45 38.51 16.52C38.25 17.1 38.24 17.7 38.68 18.24C38.88 18.5 39.15 18.73 39.43 18.95Z" />
			<path id="Path 316" class="shp0" d="M8.34 16.98C8.79 17.25 9.33 17.35 9.84 17.42C11.02 17.58 11.82 16.72 11.79 15.24L11.79 15.23C11.71 14.72 11.66 14.2 11.54 13.7C11.22 12.29 10.44 11.49 9.42 11.48C8.63 11.47 7.94 11.81 7.31 12.36C6.82 12.79 6.39 13.28 6.17 13.99C5.99 14.59 6.05 15.16 6.5 15.55C7.1 16.06 7.69 16.59 8.34 16.98Z" />
		</g>
	</g>
</svg>