<svg xmlns="http://www.w3.org/2000/svg" width="225.159" height="117.219" viewBox="0 0 225.159 117.219">
  <g id="Group_72" data-name="Group 72" transform="translate(-497.333 -87.947)">
    <path id="Path_299" data-name="Path 299" d="M603.128,148.239q-.208-.58-1.321-.539a4.475,4.475,0,0,0-2.008.531l-.018.011a2.015,2.015,0,0,0-.988,2.047l.293,2.088a72.2,72.2,0,0,1,.406,13.807.558.558,0,0,0,.12.427,6.8,6.8,0,0,0,4.191,2.134.558.558,0,0,0,.666-.573c-.116-2.437-.651-10.4-.731-13.365A29.62,29.62,0,0,0,603.128,148.239Z" transform="translate(51.147 30.127)" fill="#eee5dd"/>
    <path id="Path_300" data-name="Path 300" d="M611.794,152.161a6.131,6.131,0,0,0-3.187-1.065,5.6,5.6,0,0,0-3.066,1.091c-1.939,1.241-2.65,3.58-2.685,7.026a8.742,8.742,0,0,0,1.667,4.671,7.547,7.547,0,0,0,1.166,1.175,5.038,5.038,0,0,0,3.073,1.427c1.682.012,3.16-.035,4.458-.146.53-.065,1.052-2,.119-2.193a14.57,14.57,0,0,1-5.22-1.185,2.676,2.676,0,0,1-1.176-.835,5.472,5.472,0,0,0,3.088-.143,7.119,7.119,0,0,0,2.906-1.719,4.406,4.406,0,0,0,1.387-2.753,5.773,5.773,0,0,0-.495-3.014A5.271,5.271,0,0,0,611.794,152.161Zm-2.881,6.492-.024.015a1.581,1.581,0,0,1-2.217-2.077,2.267,2.267,0,0,1,.531-.633,1.906,1.906,0,0,1,1.221-.375,1.785,1.785,0,0,1,1.328.615,1.393,1.393,0,0,1,.328.865Q610.079,157.9,608.914,158.653Z" transform="translate(53.206 31.84)" fill="#eee5dd"/>
    <path id="Path_301" data-name="Path 301" d="M599.671,148.4a6.235,6.235,0,0,0-3.309-.7,5.237,5.237,0,0,0-2.927,1.142c-1.852,1.367-2.407,3.748-2.211,7.19a5.46,5.46,0,0,0,.065.566c.483,4.225.884,10.162.951,11.829a.844.844,0,0,0,.406.7c1.26.736,2.616-.254,3.245-.83a.863.863,0,0,0,.269-.752c-.123-.912-.1-2.9-.123-3.809l-.009-.125V163.6a.868.868,0,0,1,.915-.865,19.985,19.985,0,0,0,2.8-.065.86.86,0,0,0,.752-.651,5.808,5.808,0,0,0-.272-2.9.866.866,0,0,0-.885-.557,32.921,32.921,0,0,1-3.55.2.868.868,0,0,1-.788-.644,10.306,10.306,0,0,1-.141-4.955,1.479,1.479,0,0,1,.489-.668,1.893,1.893,0,0,1,1.193-.454,1.771,1.771,0,0,1,1.312.475.994.994,0,0,1,.1.107,1.382,1.382,0,0,1,.328.733c-.183,1.085,1.971,2.047,3.142,2.122a.858.858,0,0,0,.851-.549,4.139,4.139,0,0,0,.278-1.357,5.794,5.794,0,0,0-.695-2.975A5.259,5.259,0,0,0,599.671,148.4Z" transform="translate(47.322 30.119)" fill="#eee5dd"/>
    <path id="Path_302" data-name="Path 302" d="M611.317,162.1a46.313,46.313,0,0,0-6.889,1.716.736.736,0,0,0-.463.955.68.68,0,0,0,.648.49.748.748,0,0,0,.238-.039,45.685,45.685,0,0,1,6.8-1.694.656.656,0,0,0,.554-.782A.77.77,0,0,0,611.317,162.1Z" transform="translate(53.744 37.383)" fill="#eee5dd"/>
    <path id="Path_303" data-name="Path 303" d="M622.466,153.923a4.191,4.191,0,0,0-1.944-2.264.645.645,0,0,0-.937.358,2.464,2.464,0,0,1-1.39,1.578.645.645,0,0,0-.325.767c.218.7.51,1.647.62,2.013a.632.632,0,0,1,.017.3,3.229,3.229,0,0,1-.4,1.08,2.091,2.091,0,0,1-.472.554.672.672,0,0,1-.119.078,1.765,1.765,0,0,1-2.441-.942c-.066-.177-.125-.364-.177-.555l-.014-.053a4.245,4.245,0,0,1-.089-.7h-.006a7.271,7.271,0,0,1,.525-1.93.641.641,0,0,0-.23-.751c-.79-.552-.711-.845-1.027-1.7a.643.643,0,0,0-.868-.359,4.688,4.688,0,0,0-2.205,2.222,6.314,6.314,0,0,0-.217,1.724,14.36,14.36,0,0,0,0,1.688,5.958,5.958,0,0,0,.147.865,6.087,6.087,0,0,0,2.074,3.5,4.072,4.072,0,0,0,1.009.665,8.119,8.119,0,0,0,3.943.45c.408,1.554.961,3.929.546,5.329a1.487,1.487,0,0,1-.516.645,1.894,1.894,0,0,1-1.212.4,1.763,1.763,0,0,1-1.289-.529,1.164,1.164,0,0,1-.1-.111,1.377,1.377,0,0,1-.3-.746c.229-1.076-1.882-2.128-3.049-2.253a.862.862,0,0,0-.875.511,4.192,4.192,0,0,0-.335,1.345,5.788,5.788,0,0,0,.569,3,5.272,5.272,0,0,0,2.092,2.285,5.927,5.927,0,0,0,6.249-.176c1.909-1.289,2.565-3.645,2.515-7.091a5.1,5.1,0,0,0-.042-.567c-.078-1.11.262-5.123.2-6.36a19.412,19.412,0,0,0,.244-2.479A6.686,6.686,0,0,0,622.466,153.923Z" transform="translate(57.184 31.966)" fill="#eee5dd"/>
    <path id="Path_304" data-name="Path 304" d="M631.488,148.239q-.208-.58-1.321-.539a4.481,4.481,0,0,0-2.008.531l-.018.011a2.012,2.012,0,0,0-.987,2.047l.292,2.088a72.08,72.08,0,0,1,.406,13.807.569.569,0,0,0,.12.427,6.8,6.8,0,0,0,4.191,2.134.558.558,0,0,0,.666-.573c-.114-2.437-.651-10.4-.731-13.365A29.537,29.537,0,0,0,631.488,148.239Z" transform="translate(65.447 30.127)" fill="#eee5dd"/>
    <path id="Path_305" data-name="Path 305" d="M640.154,152.161a6.126,6.126,0,0,0-3.187-1.065,5.591,5.591,0,0,0-3.064,1.091c-1.939,1.241-2.652,3.58-2.687,7.026a8.726,8.726,0,0,0,1.668,4.671,7.411,7.411,0,0,0,1.166,1.175,5.03,5.03,0,0,0,3.072,1.427c1.683.012,3.16-.035,4.458-.146.53-.065,1.053-2,.119-2.193a14.569,14.569,0,0,1-5.219-1.185,2.676,2.676,0,0,1-1.176-.835,5.473,5.473,0,0,0,3.088-.143,7.125,7.125,0,0,0,2.908-1.719,4.414,4.414,0,0,0,1.387-2.753,5.789,5.789,0,0,0-.5-3.014A5.261,5.261,0,0,0,640.154,152.161Zm-2.881,6.492-.022.015a1.582,1.582,0,0,1-2.219-2.077,2.265,2.265,0,0,1,.531-.633,1.905,1.905,0,0,1,1.221-.375,1.789,1.789,0,0,1,1.33.615,1.4,1.4,0,0,1,.326.865Q638.441,157.9,637.273,158.653Z" transform="translate(67.505 31.84)" fill="#eee5dd"/>
    <path id="Path_306" data-name="Path 306" d="M628.031,148.4a6.232,6.232,0,0,0-3.309-.7,5.228,5.228,0,0,0-2.926,1.142c-1.853,1.367-2.408,3.748-2.213,7.19a5.412,5.412,0,0,0,.066.566c.481,4.225.883,10.162.949,11.829a.848.848,0,0,0,.406.7c1.261.736,2.616-.254,3.245-.83a.855.855,0,0,0,.269-.752c-.123-.912-.1-2.9-.123-3.809l-.009-.125V163.6a.87.87,0,0,1,.916-.865,19.959,19.959,0,0,0,2.8-.065.857.857,0,0,0,.751-.651,5.807,5.807,0,0,0-.269-2.9.869.869,0,0,0-.886-.557,32.9,32.9,0,0,1-3.548.2.865.865,0,0,1-.788-.644,10.281,10.281,0,0,1-.143-4.955,1.489,1.489,0,0,1,.489-.668,1.9,1.9,0,0,1,1.193-.454,1.768,1.768,0,0,1,1.312.475.772.772,0,0,1,.1.107,1.383,1.383,0,0,1,.328.733c-.184,1.085,1.971,2.047,3.142,2.122a.858.858,0,0,0,.851-.549,4.1,4.1,0,0,0,.278-1.357,5.78,5.78,0,0,0-.7-2.975A5.259,5.259,0,0,0,628.031,148.4Z" transform="translate(61.621 30.119)" fill="#eee5dd"/>
    <path id="Path_307" data-name="Path 307" d="M639.677,162.1a46.36,46.36,0,0,0-6.889,1.716.737.737,0,0,0-.463.955.68.68,0,0,0,.648.49.736.736,0,0,0,.238-.039,45.726,45.726,0,0,1,6.8-1.694.654.654,0,0,0,.553-.782A.768.768,0,0,0,639.677,162.1Z" transform="translate(68.044 37.383)" fill="#eee5dd"/>
    <path id="Path_308" data-name="Path 308" d="M650.761,158.2a18.9,18.9,0,0,0,.244-2.479,6.752,6.752,0,0,0-.178-1.8,4.194,4.194,0,0,0-1.945-2.264.645.645,0,0,0-.937.358,2.466,2.466,0,0,1-1.388,1.578.648.648,0,0,0-.326.767c.218.7.511,1.647.62,2.013a.632.632,0,0,1,.018.3,3.262,3.262,0,0,1-.4,1.08,2.113,2.113,0,0,1-.471.554.69.69,0,0,1-.12.078,1.763,1.763,0,0,1-2.44-.942c-.068-.177-.125-.364-.179-.555l-.014-.053a4.407,4.407,0,0,1-.089-.7h0a7.265,7.265,0,0,1,.523-1.93.641.641,0,0,0-.229-.751c-.79-.552-.713-.845-1.029-1.7a.643.643,0,0,0-.868-.359,4.677,4.677,0,0,0-2.2,2.222,6.307,6.307,0,0,0-.218,1.724,14.869,14.869,0,0,0,0,1.688,5.966,5.966,0,0,0,.147.865,6.1,6.1,0,0,0,2.074,3.5,4.077,4.077,0,0,0,1.011.665,8.116,8.116,0,0,0,3.942.45c.406,1.554.96,3.929.546,5.329a1.51,1.51,0,0,1-.516.645,1.9,1.9,0,0,1-1.212.4,1.763,1.763,0,0,1-1.289-.529,1,1,0,0,1-.1-.111,1.4,1.4,0,0,1-.3-.746c.23-1.076-1.882-2.128-3.049-2.253a.863.863,0,0,0-.875.511,4.147,4.147,0,0,0-.334,1.345,5.785,5.785,0,0,0,.567,3,5.28,5.28,0,0,0,2.092,2.285,5.929,5.929,0,0,0,6.25-.176c1.909-1.289,2.563-3.645,2.515-7.091a5.475,5.475,0,0,0-.042-.567C650.479,163.451,650.82,159.437,650.761,158.2Z" transform="translate(71.484 31.966)" fill="#eee5dd"/>
    <path id="Path_309" data-name="Path 309" d="M691.4,164.942c1.069-.6,6.065-8.637,6-16.692-.1-12.329-1.859-22.661-12.87-26.531-4.03-1.417-3.92,5.28-7.972,6.071-8.3,1.619-8.631-5.829-12.344-5.97-3.891-.147-6.166,7-6.981,9.207-1.322,3.583-1.221,7.341-.847,11.045a15.768,15.768,0,0,0,4.941,9.856,25.509,25.509,0,0,0,10.381,6.178,19.562,19.562,0,0,0,11.047.531,9.572,9.572,0,0,1-4.212,2.977c-3.777,1.555-19.016,7.4-27.323,1.886-4.6-3.054-.117-28.7-.418-41s-1.011-20.131-2.133-23.5q-.733-2.074-4.716-1.934a15.988,15.988,0,0,0-7.189,1.88,8.576,8.576,0,0,0-3.037,2.608,5.2,5.2,0,0,0-.727,3.673l1.181,8.542c2.843,20.477,9.379,34.391,1.8,34.442-1.948-.026-3.045-19.137-7.112-28.144q-.562-2.193-4.558-2.079c-.292.008-.57.048-.856.071-.174-1.725-.36-3.52-.543-5.284-.444-4.258-.878-8.333-1.143-10.785a1.4,1.4,0,0,0-1.244-1.238,1.311,1.311,0,0,0-.316.008,1.28,1.28,0,0,0-.317.087l-.006,0-.018.006a1.342,1.342,0,0,0-.357.226,1.3,1.3,0,0,0-.26.319,1.313,1.313,0,0,0-.172.806c.546,5.015,1.1,10.522,1.626,16.274a15.066,15.066,0,0,0-3.651,1.415,9.608,9.608,0,0,0-2.5,1.909,5.468,5.468,0,0,0-1.209,4.639c.862,4.8-.185,23.974-2.371,30.719a5.559,5.559,0,0,1-5.332,3.732h-2.429a30.474,30.474,0,0,1-3.931-.337q7.748-7.947,8.03-18.16a21.913,21.913,0,0,0-.733-5.853c-1.239-4.821-5.745-10.543-9.219-13.211s-2.5,4.756-10.084,4.756c-6.4,0-5.587-6.679-9-4.553-3.708,2.3-7.96,8.187-9.2,13.008a20.619,20.619,0,0,0-.561,5.853q.113,10.212,7.816,18.16a27.77,27.77,0,0,1-4.869.337s-3.709.63-5.357-1.336-2.38-5.024-2.19-9.18v-.447q.677-8.987.224-27.432T562.009,99q-.733-2.074-4.716-1.934a15.992,15.992,0,0,0-7.189,1.88,8.576,8.576,0,0,0-3.037,2.608,5.2,5.2,0,0,0-.727,3.673l1.181,8.542q4.264,30.715,3.37,38.239c-.785,7.587-5.19,11.264-6.534,10.138a12.738,12.738,0,0,1-3.454-5.975c0-.074.14-.7.423-1.877a56.485,56.485,0,0,0,.588-8.554,64.284,64.284,0,0,0-3-21.415c-.45-1.307-8.77-2.474-11.088-1.5-4.546,1.916-1.963,14.818-11.536,15.784-5.513.557-9.561-8.751-13.86-7.486-8.658,2.545-3.927,23.475-2.75,28.344a20.74,20.74,0,0,0,7.5,11.8,21.3,21.3,0,0,0,6.036,3.342,20,20,0,0,0,6.85,1.206,19.05,19.05,0,0,0,7.5-1.719c1.3-.558,4.371-7.434,5.82-7.028,4.451,1.25,9.683,3.487,12.941,2.139,1.632-.677,8.819-5.623,10.387-4.9,12.259,5.62,13.281,5.62,32.862-.808,3.779-1.239,9.025,11.194,15.781,9.64,0,0,8.569-.83,12.517-20.916.293-1.494,2.568-2.6,5.244-2.966.041.656.086,1.313.125,1.965l.033.545c.053.842.1,1.674.147,2.509a8.937,8.937,0,0,0-1.552.847,9.636,9.636,0,0,0-3.282,3.815,5.054,5.054,0,0,0,1.081,5.848,8.632,8.632,0,0,0,4.38,2.1c.027.71.059,1.432.084,2.128a10.543,10.543,0,0,0-4.377,1.822,5.042,5.042,0,0,0-2.145,2.792,4.266,4.266,0,0,0,1.594,4.358,10.431,10.431,0,0,0,5.22,2.566c0,.156.007.311.01.468q.065,4.016.092,8.035a3.415,3.415,0,0,0-1.191,1.48,1.348,1.348,0,0,0,.077,1.3,1.177,1.177,0,0,0,.111.176,3.855,3.855,0,0,0,.669.588,3.718,3.718,0,0,0,.572.354,2.7,2.7,0,0,0,.68.232,2.145,2.145,0,0,0,1.813-.442,2.058,2.058,0,0,0,.281-.256,3.293,3.293,0,0,0,.3-.441,3.191,3.191,0,0,0,.421-1.42c.01-.147.024-.293.023-.454a2.161,2.161,0,0,0-.354-1.1,1.547,1.547,0,0,0-.776-.636c-.017-2.587-.084-5.173-.128-7.759a16.618,16.618,0,0,0,1.922-.435,2.419,2.419,0,0,0,1.709-2.27c.072-.945-.02-1.9-.035-2.857-.02-1.185-.1-2.375-.038-3.554a2.266,2.266,0,0,0-1.79-2.643,7.53,7.53,0,0,0-2.052-.2c-.018-.561-.042-1.124-.06-1.685a7.846,7.846,0,0,0,2.229-.489c2.055-.809,2.882-2.444,2.136-4.46-.417-1.127-1.011-2.193-1.533-3.284a15.518,15.518,0,0,0-2.2-3.658,4.637,4.637,0,0,0-1.166-1c-.084-1.658-.185-3.315-.28-4.973,3.418.232,6.659,1.793,6.787,5.435C633.172,169.211,664.821,179.9,691.4,164.942ZM675.734,146.2q-4.167-2.723-4.165-5.7a5,5,0,0,1,1.179-3.087,6.386,6.386,0,0,1,4.759-2.192,6.78,6.78,0,0,1,4.365,1.348,8.085,8.085,0,0,1,2.026,2.514C686.508,144.1,680.475,149.282,675.734,146.2ZM528.753,156.627q-1.415,4.54-3.61,5.832a9.175,9.175,0,0,1-6.882.645,9.373,9.373,0,0,1-5.215-3.756,6.152,6.152,0,0,1-.906-5.581,12.648,12.648,0,0,1,3.378-5.218,20.325,20.325,0,0,1,6.051-3.927l.068-.029a5.531,5.531,0,0,1,7.748,4.689A21.8,21.8,0,0,1,528.753,156.627Zm65.311-11c-.372,1.608-.6,2.527-.671,2.751-.032.083-.063.164-.093.245-1.825,4.675-8.694,4.656-10.57,0a22.452,22.452,0,0,1-.776-2.289,6.718,6.718,0,0,1-.235-1.444,13.136,13.136,0,0,1,1.418-7.265,5.261,5.261,0,0,1,9.558,0A13.691,13.691,0,0,1,594.064,145.626Z" transform="translate(0 4.595)" fill="#eee5dd"/>
    <path id="Path_310" data-name="Path 310" d="M553.735,147.4a163.466,163.466,0,0,0-24.492,6.042c-1.868.617-1.068,3.585.817,2.962a163.793,163.793,0,0,1,24.492-6.042C556.5,150.034,555.672,147.072,553.735,147.4Z" transform="translate(15.554 29.962)" fill="#eee5dd"/>
    <path id="Path_311" data-name="Path 311" d="M534.185,98.41a5.648,5.648,0,0,0,6.993-3.357,5.708,5.708,0,0,0-3.634-7.011,1.28,1.28,0,0,0-1.692.743,4.646,4.646,0,0,0-4.708,2.4A5.288,5.288,0,0,0,534.185,98.41Zm-.477-5.3a1.63,1.63,0,0,1,2.658-.948,1.462,1.462,0,0,0,1.79.2,2.392,2.392,0,0,1-2.45,3.245A2.2,2.2,0,0,1,533.708,93.106Z" transform="translate(16.783 0)" fill="#eee5dd"/>
    <path id="Path_312" data-name="Path 312" d="M594.58,98.149a1.484,1.484,0,0,0,1.038-1.6,4.459,4.459,0,0,0,2.032-4.81A5.035,5.035,0,0,0,590.9,88.5a5.321,5.321,0,0,0-2.932,6.533A5.381,5.381,0,0,0,594.58,98.149Zm-3.118-6.387a1.9,1.9,0,0,1,2.784.018,1.411,1.411,0,0,1-1.2,2.4,1.271,1.271,0,0,0-1.31.755A1.936,1.936,0,0,1,591.462,91.762Z" transform="translate(45.552 0.081)" fill="#eee5dd"/>
    <path id="Path_313" data-name="Path 313" d="M611.257,115.217a22.694,22.694,0,0,1,3.142,3.16c.317.466.659.913,1.009,1.349a2.406,2.406,0,0,0,3.132.548,14.573,14.573,0,0,0,5.354-5.644,5.282,5.282,0,0,0,.7-2.148,1.438,1.438,0,0,0-.648-1.406,35.248,35.248,0,0,0-3.258-2.18c-9.119-3.918-11.113,3.81-10.9,4.4A5.375,5.375,0,0,0,611.257,115.217Z" transform="translate(56.694 10.006)" fill="#eee5dd"/>
    <path id="Path_314" data-name="Path 314" d="M514.073,114.07c-.778-.165-1.561-.239-2.34-.337a4.182,4.182,0,0,0-3.658,1.106l-.029.032a10.954,10.954,0,0,0-.68.9,7.847,7.847,0,0,0-1.078,4.072,11.356,11.356,0,0,0,1.667,6.486c.976,1.548,2.494,2.153,3.87,1.458a6.482,6.482,0,0,0,1.8-1.322,14.786,14.786,0,0,0,2.768-4.2,10.188,10.188,0,0,0,1.006-4.186A3.928,3.928,0,0,0,514.073,114.07Z" transform="translate(4.513 12.977)" fill="#eee5dd"/>
    <path id="Path_315" data-name="Path 315" d="M555.16,118.759a8.008,8.008,0,0,0,3.2,1.608,5.513,5.513,0,0,0,5.474-1.649,8.485,8.485,0,0,0,2.11-5.937,5.577,5.577,0,0,0-.83-2.882c-1.082-1.846-3.178-2.511-5.681-1.739a9.621,9.621,0,0,0-6.331,5.2,3.463,3.463,0,0,0,.373,3.827A10.207,10.207,0,0,0,555.16,118.759Z" transform="translate(27.913 10.032)" fill="#eee5dd"/>
    <path id="Path_316" data-name="Path 316" d="M509.968,116.29a8.811,8.811,0,0,0,3.33.99c2.631.361,4.427-1.56,4.346-4.853l0-.039c-.175-1.137-.28-2.3-.538-3.406-.728-3.141-2.459-4.931-4.723-4.952a7.043,7.043,0,0,0-4.72,1.966,7.746,7.746,0,0,0-2.527,3.628,3.1,3.1,0,0,0,.731,3.475A31.18,31.18,0,0,0,509.968,116.29Z" transform="translate(3.823 8.11)" fill="#eee5dd"/>
  </g>
</svg>
