<svg xmlns="http://www.w3.org/2000/svg" xmlns:xlink="http://www.w3.org/1999/xlink" width="629" height="209" viewBox="0 0 629 209">
  <defs>
    <clipPath id="clip-path">
      <rect id="Rectangle_1095" data-name="Rectangle 1095" width="629" height="209" transform="translate(1)" fill="#fff" stroke="#707070" stroke-width="1"/>
    </clipPath>
  </defs>
  <g id="Mask_Group_3" data-name="Mask Group 3" transform="translate(-1)" clip-path="url(#clip-path)">
    <g id="Group_65" data-name="Group 65" transform="translate(286.378 71.99) rotate(16)">
      <path id="Path_289" data-name="Path 289" d="M69.629-42.735l-.354.41c-2.582,3.318-2.042,7.315,1.3,9.632l.138.138.181.077c3.5,2.521,7.473,1.6,9.792-2.281l.22-.448c1.517-3.679.546-6.837-2.619-8.53a.16.16,0,0,0-.188-.12C75.334-45.862,72.023-45.424,69.629-42.735Zm-105.1-69.95c.185-.732.424-1.454.546-2.195a6.49,6.49,0,0,0-3.963-7.06,6.436,6.436,0,0,0-7.813,2l-.089.105a4.237,4.237,0,0,0-.757.715,6.807,6.807,0,0,0,2.131,9.414c3.362,2.2,7.257,1.184,9.686-2.516Zm144.824,96.41-.335.415c-2.115,2.234-2.073,4.781-.821,7.327a6.427,6.427,0,0,0,6.464,3.784c2.553-.145,4.687-1.2,5.639-3.841l.07-.138a6.461,6.461,0,0,0-1.988-8.638A6.675,6.675,0,0,0,109.356-16.274ZM-86.243-146.42a.436.436,0,0,0-.258.309,6.654,6.654,0,0,0,1.081,9.775c3.353,2.546,8.549,1.4,10.019-2.338l.244-.378c1.937-3.048.2-7.1-2.237-8.666A6.615,6.615,0,0,0-86.243-146.42Zm-38.35-25.5a.322.322,0,0,0-.223.263c-2.122,1.984-2.145,4.4-1.184,6.851a6.438,6.438,0,0,0,5.9,4.3,6.148,6.148,0,0,0,6.427-3.672l.211-.378a6.59,6.59,0,0,0-2.589-8.87A6.453,6.453,0,0,0-124.593-171.919ZM18.62,45.267l.389.265a6.641,6.641,0,0,0,9.447-1.669c2.206-3.182,1.451-7.1-1.862-9.625l-.5-.3c-3.747-1.766-7.355-.828-9.311,2.42A6.632,6.632,0,0,0,18.62,45.267Zm25.5-38.306.394.267a6.614,6.614,0,0,0,9.529-1.8,6.69,6.69,0,0,0-1.953-9.5l-.476-.307c-3.524-1.812-7.161-.936-9.194,2.216A6.609,6.609,0,0,0,44.119,6.962Zm-69.9,104.959c-.635-.272-1.254-.6-1.911-.8-3.034-.959-6.7,1.011-7.93,4.232-1.205,3.156.077,6.72,2.861,7.937a7.405,7.405,0,0,0,1.676,1.111,6.761,6.761,0,0,0,8.251-3.6c1.489-3.1.511-6.46-2.511-8.612Zm148.294-222.7a.443.443,0,0,0,.242.277,11.422,11.422,0,0,0,2.1,1.093A6.84,6.84,0,0,0,133-113.353a6.522,6.522,0,0,0-2.746-8.331.4.4,0,0,0-.3-.185,6.5,6.5,0,0,0-8.678,1.29C118.655-117.58,119.3-112.471,122.514-110.781ZM-.246,73.6a6.612,6.612,0,0,0-9.072,1.951c-2.134,3.109-1.54,6.807,1.5,9.348l.464.312a6.69,6.69,0,0,0,9.531-1.878A6.617,6.617,0,0,0,.153,73.863ZM41.985-60.55c.263-.227.654-.4.762-.687a6.524,6.524,0,0,0-1.088-6.851,6.476,6.476,0,0,0-6.915-2.361,6.016,6.016,0,0,0-4.877,4.762l-.41,2.485.331,1.728c1.672,4.617,6.092,6.017,10.228,3.24l.689-.347-.324-.129ZM96.507-70.9a5.959,5.959,0,0,0,6.729.666,6.553,6.553,0,0,0,3.944-6.31c-.021-2.422-.856-4.453-3.437-5.278-.354-.387-.638-.936-1.076-1.135A6.9,6.9,0,0,0,94.047-79.8,6.607,6.607,0,0,0,96.507-70.9ZM-8.668-94.239a6.262,6.262,0,0,0-1.149,6.568A6.5,6.5,0,0,0-4.1-83.141,5.392,5.392,0,0,0,1.59-85.9c.324-.22.757-.37.957-.675A6.682,6.682,0,0,0,.8-95.655C-2.246-97.882-6.032-97.317-8.668-94.239ZM62.459-73.861a6.813,6.813,0,0,0,1.97,9.461,6.832,6.832,0,0,0,9.613-1.991,6.859,6.859,0,0,0-1.967-9.475A6.841,6.841,0,0,0,62.459-73.861ZM-.335-50.12a6.979,6.979,0,0,0,9.52-1.944,6.961,6.961,0,0,0-1.953-9.667A6.961,6.961,0,0,0-2.4-59.614,6.963,6.963,0,0,0-.335-50.12ZM-41.344,82.068a6.905,6.905,0,0,0,1.808,9.522A6.939,6.939,0,0,0-29.864,89.7a6.95,6.95,0,0,0-2-9.653A6.9,6.9,0,0,0-41.344,82.068ZM47.521-26.547a6.933,6.933,0,0,0-1.941-9.66,6.9,6.9,0,0,0-9.491,1.96,6.9,6.9,0,0,0,1.93,9.656A6.943,6.943,0,0,0,47.521-26.547ZM-68.165,64.121A6.98,6.98,0,0,0-70.083,54.6a6.972,6.972,0,0,0-9.667,1.979A6.974,6.974,0,0,0-77.828,66.1,6.956,6.956,0,0,0-68.165,64.121ZM51.652-128.2a6.937,6.937,0,0,0,9.5-1.937,6.849,6.849,0,0,0-1.977-9.625,6.861,6.861,0,0,0-9.489,1.906A6.949,6.949,0,0,0,51.652-128.2Zm45.912,14a6.791,6.791,0,0,0-9.475,1.85,6.876,6.876,0,0,0,1.869,9.656,6.9,6.9,0,0,0,9.5-1.876A6.814,6.814,0,0,0,97.564-114.206Zm-61.929,22.4a6.911,6.911,0,0,0-1.986-9.637,6.914,6.914,0,0,0-9.494,1.937,6.876,6.876,0,0,0,2,9.627A6.859,6.859,0,0,0,35.636-91.809ZM-93.329-177.7a6.792,6.792,0,0,0,1.81,9.48,6.841,6.841,0,0,0,9.649-1.841,6.879,6.879,0,0,0-1.824-9.505A6.829,6.829,0,0,0-93.329-177.7ZM-16.377-13.686a6.964,6.964,0,0,0-1.88-9.681,7,7,0,0,0-9.531,1.888,6.965,6.965,0,0,0,1.716,9.559A6.953,6.953,0,0,0-16.377-13.686Zm-41.755,133.4a6.807,6.807,0,0,0-9.487,1.817,6.859,6.859,0,0,0,1.855,9.649,6.874,6.874,0,0,0,9.5-1.834A6.814,6.814,0,0,0-58.132,119.717ZM-96.475,94.192a6.878,6.878,0,0,0-9.513,1.791,6.91,6.91,0,0,0,1.873,9.667,6.885,6.885,0,0,0,9.513-1.817A6.827,6.827,0,0,0-96.475,94.192ZM57.92-96.4a6.852,6.852,0,0,0,9.529-1.66,6.853,6.853,0,0,0-1.7-9.677A6.828,6.828,0,0,0,56.1-105.89,6.812,6.812,0,0,0,57.92-96.4Zm84.52,83.924a6.912,6.912,0,0,0,9.679-1.817,6.972,6.972,0,0,0-1.866-9.527,6.964,6.964,0,0,0-9.559,1.658A6.9,6.9,0,0,0,142.44-12.474ZM-42.251-143.691a6.963,6.963,0,0,0-2.045-9.641,6.98,6.98,0,0,0-9.513,1.953,6.927,6.927,0,0,0,1.883,9.515A6.913,6.913,0,0,0-42.251-143.691ZM-6.065,41.877a6.906,6.906,0,0,0-9.564,1.573,6.939,6.939,0,0,0,1.536,9.733,6.945,6.945,0,0,0,9.576-1.578A6.928,6.928,0,0,0-6.065,41.877ZM116.256-142.329a6.833,6.833,0,0,0,9.625-1.927,6.841,6.841,0,0,0-1.913-9.477,6.828,6.828,0,0,0-9.623,1.939A6.809,6.809,0,0,0,116.256-142.329ZM10.538,4.136a6.89,6.89,0,1,0,11.47,7.637,6.89,6.89,0,1,0-11.47-7.637ZM-172.146-117.592a6.973,6.973,0,0,0-1.944-9.515,7.013,7.013,0,0,0-9.67,2,7.005,7.005,0,0,0,2.145,9.637A6.944,6.944,0,0,0-172.146-117.592Zm15.836-36.367a6.945,6.945,0,0,0,9.545-1.763,6.95,6.95,0,0,0-1.756-9.7,7,7,0,0,0-9.562,1.737A7.026,7.026,0,0,0-156.31-153.959ZM13.736-29.7a6.835,6.835,0,0,0-9.627,1.932,6.767,6.767,0,0,0,1.9,9.459,6.816,6.816,0,0,0,9.5-1.726A6.87,6.87,0,0,0,13.736-29.7ZM-42.69,25.762a6.887,6.887,0,0,0-1.848-9.5,6.989,6.989,0,0,0-9.67,1.944,7,7,0,0,0,1.885,9.534A6.885,6.885,0,0,0-42.69,25.762Zm156.4-65.694a6.771,6.771,0,0,0-1.864-9.459,6.928,6.928,0,0,0-9.656,1.925A6.9,6.9,0,0,0,104.3-37.86,6.733,6.733,0,0,0,113.708-39.933ZM-51.853-186.025a6.938,6.938,0,0,0-9.637,1.953,6.933,6.933,0,0,0,1.953,9.48,6.893,6.893,0,0,0,9.63-1.956A6.9,6.9,0,0,0-51.853-186.025ZM-136.035,67.856a6.7,6.7,0,0,0-9.447,1.819,6.773,6.773,0,0,0,1.8,9.63,6.949,6.949,0,0,0,9.531-1.791A6.915,6.915,0,0,0-136.035,67.856ZM77.887-167.874a6.818,6.818,0,0,0,9.627-1.887,6.836,6.836,0,0,0-1.871-9.484,6.9,6.9,0,0,0-9.658,1.88A6.894,6.894,0,0,0,77.887-167.874ZM139.246-78.3a6.712,6.712,0,0,0-1.92-9.433,6.881,6.881,0,0,0-9.634,1.955,6.986,6.986,0,0,0,1.965,9.5A6.812,6.812,0,0,0,139.246-78.3ZM10.226-164.214a6.813,6.813,0,0,0,1.808,9.634,6.992,6.992,0,0,0,9.534-1.824,6.891,6.891,0,0,0-1.895-9.651A6.713,6.713,0,0,0,10.226-164.214Zm-36.554-15.907a7,7,0,0,0,9.538-1.819,6.893,6.893,0,0,0-1.9-9.653,6.94,6.94,0,0,0-9.529,1.784A7.008,7.008,0,0,0-26.328-180.121ZM-56.413-208.3a6.832,6.832,0,0,0-1.674-9.52,6.788,6.788,0,0,0-9.653,1.684,6.873,6.873,0,0,0,1.81,9.656A6.917,6.917,0,0,0-56.413-208.3Zm-15,306.218a6.844,6.844,0,0,0,9.625-1.841,6.848,6.848,0,0,0-1.862-9.468,6.82,6.82,0,0,0-9.616,1.848A6.82,6.82,0,0,0-71.412,97.918ZM116.111,27.391a6.923,6.923,0,1,0,7.562-11.6,6.923,6.923,0,1,0-7.562,11.6ZM-15.4-125.716a6.741,6.741,0,0,0,1.911,9.44,6.91,6.91,0,0,0,9.646-1.948A6.947,6.947,0,0,0-6-127.838,6.774,6.774,0,0,0-15.4-125.716Zm-55.185,12.186a7.019,7.019,0,0,0-9.686,1.923,7.037,7.037,0,0,0,1.916,9.536,7.036,7.036,0,0,0,9.569-1.754A7.007,7.007,0,0,0-70.589-113.531Zm-49.227-24.376a6.911,6.911,0,0,0,1.89,9.5,6.939,6.939,0,0,0,9.651-1.993,6.941,6.941,0,0,0-1.918-9.505A6.869,6.869,0,0,0-119.817-137.907ZM84.45-135.85a6.934,6.934,0,0,0,9.468-1.963,6.871,6.871,0,0,0-2-9.606,6.887,6.887,0,0,0-9.581,2.129A6.937,6.937,0,0,0,84.45-135.85Zm93.193,83.219a6.942,6.942,0,0,0-1.88-9.51,6.893,6.893,0,0,0-9.667,1.819,6.994,6.994,0,0,0,2.031,9.651A7,7,0,0,0,177.643-52.632ZM28.027-124.664a6.9,6.9,0,0,0-2.113-9.59,6.907,6.907,0,0,0-9.442,2.08,6.893,6.893,0,0,0,1.934,9.47A6.892,6.892,0,0,0,28.027-124.664ZM87.224-.152a6.808,6.808,0,0,0-1.939-9.611A7,7,0,0,0,75.777-7.8a7.025,7.025,0,0,0,2,9.667A6.851,6.851,0,0,0,87.224-.152ZM-140.284-123.942a6.84,6.84,0,0,0-1.984-9.611,6.956,6.956,0,0,0-9.5,1.951,6.888,6.888,0,0,0,2.042,9.616A6.764,6.764,0,0,0-140.284-123.942ZM134.259-53.97a6.8,6.8,0,0,0,1.857,9.63,6.877,6.877,0,0,0,9.5-1.829,6.888,6.888,0,0,0-1.7-9.529A6.8,6.8,0,0,0,134.259-53.97ZM-45.86,59.678a6.877,6.877,0,0,0,9.625-1.986A6.811,6.811,0,0,0-38.2,48.238a6.721,6.721,0,0,0-9.461,1.8A6.809,6.809,0,0,0-45.86,59.678ZM-146.054,12.233a7.036,7.036,0,0,0-1.984-9.524,7.056,7.056,0,0,0-9.677,2.007,7.04,7.04,0,0,0,1.993,9.522A7.02,7.02,0,0,0-146.054,12.233ZM38.43-194.142a6.909,6.909,0,0,0,9.5-1.864,6.925,6.925,0,0,0-1.958-9.646,6.753,6.753,0,0,0-9.557,2.1A6.733,6.733,0,0,0,38.43-194.142Zm-48.763,43.963a6.786,6.786,0,0,0-1.892-9.466,6.9,6.9,0,0,0-9.644,1.93,6.886,6.886,0,0,0,1.932,9.484A6.784,6.784,0,0,0-10.333-150.179ZM-145.311-99.613a6.877,6.877,0,0,0,1.8,9.508,6.941,6.941,0,0,0,9.667-1.885,6.972,6.972,0,0,0-1.815-9.531A6.918,6.918,0,0,0-145.311-99.613ZM-94.17-65.7a7.021,7.021,0,0,0-2.174-9.632,7.052,7.052,0,0,0-9.5,2.124,7.03,7.03,0,0,0,2,9.52A7.025,7.025,0,0,0-94.17-65.7ZM61.664,38.24A6.855,6.855,0,0,0,59.8,28.6a6.928,6.928,0,0,0-7.595,11.59A6.787,6.787,0,0,0,61.664,38.24ZM-111.514-96.548a6.868,6.868,0,0,0,9.618-1.92,6.938,6.938,0,0,0-1.916-9.482,6.961,6.961,0,0,0-9.639,1.937A6.906,6.906,0,0,0-111.514-96.548Zm69.732,10.46a6.849,6.849,0,0,0,1.719,9.51,7.033,7.033,0,0,0,9.7-1.824,7.006,7.006,0,0,0-1.8-9.545A6.814,6.814,0,0,0-41.782-86.088ZM160.6-93.526a6.866,6.866,0,0,0,1.883,9.62,6.94,6.94,0,0,0,9.491-1.862,6.881,6.881,0,0,0-1.916-9.62A6.83,6.83,0,0,0,160.6-93.526ZM-130.11-24.064a7.018,7.018,0,0,0,9.641-2.136,7.046,7.046,0,0,0-2.117-9.494,7.049,7.049,0,0,0-9.534,1.953A7.048,7.048,0,0,0-130.11-24.064Zm62.763-23.628a6.789,6.789,0,0,0,1.8,9.487,7,7,0,0,0,9.684-1.888,7.038,7.038,0,0,0-1.857-9.545A6.853,6.853,0,0,0-67.347-47.691ZM90.514,65.69a6.925,6.925,0,1,0-1.85-9.7A7.016,7.016,0,0,0,90.514,65.69Zm-262.2-125.681a6.914,6.914,0,0,0,1.866,9.5,6.969,6.969,0,0,0,9.656-1.97,6.957,6.957,0,0,0-1.89-9.513A6.9,6.9,0,0,0-171.687-59.992Zm52.444,90.257a6.813,6.813,0,0,0,1.841,9.482,7.01,7.01,0,0,0,9.677-1.937,7.041,7.041,0,0,0-1.906-9.536A6.859,6.859,0,0,0-119.242,30.266ZM35.321,77.812A6.811,6.811,0,0,0,33.45,68.18a6.931,6.931,0,0,0-7.592,11.6A6.848,6.848,0,0,0,35.321,77.812Zm-23.032,40.7a6.858,6.858,0,0,0-1.845-9.641,7.026,7.026,0,0,0-9.531,1.9,7,7,0,0,0,1.913,9.677A6.819,6.819,0,0,0,12.289,118.516ZM-93.622-8.22a6.846,6.846,0,0,0,1.8,9.651A7.029,7.029,0,0,0-82.278-.415a7.026,7.026,0,0,0-1.871-9.693A6.809,6.809,0,0,0-93.622-8.22ZM-155.7-29.984a6.9,6.9,0,0,0-9.625,1.9,6.983,6.983,0,0,0,1.909,9.5,6.954,6.954,0,0,0,9.637-1.934A6.868,6.868,0,0,0-155.7-29.984Zm83.76-40.221a6.767,6.767,0,0,0,9.489-1.684,6.853,6.853,0,0,0-1.7-9.663,6.9,6.9,0,0,0-9.656,1.864A6.836,6.836,0,0,0-71.945-70.205ZM91.742,22.233a6.843,6.843,0,0,0-9.59,2.077,6.888,6.888,0,0,0,11.51,7.564A6.9,6.9,0,0,0,91.742,22.233ZM16.029-189.784a6.831,6.831,0,0,0-1.946-9.44,6.9,6.9,0,0,0-9.618,1.958,6.963,6.963,0,0,0,2.15,9.595A6.862,6.862,0,0,0,16.029-189.784Zm-191.406,106a6.784,6.784,0,0,0,9.6-1.848,6.925,6.925,0,0,0-1.85-9.491,7.034,7.034,0,0,0-9.667,1.878A6.89,6.89,0,0,0-175.377-83.788ZM-19.423,20.036a6.823,6.823,0,0,0,9.461-1.81,6.937,6.937,0,0,0-1.876-9.644,6.9,6.9,0,0,0-9.473,1.878A6.734,6.734,0,0,0-19.423,20.036ZM-111,71.566a6.926,6.926,0,0,0,9.531-1.721,6.909,6.909,0,0,0-1.871-9.656,6.9,6.9,0,0,0-9.5,1.873A6.905,6.905,0,0,0-111,71.566Zm165.251-235.7a6.858,6.858,0,0,0-1.749-9.51,6.933,6.933,0,0,0-9.66,1.859,7,7,0,0,0,1.911,9.515A6.9,6.9,0,0,0,54.255-164.137ZM-33.74-44.772a6.8,6.8,0,0,0,9.639-1.66,6.887,6.887,0,0,0-1.6-9.517,6.929,6.929,0,0,0-9.679,1.667A6.878,6.878,0,0,0-33.74-44.772ZM-75.917,31.4A6.789,6.789,0,0,0-77.7,21.942a6.874,6.874,0,0,0-9.63,1.815,6.942,6.942,0,0,0,1.791,9.5A6.881,6.881,0,0,0-75.917,31.4ZM-114.26,5.93a6.766,6.766,0,0,0-1.73-9.477,6.864,6.864,0,0,0-9.665,1.735,6.918,6.918,0,0,0,1.925,9.649A6.854,6.854,0,0,0-114.26,5.93Zm-22.762-64.184A6.885,6.885,0,0,0-127.51-60,7.037,7.037,0,0,0-129.4-69.68a7.058,7.058,0,0,0-9.524,1.939A6.908,6.908,0,0,0-137.022-58.254Zm-4.652,92.923a6.9,6.9,0,0,0-9.484,1.827,6.889,6.889,0,0,0,1.927,9.616,6.82,6.82,0,0,0,9.571-2.023A6.812,6.812,0,0,0-141.674,34.669ZM58.647,72.006a6.853,6.853,0,0,0,9.6-1.951,6.989,6.989,0,0,0-1.979-9.477,6.909,6.909,0,0,0-9.482,1.843A6.779,6.779,0,0,0,58.647,72.006ZM-87.8-33.813a6.907,6.907,0,0,0-1.937-9.461,6.991,6.991,0,0,0-9.632,1.984,6.87,6.87,0,0,0,2,9.433A6.779,6.779,0,0,0-87.8-33.813ZM-49.593-8.141a6.945,6.945,0,0,0-1.7-9.541,7.011,7.011,0,0,0-9.684,1.85,6.873,6.873,0,0,0,1.909,9.473A6.8,6.8,0,0,0-49.593-8.141Zm26-207.939a6.966,6.966,0,0,0-1.892-9.491c-2.652-1.822-7.784-.839-9.6,1.838a7.024,7.024,0,0,0,2,9.637A7.03,7.03,0,0,0-23.6-216.079ZM79.817-202.534c2.4-3.611,1.236-7.264-2.828-8.842a18.771,18.771,0,0,0-3.217-1.165,4.924,4.924,0,0,0-2.814.167,6.638,6.638,0,0,0-3.665,6.917,6.776,6.776,0,0,0,5.231,5.841A6.818,6.818,0,0,0,79.817-202.534Zm-178.072,2.715c3.5,1.759,7.414,1.1,9.651-1.784a6.846,6.846,0,0,0-.748-9.316,2.853,2.853,0,0,0-3.473-.706c-1.684.776-3.465,1.334-5.194,2.012-2.708,1.057-3.517,2.253-2.729,5.025A25.446,25.446,0,0,0-98.255-199.819Zm108.7-26.964-13.074-.659c-.839,3.252,0,5.808,2.293,7.491a6.772,6.772,0,0,0,7.848.349C10.008-221.165,11.051-223.6,10.442-226.783Zm-190.926,68.17-9.407,9.78c3.381,2.293,6.75,2,9.18-.45C-178.256-151.764-178.05-155.272-180.484-158.613Zm50.121-35.741a6.444,6.444,0,0,0,7.789.959,6.247,6.247,0,0,0,3.231-6.774ZM-191.5-47.675c1.219-2.22.72-4.76-1.36-6.7Zm-6.828-37.534-.565.134.842,5.468A4.726,4.726,0,0,0-198.325-85.209Z" transform="translate(89.993 8.203)" fill="#7fab95"/>
      <path id="Path_290" data-name="Path 290" d="M84.308-64.659c1.66,4.249,3.465,8.446,4.954,12.755,3.2,9.269,1.426,18.582-1.447,27.339C81.47-5.221,70.239,11.232,55.378,25.117,41.439,38.14,25.019,46.787,6.939,52.748c-21.07,6.943-42.561,10.087-64.6,7.867a69.646,69.646,0,0,1-26.772-8.64s-22.441-14.9-31.215-23.227A321.478,321.478,0,0,1-177.79-41.728l-16.938-26.233c-3.686-7.355-7.517-14.64-11.025-22.083-5.219-11.076-8.059-22.955-5.862-34.948A101.8,101.8,0,0,1-202.3-151.96c9.1-18.092,21.757-33.818,35.729-48.411a221.287,221.287,0,0,1,17.039-15.843c2.256-1.906,5.522-2.572,8.228-4A117.617,117.617,0,0,1-97.525-233.3a72.907,72.907,0,0,1,15.508.443c17.163,2.031,32.868,8.139,46.273,19.037,6.727,5.47,12.528,12.134,18.4,18.572q19.492,21.359,38.613,43.056c11.721,13.264,23.253,26.7,34.866,40.057C67.716-97.455,84.308-64.659,84.308-64.659Z" transform="translate(71.875)" fill="#214f4b"/>
      <path id="Path_291" data-name="Path 291" d="M-79.254-181.8s45.849,33.157,41.035,70.091c-5.747,44.09-50.714,81.326-69.8,78.569s-22.294-16.7.249-25.9,37.321-28.319,42.587-54.494c3.238-16.089-14.254-49.757-25.213-67.019C-99.311-194.611-97.934-198.06-79.254-181.8Z" transform="translate(191.346 55.035)" fill="#9ed2b7" opacity="0.28"/>
      <path id="Path_292" data-name="Path 292" d="M-117.894-9.644c-14.748,21.543-31.133,34.474-54.3,40.594-20.873,5.517-42.639-.875-58.852-17.878C-240.8,2.844-246.193-8.734-250.09-20.381c-2.689-8.054-5.025-16.324-5.73-24.186-1.489-16.64,6.593-28.465,19.466-36.486,24-14.973,53.12-19.058,87.69-8.807,27.018,8.01,41.827,26.465,40.512,49.445-.762,13.252-5.189,24.734-9.742,30.77" transform="translate(13.201 185.593)" fill="#fc3"/>
      <path id="Path_293" data-name="Path 293" d="M-172.569-48.687s8.127,22-12.765,32.364-44.339,4.331-34.979-10.539,22.469-39.037,23.632-53.56S-174.344-76.629-172.569-48.687Z" transform="translate(58.335 199.04)" fill="#fffefd" opacity="0.43"/>
      <g id="Group_64" data-name="Group 64" transform="translate(-265.813 -185.645)">
        <path id="Path_294" data-name="Path 294" d="M-241.689,30.571c1.744-.781,3.489-1.564,5.634-2.523-3.388-4.99-.363-7.609,2.844-10.793q15.246-15.134,29.9-30.856,40-42.922,79.734-86.089c8.774-9.527,17.1-19.466,25.825-29.042,7.6-8.347,15.456-16.467,23.236-24.652C-64.135-164.3-53.626-175.1-43.389-186.155c3.118-3.365,5.369-7.517,8.3-11.072,3.674-4.448,8.467-6.947,14.279-5.2,5.726,1.721,9.808,5.451,11.4,11.562a25.2,25.2,0,0,0,2.83,7.011c2.567,4.082,2.694,8.153-.335,11.642-7.226,8.326-14.5,16.659-22.31,24.425-12.286,12.209-25.475,23.529-37.422,36.048C-74.1-103.914-79.967-94.559-86.6-85.933a59.294,59.294,0,0,1-6.319,7.52c-20.268,18.779-35.879,41.065-49.382,64.974a27.283,27.283,0,0,1-3.78,5.505c-6.366,6.654-13.163,12.919-19.25,19.815-4.617,5.233-8.434,11.177-12.5,16.88a5.988,5.988,0,0,0-.715,2.985,42.608,42.608,0,0,1-11.6,18c-8.811,8.021-15.018,16.04-22.835,13.44s-22.249-14.812-27.663-18.415S-253.335,33.608-241.689,30.571Z" transform="translate(289.88 226.729)" fill="#eb4f25"/>
        <path id="Path_295" data-name="Path 295" d="M-169.957,20.593c-3.606,2.809-8.007,14.633-13.409,24.054s-26.315-4.563-26.315-4.563c.612-3.444-.56-5.2-3.191-6.987-6.8-4.612-6.926-6.335-1.505-12.593a44.663,44.663,0,0,1,3.224-3.723l32.1-35.03q61.011-65.618,122.584-130.709c7.625-8.014,17.166-14.254,26.076-20.98,3.046-2.3,7.032-4.335,10.8-1.573a11.111,11.111,0,0,1,4.232,11.637c-2.558,11.538-5.78,22.472-15.82,30.692-8.113,6.645-14.535,15.351-21.736,23.114q-49.5,53.347-99.01,106.68S-166.354,17.786-169.957,20.593Z" transform="translate(329.802 267.266)" fill="#eb4f25"/>
        <path id="Path_296" data-name="Path 296" d="M-213.931-155.157c10.849-11.323,13.292-15.989,18.716-23.637s12.3-8.035,17.8-15.3a13.847,13.847,0,0,1,13.548-5.419c2.621,1.862,4.849,3.569,8.441,2.551,2.652-.753,3.686.642,2.992,3.625a6.206,6.206,0,0,0,1.184,4.954s-10.094,15.914-18.115,27.464-15.508,17.825-22.078,25.7-20.415,22.038-21.689,23.794c-6.312,8.7-12.493,17.494-18.964,26.071a176.165,176.165,0,0,1-13.14,15.815c-2.485,2.6-6.12,4.075-9.151,6.178-2.3,1.6-4.4,3.475-6.72,5.046a22.014,22.014,0,0,1-3.843,1.681c-.3-1.351-.94-2.72-.858-4.047.3-4.861.246-9.852,1.423-14.518,1.468-5.824,3.3-11.789,6.256-16.955,6.148-10.739,13.128-21,19.8-31.431C-237.114-125.473-224.78-143.834-213.931-155.157Zm54.759,27.182c7.866-12.314,21.316-23.562,26.739-31.213s10-9.756,10-9.756c1.48-1.608,3.039-3.081,4.342-4.753q11.564-14.832,23.02-29.747c3.749-4.891,8.746-7.259,14.68-8.64,8.3-1.93,16.242-.959,24.223,1.351,5.714,1.655,7.524,5.236,4.675,10.5a69.831,69.831,0,0,1-6.75,10c-6.481,8.188-12.378,17.046-19.914,24.144-12.064,11.358-20.347,26.254-34.212,35.813-.49.34-1.247.7-1.332,1.149-.926,4.957-5.388,7.182-8.007,10.772a60.961,60.961,0,0,1-16.95,16.247,34.422,34.422,0,0,0-6.265,5.7c-9.269,9.721-19.1,19-27.5,29.424-6.8,8.432-13.951,16.143-22.774,22.39-1.773,1.257-2.943,3.351-4.436,5.015-4.46,4.964-8.952,9.892-13.409,14.856-5.777,6.436-11.224,13.205-17.4,19.236A100.372,100.372,0,0,1-245.322,5.89c-1.773,1.177-6.2,1.761-6.507,1.154-1.449-2.884-1.923-6.267-2.664-9.494-.08-.338.3-.842.563-1.189q12.9-16.843,25.85-33.654c1.362-1.766,3.046-3.278,4.457-5.008,8.014-9.822,15.961-19.7,24.008-29.489a20.2,20.2,0,0,1,4.558-4.272c11.243-7.165,14.973-20.136,23.386-28.842A180.5,180.5,0,0,1-159.173-127.975Z" transform="translate(265.813 213.114)" fill="#eb4f25"/>
        <path id="Path_297" data-name="Path 297" d="M-168.38-57.45c13.412-20.945,32.512-36.076,51.685-51.162,6.8-5.351,13.278-11.112,20.12-16.4,1.531-1.184,4.49-2.181,5.845-1.465s2.546,3.967,2.075,5.611c-4.551,15.914-6.788,32.892-21.74,43.9-6.073,4.467-10.8,10.713-16.512,15.728a92.63,92.63,0,0,1-12.964,9.3,111.834,111.834,0,0,1-15.461,8.108,162.048,162.048,0,0,1-18.244,5.862c-1.294.363-3.66-.181-4.284-1.128-.666-1.013-.345-3.29.389-4.507C-174.624-48.336-171.44-52.855-168.38-57.45Z" transform="translate(383.597 329.288)" fill="#eb4f25"/>
      </g>
    </g>
  </g>
</svg>
