<svg xmlns="http://www.w3.org/2000/svg" width="38.191" height="38.191" viewBox="0 0 38.191 38.191">
  <path id="Path_319" data-name="Path 319" d="M19.1,3.395a58.55,58.55,0,0,1,7.638.212,9.841,9.841,0,0,1,3.607.637A7.451,7.451,0,0,1,33.947,7.85a9.841,9.841,0,0,1,.637,3.607c0,1.91.212,2.546.212,7.638a58.55,58.55,0,0,1-.212,7.638,9.841,9.841,0,0,1-.637,3.607,7.451,7.451,0,0,1-3.607,3.607,9.841,9.841,0,0,1-3.607.637c-1.91,0-2.546.212-7.638.212a58.55,58.55,0,0,1-7.638-.212,9.841,9.841,0,0,1-3.607-.637A7.451,7.451,0,0,1,4.243,30.34a9.841,9.841,0,0,1-.637-3.607c0-1.91-.212-2.546-.212-7.638a58.55,58.55,0,0,1,.212-7.638A9.841,9.841,0,0,1,4.243,7.85,7.62,7.62,0,0,1,5.729,5.729,3.587,3.587,0,0,1,7.85,4.243a9.841,9.841,0,0,1,3.607-.637A58.55,58.55,0,0,1,19.1,3.395M19.1,0a62.691,62.691,0,0,0-7.85.212,13.1,13.1,0,0,0-4.668.849A8.306,8.306,0,0,0,3.183,3.183,8.306,8.306,0,0,0,1.061,6.577a9.667,9.667,0,0,0-.849,4.668A62.691,62.691,0,0,0,0,19.1a62.69,62.69,0,0,0,.212,7.85,13.1,13.1,0,0,0,.849,4.668,8.306,8.306,0,0,0,2.122,3.395A8.306,8.306,0,0,0,6.577,37.13a13.1,13.1,0,0,0,4.668.849,62.691,62.691,0,0,0,7.85.212,62.691,62.691,0,0,0,7.85-.212,13.1,13.1,0,0,0,4.668-.849,8.9,8.9,0,0,0,5.516-5.516,13.1,13.1,0,0,0,.849-4.668c0-2.122.212-2.758.212-7.85a62.691,62.691,0,0,0-.212-7.85,13.1,13.1,0,0,0-.849-4.668,8.306,8.306,0,0,0-2.122-3.395,8.306,8.306,0,0,0-3.395-2.122A13.1,13.1,0,0,0,26.946.212,62.69,62.69,0,0,0,19.1,0m0,9.336a9.6,9.6,0,0,0-9.76,9.76,9.76,9.76,0,1,0,9.76-9.76m0,16.125A6.252,6.252,0,0,1,12.73,19.1,6.252,6.252,0,0,1,19.1,12.73,6.252,6.252,0,0,1,25.46,19.1,6.252,6.252,0,0,1,19.1,25.46M29.28,6.577a2.334,2.334,0,1,0,2.334,2.334A2.355,2.355,0,0,0,29.28,6.577" fill="#eee5dd" fill-rule="evenodd"/>
</svg>
