<svg xmlns="http://www.w3.org/2000/svg" viewBox="0 0 35 36" width="35" height="36">
	<defs>
		<clipPath clipPathUnits="userSpaceOnUse" id="cp1">
			<path d="M-165 -447L249 -447L249 449L-165 449Z" />
		</clipPath>
	</defs>
	<style>
		tspan { white-space:pre }
		.shp0 { fill: #27705e } 
	</style>
	<g id="iPhone XR/XS Max/11 – 6" clip-path="url(#cp1)">
		<g id="Group 84">
			<path id="Path 322" fill-rule="evenodd" class="shp0" d="M24.23 1.07C26.14 1.07 27.28 1.45 28.42 1.83C29.57 2.21 30.52 2.78 31.47 3.73C32.42 4.69 33 5.64 33.38 6.78C33.76 7.92 34.14 9.07 34.14 10.97C34.33 12.69 34.33 13.45 34.33 18.02C34.33 22.59 34.14 23.16 34.14 25.07C34.14 26.97 33.76 28.11 33.38 29.26C33 30.4 32.42 31.35 31.47 32.31C30.52 33.26 29.57 33.83 28.42 34.21C27.28 34.59 26.14 34.97 24.23 34.97C22.52 35.16 21.76 35.16 17.19 35.16C12.61 35.16 11.85 35.16 10.14 34.97C8.23 34.97 7.09 34.59 5.95 34.21C4.8 33.83 3.85 33.26 2.9 32.31C1.95 31.35 1.38 30.4 0.99 29.26C0.61 28.11 0.23 26.97 0.23 25.07C0.04 23.35 0.04 22.59 0.04 18.02C0.04 13.45 0.04 12.69 0.23 10.97C0.23 9.07 0.42 7.92 0.99 6.78C1.38 5.64 1.95 4.69 2.9 3.73C3.85 2.78 4.8 2.21 5.95 1.83C7.09 1.45 8.23 1.07 10.14 1.07C11.85 0.88 12.61 0.88 17.19 0.88C21.76 0.88 22.52 0.88 24.23 1.07ZM10.33 4.11C8.61 4.11 7.66 4.5 7.09 4.69C6.33 4.88 5.76 5.26 5.19 6.02C4.61 6.59 4.23 7.16 3.85 7.92C3.66 8.5 3.28 9.45 3.28 11.16C3.09 12.88 3.09 13.45 3.09 18.02C3.09 22.59 3.28 23.16 3.28 24.88C3.28 26.59 3.66 27.54 3.85 28.11C4.23 28.88 4.61 29.45 5.19 30.02C5.76 30.59 6.33 30.97 7.09 31.35C7.66 31.54 8.61 31.92 10.33 31.92C12.04 32.12 12.61 32.12 17.19 32.12C21.76 32.12 22.33 31.92 24.04 31.92C25.76 31.92 26.71 31.54 27.28 31.35C28.04 30.97 28.61 30.59 29.19 30.02C29.76 29.45 30.14 28.88 30.52 28.11C30.71 27.54 31.09 26.59 31.09 24.88C31.28 23.16 31.28 22.59 31.28 18.02C31.28 13.45 31.09 12.88 31.09 11.16C31.09 9.45 30.71 8.5 30.52 7.92C30.14 7.16 29.76 6.59 29.19 6.02C28.61 5.45 28.04 5.07 27.28 4.69C26.71 4.5 25.76 4.11 24.04 4.11C22.33 3.92 21.76 3.92 17.19 3.92C12.61 3.92 12.04 3.92 10.33 4.11ZM25.95 18.02C25.95 22.78 22.14 26.78 17.19 26.78C12.42 26.78 8.42 22.97 8.42 18.02C8.42 13.07 12.23 9.26 17.19 9.26C22.14 9.26 25.95 13.26 25.95 18.02ZM22.9 18.02C22.9 14.78 20.42 12.31 17.19 12.31C13.95 12.31 11.47 14.78 11.47 18.02C11.47 21.26 13.95 23.73 17.19 23.73C20.42 23.73 22.9 21.26 22.9 18.02ZM28.42 8.88C28.42 10.02 27.47 10.97 26.33 10.97C25.19 10.97 24.23 10.02 24.23 8.88C24.23 7.73 25.19 6.78 26.33 6.78C27.47 6.78 28.42 7.73 28.42 8.88Z" />
		</g>
	</g>
</svg>