<svg xmlns="http://www.w3.org/2000/svg" width="214.278" height="148.638" viewBox="0 0 214.278 148.638">
  <g id="Group_121" data-name="Group 121" transform="translate(-1575.232 77.871)">
    <path id="Path_324" data-name="Path 324" d="M358.148,287.452c2.221.673,4.423,1.418,6.666,2.006a36.674,36.674,0,0,0,31.469-5.554A33.438,33.438,0,0,0,407.2,270.8c.835-1.726.956-3.809,1.338-5.741,2.36-11.932,2.889-23.8-.793-35.627a60.028,60.028,0,0,0-8.906-18.011c-5.509-7.457-13.225-11.323-22.277-12.631-2.409-.349-4.877-.294-7.29-.627-1.214-.459-4.412-.135-4.412-.135a20.241,20.241,0,0,1-2.816.165c-7.87-.607-14.29,2.428-19.724,7.864q-5.524,5.525-10.89,11.206a25.7,25.7,0,0,0-6.61,13.695c-.113.655-.3,1.3-.5,2.163-.457,1.453.1,4.691.1,4.691,2.186,10.473,4.273,21.007,10.465,30.039,1.847,2.694,4.374,4.92,6.6,7.354C344.7,280.6,358.148,287.452,358.148,287.452Z" transform="translate(1513.869 -415.82) rotate(40)" fill="#fc3"/>
    <path id="Path_325" data-name="Path 325" d="M365.489,306.776c2.7.818,5.378,1.724,8.1,2.439a44.59,44.59,0,0,0,38.261-6.753,40.655,40.655,0,0,0,13.271-15.935c1.015-2.1,1.162-4.631,1.627-6.98,2.869-14.507,3.512-28.942-.964-43.316a72.983,72.983,0,0,0-10.828-21.9c-6.7-9.066-16.079-13.767-27.085-15.357-2.929-.424-5.93-.357-8.863-.762-1.476-.558-5.364-.164-5.364-.164a24.608,24.608,0,0,1-3.424.2c-9.569-.738-17.374,2.952-23.981,9.561q-6.717,6.717-13.24,13.625a31.252,31.252,0,0,0-8.037,16.651c-.137.8-.365,1.578-.613,2.63-.556,1.767.119,5.7.119,5.7,2.658,12.733,5.2,25.541,12.724,36.522,2.246,3.275,5.318,5.982,8.021,8.941C349.136,298.447,365.489,306.776,365.489,306.776Z" transform="matrix(0.438, -0.899, 0.899, 0.438, 1322.025, 220.975)" fill="#bcccca"/>
  </g>
</svg>
