<svg xmlns="http://www.w3.org/2000/svg" width="51" height="63" viewBox="0 0 51 63">
  <g id="Group_69" data-name="Group 69" transform="translate(-141 -1050)">
    <path id="Rectangle_1101" data-name="Rectangle 1101" d="M0,0H19.5A31.5,31.5,0,0,1,51,31.5v0A31.5,31.5,0,0,1,19.5,63H0a0,0,0,0,1,0,0V0A0,0,0,0,1,0,0Z" transform="translate(141 1050)" fill="#eee5dd"/>
    <path id="Polygon_4" data-name="Polygon 4" d="M13.586,1.414a2,2,0,0,1,2.828,0L26.586,11.586A2,2,0,0,1,25.172,15H4.828a2,2,0,0,1-1.414-3.414Z" transform="translate(151.5 1096.5) rotate(-90)" fill="#1d2734"/>
  </g>
</svg>
