<svg xmlns="http://www.w3.org/2000/svg" width="281.995" height="146.809" viewBox="0 0 281.995 146.809">
  <g id="Group_71" data-name="Group 71" transform="translate(-252.177 -129.044)">
    <path id="Path_262" data-name="Path 262" d="M302.1,245.2h0a2.389,2.389,0,0,0-.9-.848c-.18-25.714-1.384-51.6-3.579-76.941-.632-7.27-2.551-25.33-3.175-31.084a2.172,2.172,0,0,0-1.06-1.644,2.121,2.121,0,0,0-1.891-.144l-.028.016a2.087,2.087,0,0,0-1.256,2.135c2.7,24.79,5.759,61.8,6.49,88.614.176,6.382.288,13.073.336,19.895a4.664,4.664,0,0,0-1.456,1.9,2.088,2.088,0,0,0,.3,2.291,5.335,5.335,0,0,0,.912.808,4.357,4.357,0,0,0,1.74.808,3.546,3.546,0,0,0,.672.068,3.055,3.055,0,0,0,2.367-1.088,4.524,4.524,0,0,0,1.04-3.175,3.127,3.127,0,0,0-.512-1.616" transform="translate(114.015 16.016)" fill="#aac0bc"/>
    <path id="Path_263" data-name="Path 263" d="M306.184,166.1q-.174-6.46-.764-8.226c-.172-.484-.724-.708-1.656-.676a5.635,5.635,0,0,0-2.515.664l-.02.012a2.526,2.526,0,0,0-1.24,2.567l.368,2.615a90.308,90.308,0,0,1,.508,17.292.7.7,0,0,0,.152.536c1.008,1.288,2.711,2.151,5.247,2.671a.7.7,0,0,0,.836-.72c-.144-3.047-.816-13.017-.916-16.736" transform="translate(143.314 84.419)" fill="#f5855f"/>
    <path id="Path_264" data-name="Path 264" d="M301.888,168.959a10.957,10.957,0,0,0,2.092,5.85,9.564,9.564,0,0,0,1.46,1.472,6.335,6.335,0,0,0,3.847,1.788c2.108.012,3.959-.044,5.583-.184.664-.084,1.32-2.5.148-2.747a18.233,18.233,0,0,1-6.534-1.484,3.317,3.317,0,0,1-1.472-1.048,6.83,6.83,0,0,0,3.867-.176,8.938,8.938,0,0,0,3.639-2.155,5.5,5.5,0,0,0,1.736-3.447,7.229,7.229,0,0,0-.62-3.775,6.616,6.616,0,0,0-2.547-2.927,7.721,7.721,0,0,0-3.995-1.332,7.005,7.005,0,0,0-3.835,1.364c-2.431,1.556-3.323,4.487-3.367,8.8m4.783-3.283a2.767,2.767,0,0,1,.664-.8,2.384,2.384,0,0,1,1.528-.468,2.254,2.254,0,0,1,1.668.772,1.769,1.769,0,0,1,.408,1.08q0,1.044-1.46,2l-.032.016a1.978,1.978,0,0,1-2.775-2.6" transform="translate(149.082 89.22)" fill="#f5855f"/>
    <path id="Path_265" data-name="Path 265" d="M309.213,166.942a1.081,1.081,0,0,0,1.068-.688,5.214,5.214,0,0,0,.348-1.7,7.243,7.243,0,0,0-.872-3.727,6.6,6.6,0,0,0-2.739-2.747,7.82,7.82,0,0,0-4.143-.88,6.535,6.535,0,0,0-3.667,1.432c-2.319,1.712-3.015,4.695-2.771,9.006.016.236.048.472.084.708.6,5.291,1.108,12.729,1.192,14.812a1.042,1.042,0,0,0,.508.876c1.58.924,3.275-.316,4.063-1.036a1.083,1.083,0,0,0,.336-.944c-.156-1.144-.128-3.627-.152-4.771l-.012-.156v-.012a1.091,1.091,0,0,1,1.144-1.084,24.7,24.7,0,0,0,3.507-.08,1.069,1.069,0,0,0,.94-.816,7.233,7.233,0,0,0-.34-3.635,1.088,1.088,0,0,0-1.108-.7,41.054,41.054,0,0,1-4.443.248,1.079,1.079,0,0,1-.988-.8,12.935,12.935,0,0,1-.18-6.206,1.874,1.874,0,0,1,.612-.836,2.371,2.371,0,0,1,1.5-.572,2.226,2.226,0,0,1,1.644.6,1.018,1.018,0,0,1,.128.136,1.718,1.718,0,0,1,.412.916c-.232,1.36,2.467,2.563,3.935,2.659" transform="translate(132.595 84.395)" fill="#f5855f"/>
    <path id="Path_266" data-name="Path 266" d="M312.76,164.8a.959.959,0,0,0-1.108-.808,57.671,57.671,0,0,0-8.63,2.147.922.922,0,0,0-.58,1.2.855.855,0,0,0,.812.616.9.9,0,0,0,.3-.052,56.977,56.977,0,0,1,8.514-2.119.823.823,0,0,0,.692-.98" transform="translate(150.592 104.752)" fill="#27705e"/>
    <path id="Path_267" data-name="Path 267" d="M320.2,167.5a24.117,24.117,0,0,0,.3-3.1,8.543,8.543,0,0,0-.22-2.251,5.241,5.241,0,0,0-2.439-2.835.8.8,0,0,0-1.172.448,3.083,3.083,0,0,1-1.74,1.976.81.81,0,0,0-.408.96c.272.876.64,2.063.776,2.523a.762.762,0,0,1,.02.38,4.091,4.091,0,0,1-.5,1.352,2.616,2.616,0,0,1-.592.692.739.739,0,0,1-.148.1,2.212,2.212,0,0,1-3.059-1.18c-.08-.224-.156-.456-.22-.7l-.02-.068a5.346,5.346,0,0,1-.108-.876h-.008a9.189,9.189,0,0,1,.656-2.415.809.809,0,0,0-.288-.944c-.988-.688-.892-1.056-1.288-2.123a.807.807,0,0,0-1.088-.452,5.869,5.869,0,0,0-2.759,2.783,7.943,7.943,0,0,0-.272,2.159,18.35,18.35,0,0,0,.008,2.116,8.449,8.449,0,0,0,2.779,5.463,5.039,5.039,0,0,0,1.264.832,10.133,10.133,0,0,0,4.939.564c.512,1.948,1.2,4.919.684,6.674a1.855,1.855,0,0,1-.644.808,2.386,2.386,0,0,1-1.52.508,2.209,2.209,0,0,1-1.616-.668,1.01,1.01,0,0,1-.124-.136,1.732,1.732,0,0,1-.372-.936c.288-1.348-2.355-2.667-3.819-2.823a1.082,1.082,0,0,0-1.1.644,5.234,5.234,0,0,0-.42,1.684,7.251,7.251,0,0,0,.712,3.759,6.633,6.633,0,0,0,2.619,2.863,7.185,7.185,0,0,0,3.923,1,7.086,7.086,0,0,0,3.907-1.228c2.387-1.612,3.211-4.563,3.147-8.878a7,7,0,0,0-.052-.712c-.1-1.392.328-6.414.256-7.966" transform="translate(160.233 89.571)" fill="#f5855f"/>
    <path id="Path_268" data-name="Path 268" d="M319.542,166.1q-.168-6.46-.764-8.226c-.172-.484-.724-.708-1.652-.676a5.608,5.608,0,0,0-2.515.664l-.024.012a2.523,2.523,0,0,0-1.236,2.567l.364,2.615a90.729,90.729,0,0,1,.512,17.292.7.7,0,0,0,.148.536c1.012,1.288,2.711,2.151,5.251,2.671a.7.7,0,0,0,.832-.72c-.144-3.047-.816-13.017-.916-16.736" transform="translate(183.384 84.419)" fill="#f5855f"/>
    <path id="Path_269" data-name="Path 269" d="M315.249,168.959a10.965,10.965,0,0,0,2.088,5.85,9.577,9.577,0,0,0,1.46,1.472,6.335,6.335,0,0,0,3.847,1.788c2.108.012,3.959-.044,5.587-.184.66-.084,1.316-2.5.148-2.747a18.236,18.236,0,0,1-6.538-1.484,3.34,3.34,0,0,1-1.472-1.048,6.83,6.83,0,0,0,3.867-.176,8.938,8.938,0,0,0,3.639-2.155,5.528,5.528,0,0,0,1.74-3.447,7.27,7.27,0,0,0-.62-3.775,6.624,6.624,0,0,0-2.551-2.927,7.72,7.72,0,0,0-3.991-1.332,7.007,7.007,0,0,0-3.839,1.364c-2.427,1.556-3.319,4.487-3.363,8.8m4.779-3.283a2.831,2.831,0,0,1,.664-.8,2.4,2.4,0,0,1,1.532-.468,2.253,2.253,0,0,1,1.664.772,1.751,1.751,0,0,1,.412,1.08c0,.7-.488,1.36-1.464,2l-.028.016a1.98,1.98,0,0,1-2.779-2.6" transform="translate(189.151 89.22)" fill="#f5855f"/>
    <path id="Path_270" data-name="Path 270" d="M322.57,166.942a1.077,1.077,0,0,0,1.068-.688,5.114,5.114,0,0,0,.348-1.7,7.242,7.242,0,0,0-.868-3.727,6.619,6.619,0,0,0-2.739-2.747,7.842,7.842,0,0,0-4.147-.88,6.523,6.523,0,0,0-3.663,1.432c-2.323,1.712-3.015,4.695-2.771,9.006a6.086,6.086,0,0,0,.084.708c.6,5.291,1.1,12.729,1.188,14.812a1.052,1.052,0,0,0,.508.876c1.58.924,3.275-.316,4.063-1.036a1.074,1.074,0,0,0,.34-.944c-.156-1.144-.128-3.627-.156-4.771l-.012-.156v-.012a1.092,1.092,0,0,1,1.148-1.084,24.659,24.659,0,0,0,3.5-.08,1.078,1.078,0,0,0,.944-.816,7.325,7.325,0,0,0-.34-3.635,1.09,1.09,0,0,0-1.112-.7,41,41,0,0,1-4.443.248,1.083,1.083,0,0,1-.988-.8,12.892,12.892,0,0,1-.176-6.206,1.866,1.866,0,0,1,.608-.836,2.37,2.37,0,0,1,1.5-.572,2.215,2.215,0,0,1,1.644.6,1.065,1.065,0,0,1,.132.136,1.711,1.711,0,0,1,.408.916c-.228,1.36,2.467,2.563,3.935,2.659" transform="translate(172.665 84.395)" fill="#f5855f"/>
    <path id="Path_271" data-name="Path 271" d="M326.118,164.8a.957.957,0,0,0-1.108-.808,57.626,57.626,0,0,0-8.626,2.147.919.919,0,0,0-.58,1.2.852.852,0,0,0,.812.616.872.872,0,0,0,.3-.052,57.222,57.222,0,0,1,8.514-2.119.821.821,0,0,0,.692-.98" transform="translate(190.66 104.752)" fill="#27705e"/>
    <path id="Path_272" data-name="Path 272" d="M333.561,167.5a23.487,23.487,0,0,0,.308-3.1,8.533,8.533,0,0,0-.224-2.251,5.233,5.233,0,0,0-2.435-2.835.808.808,0,0,0-1.176.448,3.083,3.083,0,0,1-1.74,1.976.814.814,0,0,0-.408.96c.276.876.64,2.063.776,2.523a.763.763,0,0,1,.024.38,4.007,4.007,0,0,1-.508,1.352,2.675,2.675,0,0,1-.588.692.906.906,0,0,1-.152.1,2.209,2.209,0,0,1-3.055-1.18c-.084-.224-.156-.456-.224-.7l-.016-.068a4.941,4.941,0,0,1-.112-.876h-.008a9.191,9.191,0,0,1,.656-2.415.807.807,0,0,0-.284-.944c-.992-.688-.892-1.056-1.288-2.123a.809.809,0,0,0-1.088-.452,5.868,5.868,0,0,0-2.759,2.783,7.786,7.786,0,0,0-.272,2.159,18.074,18.074,0,0,0,0,2.116,7.126,7.126,0,0,0,.184,1.084,7.631,7.631,0,0,0,2.6,4.379,4.966,4.966,0,0,0,1.264.832,10.129,10.129,0,0,0,4.939.564c.508,1.948,1.2,4.919.68,6.674a1.827,1.827,0,0,1-.644.808,2.374,2.374,0,0,1-1.516.508,2.2,2.2,0,0,1-1.616-.668,1.033,1.033,0,0,1-.128-.136,1.724,1.724,0,0,1-.368-.936c.284-1.348-2.359-2.667-3.823-2.823a1.077,1.077,0,0,0-1.092.644,5.134,5.134,0,0,0-.42,1.684,7.211,7.211,0,0,0,.712,3.759,6.585,6.585,0,0,0,2.619,2.863,7.162,7.162,0,0,0,3.919,1,7.076,7.076,0,0,0,3.907-1.228c2.391-1.612,3.211-4.563,3.151-8.878a7.034,7.034,0,0,0-.056-.712c-.1-1.392.328-6.414.256-7.966" transform="translate(200.3 89.571)" fill="#f5855f"/>
    <path id="Path_273" data-name="Path 273" d="M502.745,197.452c-.124-15.44-2.327-28.381-16.12-33.228-5.047-1.776-4.911,6.61-9.985,7.6-10.389,2.027-10.809-7.3-15.46-7.478-4.871-.184-7.722,8.766-8.742,11.533-1.656,4.487-1.532,9.19-1.06,13.833a19.75,19.75,0,0,0,6.186,12.345,32,32,0,0,0,13,7.734,24.545,24.545,0,0,0,13.836.668,11.989,11.989,0,0,1-5.275,3.727c-4.731,1.948-23.818,9.274-34.219,2.363-5.759-3.827-.148-35.943-.524-51.343s-1.264-25.214-2.671-29.433q-.918-2.6-5.907-2.427a20.056,20.056,0,0,0-9,2.359,10.71,10.71,0,0,0-3.8,3.263,6.512,6.512,0,0,0-.912,4.6l1.48,10.7c3.559,25.646,11.745,43.073,2.255,43.137-2.44-.032-3.811-23.97-8.906-35.247q-.708-2.747-5.711-2.607a19.752,19.752,0,0,0-9.09,2.391A12,12,0,0,0,399,164.337a6.845,6.845,0,0,0-1.516,5.807c1.08,6.015-.232,30.029-2.967,38.474a6.961,6.961,0,0,1-6.678,4.675h-3.043a38.56,38.56,0,0,1-4.923-.42q9.706-9.958,10.054-22.746a27.455,27.455,0,0,0-.916-7.33c-1.552-6.038-7.194-13.2-11.545-16.544s-3.123,5.955-12.629,5.955c-8.014,0-7-8.362-11.277-5.7-4.643,2.887-9.969,10.253-11.521,16.292a25.866,25.866,0,0,0-.7,7.33q.144,12.789,9.789,22.746a35.056,35.056,0,0,1-6.1.42s-4.647.788-6.706-1.672-2.979-6.294-2.743-11.5v-.56q.846-11.259.28-34.355t-2.671-29.433q-.918-2.6-5.907-2.427a20.055,20.055,0,0,0-9,2.359,10.76,10.76,0,0,0-3.807,3.263,6.531,6.531,0,0,0-.908,4.6l1.48,10.7q5.339,38.468,4.219,47.892c-.984,9.5-6.5,14.109-8.186,12.7q-2.627-2.208-4.323-7.482,0-.138.528-2.351a70.449,70.449,0,0,0,.74-10.713,80.454,80.454,0,0,0-3.759-26.821c-.564-1.64-10.981-3.1-13.889-1.876-5.691,2.4-2.455,18.559-14.444,19.767-6.906.7-11.973-10.961-17.36-9.378-10.841,3.191-4.919,29.4-3.443,35.5a25.98,25.98,0,0,0,9.39,14.772,26.665,26.665,0,0,0,7.562,4.187,25.044,25.044,0,0,0,8.578,1.512,23.861,23.861,0,0,0,9.4-2.155c1.624-.7,5.475-9.31,7.29-8.8,5.575,1.568,12.125,4.367,16.208,2.679,2.043-.844,11.045-7.042,13.009-6.143,15.352,7.038,16.632,7.038,41.158-1.008,4.731-1.556,11.3,14.017,19.763,12.073,0,0,10.733-1.04,15.676-26.2.944-4.8,18.184-6.518,18.515,2.979.64,18.3,40.274,31.676,73.562,12.949,1.336-.752,7.594-10.817,7.518-20.9M291.526,207.942q-1.77,5.687-4.519,7.306a11.51,11.51,0,0,1-8.622.808,11.732,11.732,0,0,1-6.526-4.707,7.7,7.7,0,0,1-1.136-6.99,15.857,15.857,0,0,1,4.231-6.534,25.345,25.345,0,0,1,7.578-4.915l.084-.04a6.931,6.931,0,0,1,9.706,5.875,27.181,27.181,0,0,1-.8,9.2m81.8-13.777q-.7,3.023-.84,3.447l-.12.308c-2.283,5.855-10.885,5.831-13.237,0a28.38,28.38,0,0,1-.972-2.867,8.4,8.4,0,0,1-.292-1.808,16.436,16.436,0,0,1,1.775-9.1q2.2-3.833,5.987-3.831t5.987,3.831q2.2,3.833,1.711,10.022m112.512-8.194c3.267,6.282-4.287,12.773-10.229,8.914q-5.219-3.413-5.215-7.138a6.24,6.24,0,0,1,1.48-3.867,7.989,7.989,0,0,1,5.959-2.743,8.482,8.482,0,0,1,5.467,1.688,10.122,10.122,0,0,1,2.539,3.147" transform="translate(0 12.875)" fill="#27705e"/>
    <path id="Path_274" data-name="Path 274" d="M269.063,168.35a204.845,204.845,0,0,1,30.672-7.57c2.44-.4,1.4-4.115-1.024-3.711a204.97,204.97,0,0,0-30.672,7.57c-2.339.772-1.336,4.491,1.024,3.711" transform="translate(43.582 83.954)" fill="#7fab95"/>
    <path id="Path_275" data-name="Path 275" d="M276.529,129.163a1.624,1.624,0,0,0-2.139.912,5.825,5.825,0,0,0-5.874,3.027,6.623,6.623,0,0,0,3.807,9.05c3.427,1.088,7.614-.676,8.758-4.207a7.146,7.146,0,0,0-4.551-8.782m-2.3,9.47a2.753,2.753,0,0,1-2.5-3.123,2.039,2.039,0,0,1,3.327-1.188,1.844,1.844,0,0,0,2.255.256,3,3,0,0,1-3.083,4.055" transform="translate(47.029 0)" fill="#7fab95"/>
    <path id="Path_276" data-name="Path 276" d="M307.228,133.666a6.306,6.306,0,0,0-8.454-4.059,6.664,6.664,0,0,0-3.671,8.182,6.737,6.737,0,0,0,8.282,3.907,1.878,1.878,0,0,0,1.324-1.983,5.613,5.613,0,0,0,2.519-6.047m-7.75.032a2.379,2.379,0,0,1,3.487.024,1.766,1.766,0,0,1-1.5,3,1.615,1.615,0,0,0-1.664.94,2.43,2.43,0,0,1-.324-3.967" transform="translate(127.639 0.228)" fill="#7fab95"/>
    <path id="Path_277" data-name="Path 277" d="M318.816,139.775a44.625,44.625,0,0,1,4.083,2.731,1.8,1.8,0,0,1,.808,1.764,6.579,6.579,0,0,1-.88,2.687,18.212,18.212,0,0,1-6.7,7.07,3.014,3.014,0,0,1-3.923-.688c-.44-.548-.868-1.1-1.264-1.692A28.315,28.315,0,0,0,307,147.693a6.713,6.713,0,0,1-1.836-2.411c-.268-.732,2.227-10.413,13.649-5.507" transform="translate(158.86 28.039)" fill="#f5855f"/>
    <path id="Path_278" data-name="Path 278" d="M258.6,142.654l.036-.04a5.232,5.232,0,0,1,4.579-1.384c.98.12,1.959.216,2.931.42a4.927,4.927,0,0,1,4.167,5.015,12.741,12.741,0,0,1-1.264,5.243,18.511,18.511,0,0,1-3.467,5.259,7.963,7.963,0,0,1-2.251,1.656c-1.724.872-3.623.112-4.847-1.824a14.226,14.226,0,0,1-2.088-8.126,9.808,9.808,0,0,1,1.352-5.1,13.533,13.533,0,0,1,.852-1.12" transform="translate(12.646 36.365)" fill="#f5855f"/>
    <path id="Path_279" data-name="Path 279" d="M294.754,152.75a11.428,11.428,0,0,1,2.911-1.464c1.668-.56,2.879.312,3.907,1.484a19.462,19.462,0,0,1,2.759,4.583c.652,1.364,1.4,2.7,1.92,4.111.932,2.523-.1,4.571-2.675,5.587a11.846,11.846,0,0,1-11.581-2.2,6.326,6.326,0,0,1-1.356-7.322,12.1,12.1,0,0,1,4.115-4.779" transform="translate(113.403 66.183)" fill="#f5855f"/>
    <path id="Path_280" data-name="Path 280" d="M300.982,170.919a.422.422,0,0,1-.1.008,14,14,0,0,1-8.918-3.519c-1.548-1.424-2.567-3.159-2-5.459a6.324,6.324,0,0,1,2.687-3.5,14.5,14.5,0,0,1,7.134-2.547,11.284,11.284,0,0,1,4.191.14c1.636.416,2.335,1.54,2.239,3.311-.084,1.476.024,2.967.048,4.451.02,1.192.132,2.4.04,3.579a3.025,3.025,0,0,1-2.135,2.839c-1.04.328-2.127.472-3.191.7" transform="translate(112.854 80.166)" fill="#f5855f"/>
    <path id="Path_281" data-name="Path 281" d="M294.849,144.6a10.627,10.627,0,0,1-2.643,7.438,6.908,6.908,0,0,1-6.854,2.063,10.013,10.013,0,0,1-4-2.015,12.648,12.648,0,0,1-2.116-1.971,4.324,4.324,0,0,1-.468-4.791c1.36-3,3.919-5.275,7.926-6.51,3.135-.968,5.763-.136,7.118,2.175a7.008,7.008,0,0,1,1.04,3.611" transform="translate(78.213 28.111)" fill="#f5855f"/>
    <path id="Path_282" data-name="Path 282" d="M271.688,147.088l0,.052c.1,4.123-2.151,6.526-5.443,6.074a10.976,10.976,0,0,1-4.171-1.24,38.979,38.979,0,0,1-5.143-3.995c-1.272-1.092-1.424-2.671-.916-4.351a9.681,9.681,0,0,1,3.163-4.543,8.807,8.807,0,0,1,5.915-2.463c2.835.024,5,2.267,5.915,6.2.324,1.388.456,2.839.676,4.263" transform="translate(10.712 22.726)" fill="#f5855f"/>
    <path id="Path_283" data-name="Path 283" d="M314.593,142.218a15.282,15.282,0,0,1,7.17,6.538,1.47,1.47,0,0,1-2.023,1.939,26.27,26.27,0,0,0-8.39-2.811,1.469,1.469,0,0,1-.712-2.579,6.814,6.814,0,0,0,1.955-2.371,1.494,1.494,0,0,1,2-.716" transform="translate(173.724 39.076)" fill="#2f816d"/>
    <path id="Path_284" data-name="Path 284" d="M299.435,134.682a12.414,12.414,0,0,1,6.9.3,1.081,1.081,0,0,1,.76.9,210.959,210.959,0,0,1,1.536,24.334,1.069,1.069,0,0,1-2.1.3c-1.72-5.923-4.715-14.188-8.978-18.739a4.287,4.287,0,0,1,1.876-7.09" transform="translate(132.528 15.844)" fill="#2f816d"/>
    <path id="Path_285" data-name="Path 285" d="M292.471,148.43c-2.483-2.535-3.051-5.779.336-6.846,6.73-2.115,7.174-1.38,11.577,17.42.188.8-.976,1.688-1.38.972-3.743-6.57-9.382-10.369-10.533-11.545" transform="translate(114.738 35.14)" fill="#2f816d"/>
    <path id="Path_286" data-name="Path 286" d="M284.062,143.8a7.333,7.333,0,0,1-1.724,1.4.48.48,0,0,0,.036.848A74.793,74.793,0,0,1,291.292,151a1.075,1.075,0,0,0,1.572-1.352,29.87,29.87,0,0,0-3.463-5.631,3.514,3.514,0,0,0-5.339-.216" transform="translate(89.74 40.89)" fill="#2f816d"/>
    <path id="Path_287" data-name="Path 287" d="M272.485,134.688a12.428,12.428,0,0,1,6.906.3,1.07,1.07,0,0,1,.756.9,210.008,210.008,0,0,1,1.536,24.334,1.067,1.067,0,0,1-2.092.3c-1.72-5.923-4.715-14.189-8.978-18.739a4.286,4.286,0,0,1,1.872-7.09" transform="translate(51.713 15.862)" fill="#2f816d"/>
    <path id="Path_288" data-name="Path 288" d="M264.093,142.209l4.707.312a.823.823,0,0,1,.724.564,54.176,54.176,0,0,1,2.455,11.969.818.818,0,0,1-1.544.428c-1.788-3.5-4.843-9.206-7.038-11.953a.816.816,0,0,1,.7-1.32" transform="translate(33.115 39.474)" fill="#2f816d"/>
  </g>
</svg>
