<svg id="Group_70" data-name="Group 70" xmlns="http://www.w3.org/2000/svg" width="51" height="63" viewBox="0 0 51 63">
  <path id="Rectangle_1101" data-name="Rectangle 1101" d="M31.5,0H51a0,0,0,0,1,0,0V63a0,0,0,0,1,0,0H31.5A31.5,31.5,0,0,1,0,31.5v0A31.5,31.5,0,0,1,31.5,0Z" fill="#eee5dd"/>
  <path id="Polygon_4" data-name="Polygon 4" d="M13.586,1.414a2,2,0,0,1,2.828,0L26.586,11.586A2,2,0,0,1,25.172,15H4.828a2,2,0,0,1-1.414-3.414Z" transform="translate(40.5 16.5) rotate(90)" fill="#1d2734"/>
</svg>
