<svg xmlns="http://www.w3.org/2000/svg" width="38.191" height="30.977" viewBox="0 0 38.191 30.977">
  <path id="Path_318" data-name="Path 318" d="M50.094,32.977c14.428,0,22.278-11.882,22.278-22.278V9.638a17.246,17.246,0,0,0,3.819-4.031A17.613,17.613,0,0,1,71.735,6.88,8.255,8.255,0,0,0,75.13,2.637a19.461,19.461,0,0,1-4.88,1.91A7.577,7.577,0,0,0,64.521,2a7.971,7.971,0,0,0-7.85,7.85,4.136,4.136,0,0,0,.212,1.7A21.936,21.936,0,0,1,40.758,3.273,8.125,8.125,0,0,0,39.7,7.3a8.43,8.43,0,0,0,3.395,6.577,7.153,7.153,0,0,1-3.607-1.061h0a7.754,7.754,0,0,0,6.365,7.638,6.541,6.541,0,0,1-2.122.212,3.611,3.611,0,0,1-1.485-.212,8.038,8.038,0,0,0,7.426,5.516,16.019,16.019,0,0,1-9.76,3.395A5.874,5.874,0,0,1,38,29.158a20.026,20.026,0,0,0,12.094,3.819" transform="translate(-38 -2)" fill="#eee5dd" fill-rule="evenodd"/>
</svg>
