<svg xmlns="http://www.w3.org/2000/svg" viewBox="0 0 35 29" width="35" height="29">
	<defs>
		<clipPath clipPathUnits="userSpaceOnUse" id="cp1">
			<path d="M-235 -455L179 -455L179 441L-235 441Z" />
		</clipPath>
	</defs>
	<style>
		tspan { white-space:pre }
		.shp0 { fill: #27705e } 
	</style>
	<g id="iPhone XR/XS Max/11 – 6" clip-path="url(#cp1)">
		<g id="Group 84">
			<path id="Path 321" class="shp0" d="M10.93 28.39C23.88 28.39 30.93 17.72 30.93 8.38C30.93 8 30.93 7.81 30.93 7.43C32.26 6.48 33.4 5.15 34.35 3.81C33.02 4.38 31.69 4.77 30.35 4.96C31.88 4 32.83 2.67 33.4 1.15C32.07 1.91 30.55 2.48 29.02 2.86C27.69 1.34 25.78 0.58 23.88 0.58C20.07 0.58 16.83 3.81 16.83 7.62C16.83 8.19 16.83 8.77 17.02 9.15C11.12 8.77 5.97 6.1 2.54 1.72C1.97 2.67 1.59 4 1.59 5.34C1.59 7.81 2.93 9.91 4.64 11.24C3.5 11.24 2.35 10.86 1.4 10.29L1.4 10.29C1.4 13.72 3.88 16.58 7.12 17.15C6.54 17.34 5.97 17.34 5.21 17.34C4.83 17.34 4.26 17.34 3.88 17.15C4.83 20 7.31 21.91 10.54 22.1C8.07 24 5.02 25.15 1.78 25.15C1.21 25.15 0.64 25.15 0.07 24.96C3.12 27.24 6.93 28.39 10.93 28.39Z" />
		</g>
	</g>
</svg>