<?xml version="1.0" standalone="no"?>
<!DOCTYPE svg PUBLIC "-//W3C//DTD SVG 1.1//EN" "http://www.w3.org/Graphics/SVG/1.1/DTD/svg11.dtd" >
<svg xmlns="http://www.w3.org/2000/svg" xmlns:xlink="http://www.w3.org/1999/xlink" version="1.1">
<metadata>
Created by FontForge 20170731 at Fri Feb  1 10:05:59 2019
 By Aleksey,,,
Chendolle (c) Rometheme 2019
</metadata>
<defs>
<font id="ChendolleRegular" horiz-adv-x="0" >
  <font-face 
    font-family="Chendolle"
    font-weight="400"
    font-stretch="normal"
    units-per-em="1000"
    panose-1="0 0 0 0 0 0 0 0 0 0"
    ascent="800"
    descent="-200"
    x-height="503"
    cap-height="631"
    bbox="7.2449 -171.345 796 844.805"
    underline-thickness="50"
    underline-position="-200"
    unicode-range="U+000A-00AD"
  />
<missing-glyph horiz-adv-x="527" 
d="M50 700h427v-700h-427v700zM78 680l185 -309l186 309h-371zM251 350l-180 300v-601zM264 329l-185 -308h370zM276 350l181 -303v605z" />
    <glyph glyph-name=".notdef" horiz-adv-x="527" 
d="M50 700h427v-700h-427v700zM78 680l185 -309l186 309h-371zM251 350l-180 300v-601zM264 329l-185 -308h370zM276 350l181 -303v605z" />
    <glyph glyph-name=".null" 
 />
    <glyph glyph-name=".null" 
 />
    <glyph glyph-name="nonmarkingreturn" horiz-adv-x="333" 
 />
    <glyph glyph-name="controlLF" unicode="&#xa;" 
 />
    <glyph glyph-name="controlCR" unicode="&#xd;" 
 />
    <glyph glyph-name="space" unicode=" " horiz-adv-x="299" 
 />
    <glyph glyph-name="exclam" unicode="!" horiz-adv-x="183" 
d="M116 196q-17 -4 -33 -0.5t-29 14t-20.5 25.5t-9.5 30q-7 61 -6 78q1 56 -7 122q-7 62 1 116q4 23 13 40q11 23 31 35q25 15 52.5 8t42.5 -32q11 -20 11 -48v-47q-3 -47 4 -92q3 -18 3 -50q-1 -70 4 -101q2 -14 1 -30q-1 -25 -17.5 -44t-40.5 -24zM47 139q27 31 67.5 22.5
t53.5 -47.5q5 -16 6 -38q1 -16 -5 -30.5t-16.5 -25t-24.5 -15.5q-22 -9 -44.5 -3t-38.5 25q-20 24 -19.5 56.5t21.5 55.5z" />
    <glyph glyph-name="quotedbl" unicode="&#x22;" horiz-adv-x="315" 
d="M126 799q29 -65 44 -114q10 -32 -9 -58q-25 -35 -66 -29q-44 7 -55 48q-4 19 -18 55q-13 32 -14 67q1 23 8 38q11 23 33.5 30.5t44.5 -4.5t32 -33zM305 683q0 -1 1 -11q0 -31 -26 -43t-48 7q-13 12 -24 33q-8 15 -21 33q-20 28 -29 55q-6 18 -4 33q4 31 31.5 43.5
t53.5 -3.5q15 -9 26 -28q15 -24 22 -52q5 -15 18 -67z" />
    <glyph glyph-name="quotedbl" unicode="&#x201d;" horiz-adv-x="315" 
d="M126 799q29 -65 44 -114q10 -32 -9 -58q-25 -35 -66 -29q-44 7 -55 48q-4 19 -18 55q-13 32 -14 67q1 23 8 38q11 23 33.5 30.5t44.5 -4.5t32 -33zM305 683q0 -1 1 -11q0 -31 -26 -43t-48 7q-13 12 -24 33q-8 15 -21 33q-20 28 -29 55q-6 18 -4 33q4 31 31.5 43.5
t53.5 -3.5q15 -9 26 -28q15 -24 22 -52q5 -15 18 -67z" />
    <glyph glyph-name="quotedbl" unicode="&#x201c;" horiz-adv-x="315" 
d="M126 799q29 -65 44 -114q10 -32 -9 -58q-25 -35 -66 -29q-44 7 -55 48q-4 19 -18 55q-13 32 -14 67q1 23 8 38q11 23 33.5 30.5t44.5 -4.5t32 -33zM305 683q0 -1 1 -11q0 -31 -26 -43t-48 7q-13 12 -24 33q-8 15 -21 33q-20 28 -29 55q-6 18 -4 33q4 31 31.5 43.5
t53.5 -3.5q15 -9 26 -28q15 -24 22 -52q5 -15 18 -67z" />
    <glyph glyph-name="numbersign" unicode="#" horiz-adv-x="536" 
d="M237 141q1 1 5 14q-20 4 -24.5 2t-11.5 -19q-13 -28 -18 -38q-5 -12 -12 -21q-20 -28 -51 -22q-30 6 -39 40q-5 17 0 42q3 20 9 37q3 8 -5 11q-3 0 -41 11q-15 5 -24 11q-17 13 -17 32t17 31q16 11 40 12q10 0 47 -4q11 -1 15 -2q11 -2 14 7q1 1 6 13q-3 3 -15 4
q-27 3 -48 9q-16 4 -27 13q-21 16 -21 40.5t21 40.5q20 15 45 14q13 0 64 -2q5 0 12.5 -1t9 -0.5t4.5 0.5t4 3t2.5 4.5t4.5 8t5 11.5l4 8t4 9q10 19 28.5 25.5t36.5 -1.5q18 -7 26 -24.5t3 -36.5q-1 -1 -1.5 -3t-0.5 -3t-1 -3q-2 -2 -1.5 -5t4.5 -4q12 -4 16 7
q3 11 9.5 30.5t8.5 26.5q4 12 7 16q8 17 25 25t35 4q17 -4 29 -18t13 -32q1 -14 -5 -31q-8 -22 -15 -41q-3 -9 -1.5 -10.5t10.5 -3.5q1 0 17.5 -3t25.5 -5q36 -10 41 -46q4 -24 -11.5 -42t-40.5 -18q-2 0 -49 4q-4 0 -9.5 0.5t-7.5 0.5q-8 1 -11 -7q-4 -13 -3 -15.5t15 -5.5
q39 -8 46 -10q30 -8 37.5 -37.5t-13.5 -50.5q-23 -22 -56 -12q-21 6 -36 9q-8 1 -13 1q-7 2 -10.5 0.5t-4.5 -3.5t-4 -9q-17 -50 -35 -84q-9 -19 -20 -29q-23 -22 -48.5 -14.5t-33.5 38.5q-5 21 3 53q2 11 16 48zM259 273q0 -2 -1 -4t-2 -5t-2 -5q16 -5 19.5 -3.5t8.5 15.5
q3 6 3 8q1 4 -3 5q-17 5 -23 -11z" />
    <glyph glyph-name="dollar" unicode="$" horiz-adv-x="400" 
d="M64 29q-49 40 -55 105q0 29 15 47.5t39 22.5q22 3 41.5 -10t26.5 -36q5 -16 12.5 -22t24.5 -7q26 -1 53 9q15 6 25 22t8 31q-2 13 -18 26q-10 7 -22 10q-15 2 -42.5 9.5t-33.5 8.5q-88 21 -120 109q-24 65 8 130q18 38 57 58q16 8 25.5 12t7.5 14q-6 21 -4 40
q2 25 19 40.5t41 14.5q18 -1 32.5 -12t20.5 -29q5 -18 5 -37q0 -10 11 -13q4 -1 36 -14q43 -16 71 -57q3 -4 7 -10t8 -11.5t7 -10.5q16 -23 20 -46q5 -27 -9 -52q-11 -18 -30.5 -25t-39.5 0t-31 25t-7 39q4 16 -11 24q-20 11 -29 14q-33 11 -57 -5l-12 -6l-10 -5
q-10 -5 -13 -17t3 -22q13 -18 33 -22q64 -11 127 -48q45 -26 71 -75q22 -41 10 -99q-18 -89 -92 -131q-8 -4 -6 -13q2 -10 3.5 -17t2.5 -14q5 -38 -24 -60.5t-64 -8.5q-32 13 -39 51q-3 12 -3 23q-1 10 -11 11q-48 6 -88 39z" />
    <glyph glyph-name="percent" unicode="%" horiz-adv-x="470" 
d="M452 202q17 -47 3.5 -93t-51.5 -70q-5 -4 -8 -7q-34 -35 -84 -32q-38 -3 -68.5 19.5t-37.5 54.5q-3 11 -3 14q-1 54 6 74q7 23 13 43q9 33 41 49q51 25 105 17q61 -9 84 -69zM312 98q29 16 32 47q0 19 -16 21q-13 2 -36 -7q-4 -1 -8 -12t-2 -15q5 -10 16 -30q5 -8 14 -4z
M304 364q-16 -29 -79 -120q-43 -63 -70 -126q-6 -13 -11 -20q-11 -14 -28 -18.5t-33 4t-22.5 24.5t-0.5 34q2 5 4.5 10.5t5.5 11.5l5 10q31 69 75 129q44 61 83 133q12 22 28 46q32 47 50 76q4 7 16 23q7 9 17 14q18 10 33.5 0t14.5 -32q0 -7 -8 -29q-21 -61 -80 -170z
M134 406q-54 -6 -104 48q-19 21 -21 50q-3 39 6 67q8 24 24.5 39.5t35 20.5t37.5 3.5t34 -9.5q10 -5 17 -3q19 6 41 -8q28 -18 37 -46q22 -70 -18 -130q-23 -34 -65 -32h-20h-4zM99 543q-6 -19 8 -37t30 -14q14 0 17 2t8 15q0 2 4 16q3 12 -7 21q-12 10 -14 13q-7 9 -17 5
q-2 -1 -6.5 -2.5l-7.5 -2.5q-11 -5 -15 -16z" />
    <glyph glyph-name="ampersand" unicode="&#x26;" horiz-adv-x="455" 
d="M299 346q2 8 0 12q4 0 9 6q17 21 45.5 22t48.5 -17q22 -21 31 -52q15 -47 4 -105q-9 -47 -25 -76q-4 -7 2 -14q15 -17 23 -33q13 -26 8 -49q-6 -26 -27 -36t-45 3q-18 10 -36 26q-7 7 -15 1q-35 -26 -84 -29q-57 -3 -100 0q-16 2 -27 7q-91 40 -101 126q-5 42 2 94
q6 38 36 78q12 16 17 21q6 7 1 15q-14 21 -24 40q-31 58 -25 121q7 67 77 99q33 15 81 18q37 2 68 -23q61 -48 69 -128q4 -37 -4 -89q-2 -19 -9 -27q0 -3 -8 -13q-10 -13 -33 -33q-6 -5 -6 -6.5t5 -7.5q30 -34 66 -73q5 -6 8 -5q15 19 3 39q-6 10 -15 19q-31 30 -20 69z
M237 139q-14 14 -28.5 32t-30 38t-27.5 33q-16 -17 -18 -38v-34q1 -33 33 -34h63q5 0 8 3zM191 407q19 7 13 23q3 23 -14 45q-18 24 -42 16q-10 -4 -12.5 -7t-1.5 -14q3 -27 26 -61q8 -11 10.5 -11.5t12.5 5.5q6 4 8 4z" />
    <glyph glyph-name="quotesingle" unicode="'" horiz-adv-x="169" 
d="M160 487q0 -1 1 -11q-1 -31 -26 -43q-26 -11 -49 8q-13 11 -24 32q-8 16 -20 33q-20 29 -29 55q-7 18 -4 34q4 30 31 43t54 -3q14 -9 26 -28q14 -24 22 -52q4 -16 18 -68z" />
    <glyph glyph-name="quotesingle" unicode="&#x2019;" horiz-adv-x="169" 
d="M160 487q0 -1 1 -11q-1 -31 -26 -43q-26 -11 -49 8q-13 11 -24 32q-8 16 -20 33q-20 29 -29 55q-7 18 -4 34q4 30 31 43t54 -3q14 -9 26 -28q14 -24 22 -52q4 -16 18 -68z" />
    <glyph glyph-name="quotesingle" unicode="&#x2018;" horiz-adv-x="169" 
d="M160 487q0 -1 1 -11q-1 -31 -26 -43q-26 -11 -49 8q-13 11 -24 32q-8 16 -20 33q-20 29 -29 55q-7 18 -4 34q4 30 31 43t54 -3q14 -9 26 -28q14 -24 22 -52q4 -16 18 -68z" />
    <glyph glyph-name="parenleft" unicode="(" horiz-adv-x="312" 
d="M10 256q-2 16 -2 51q1 67 19 137q12 51 46 98q23 31 59 50q22 12 44 11q27 -2 40 -22.5t4 -46.5q-3 -10 -19 -31q-39 -51 -48 -97q-1 -6 -4 -70q0 -6 1 -42q0 -15 5 -29q28 -77 66 -115q14 -14 27 -20q16 -8 28 -17q19 -15 25 -36.5t-4 -42t-30.5 -29.5t-44.5 -2
q-18 4 -41 12q-32 11 -61 37q-41 38 -59 72q-20 37 -33 68t-18 64z" />
    <glyph glyph-name="parenright" unicode=")" horiz-adv-x="300" 
d="M283 328q7 -45 8 -82q1 -34 -9 -68q-13 -43 -14 -47q-25 -68 -71 -109q-11 -10 -22 -15q-21 -10 -43 -5.5t-37 22t-16 40t12 41.5q7 10 17 18q19 15 30 46q3 9 7.5 24.5t6.5 21.5q6 17 3 44q-4 57 -32 110q-36 66 -75 93q-18 12 -28 27q-23 37 -3 69q21 33 65 28
q14 -1 31 -9q28 -12 47 -31q67 -68 93 -134q26 -64 30 -84z" />
    <glyph glyph-name="asterisk" unicode="*" horiz-adv-x="366" 
d="M182 546q-7 10 -11 12q-22 -41 -25 -46q-8 -15 -14 -22q-13 -14 -31 -17.5t-34 5t-23.5 25t-3.5 35.5q4 17 18 37q2 2 18 24q-2 3 -12 6q-25 8 -38 20q-22 22 -17 50t34 40q20 8 48 5q1 0 9 -1t12 -1q9 -2 10 9q0 9 3 68q0 8 1 9q2 15 12.5 25t25.5 11q9 0 17.5 -4
t14 -11t8.5 -17q1 -4 2 -16q0 -5 1.5 -27t2.5 -34q1 -10 3 -11.5t12 -2.5q60 -3 76 -5q15 -2 23 -5q16 -6 24.5 -19t8.5 -28q0 -34 -33 -46q-5 -2 -42 -8q-2 -3 2 -9q10 -16 21 -29q9 -10 14 -18q10 -18 7 -37t-17 -33q-15 -14 -35 -15t-37 11q-14 9 -27 27q-5 8 -14.5 22.5
t-13.5 20.5z" />
    <glyph glyph-name="plus" unicode="+" horiz-adv-x="439" 
d="M387 273q-22 -10 -46 -8q-31 -1 -33.5 -5t1.5 -29l4 -51q0 -13 -3 -24q-5 -25 -24.5 -40.5t-44.5 -15.5t-44.5 16.5t-23.5 41.5q0 1 -13 74q0 1 -0.5 2.5t-0.5 3v2.5q-1 8 -9 7q-2 0 -20 -2q-37 -3 -62 2q-26 5 -43 23t-17 42.5t18 42.5q17 18 45 23q11 2 31 5t27 4
q8 2 9.5 3.5t0.5 10.5q-3 26 -2 46q1 26 13 46q16 26 45 30t52 -17q16 -15 24 -39q6 -18 12 -55q2 -8 3.5 -9.5t9.5 -0.5q6 0 26 0.5t30 2.5q27 3 48.5 -11.5t27.5 -39.5t-5 -47.5t-36 -33.5z" />
    <glyph glyph-name="comma" unicode="," horiz-adv-x="188" 
d="M173 55q4 -19 7 -54q0 -23 -12 -61q-14 -47 -42 -78q-15 -18 -29 -25q-19 -11 -40 -7.5t-35 20t-14 37.5t13 38q2 3 3 4q12 11 20 27.5t10.5 28t6.5 33.5q1 5 2 14.5t2 13.5q2 13 6 23q15 33 46 34q33 2 50 -31q4 -8 6 -17z" />
    <glyph glyph-name="hyphen" unicode="-" horiz-adv-x="307" 
d="M67 353h51q34 -2 61 -1q43 1 80 -9q22 -6 32.5 -23.5t4.5 -37.5q-7 -26 -34 -35q-18 -6 -41 -7q-21 -1 -38 -6q-16 -4 -29 -4q-7 0 -34.5 -1t-34.5 1q-21 2 -39 10q-21 9 -31 27t-6 39q4 19 20 32.5t38 14.5z" />
    <glyph glyph-name="period" unicode="." horiz-adv-x="157" 
d="M145 76q4 -14 3 -38q-3 -38 -6 -54q-7 -27 -28 -42.5t-47 -11.5q-29 3 -46 26.5t-12 52.5q3 13 9 24q13 25 25 47q4 8 9 14q22 25 52 19t41 -37z" />
    <glyph glyph-name="slash" unicode="/" horiz-adv-x="325" 
d="M37 5q-28 12 -29 45q0 19 7.5 39.5t20.5 46.5q34 64 65 124q13 26 34 58q34 55 83 143q9 16 15 26q11 16 26 21.5t31 -1.5t22.5 -22.5t1.5 -34.5q-6 -20 -19 -53q-56 -153 -147 -307q-15 -25 -38 -55q-9 -13 -16 -19q-28 -24 -57 -11z" />
    <glyph glyph-name="zero" unicode="0" horiz-adv-x="553" 
d="M192 544q12 2 32.5 2t26.5 1q61 4 125 -14q76 -22 131 -103q44 -64 36 -152q-6 -64 -34 -117q-18 -36 -63 -71q-26 -21 -61 -39q-39 -21 -83 -21h-21h-20q-55 -1 -115 28q-35 17 -60 50q-33 42 -58 93q-25 50 -18 124q5 54 33 113q42 88 149 106zM210 174q29 -8 60 -6h25
q16 0 30 8q27 16 51 33q22 16 29 44q10 37 9 73q0 8 -2 12q-31 65 -86 82q-12 4 -26.5 6.5t-26 4t-28 3.5t-26.5 4q-4 0 -9 -2q-52 -23 -66 -62q-10 -31 -13 -54q-4 -34 5 -52q20 -41 50 -78q9 -12 24 -16z" />
    <glyph glyph-name="one" unicode="1" horiz-adv-x="233" 
d="M218 287q3 -24 2 -47q0 -5 3 -45q1 -16 1 -34t-0.5 -40t-0.5 -33q0 -25 -14.5 -42.5t-37.5 -22.5q-22 -5 -42 5t-31 31q-10 20 -11 40q0 19 -4.5 54t-5.5 50q0 15 -5 71.5t-5 87.5v7t-0.5 5t-0.5 3t-2 2t-2.5 1.5t-3.5 1.5t-5 2q-35 13 -43.5 48.5t17.5 62.5q22 25 46 46
q32 28 71 18t55 -49q7 -19 9 -56q4 -48 5 -92q1 -32 5 -75z" />
    <glyph glyph-name="two" unicode="2" horiz-adv-x="478" 
d="M310 101l-9 -12q48 -5 76 0q2 0 6.5 1t6.5 1q27 4 49.5 -11t28.5 -41t-7 -50t-39 -32q-14 -5 -29 -5q-92 0 -112 2q-21 1 -88 -1q-35 -1 -79 4q-24 2 -42 17q-28 20 -29.5 52.5t24.5 55.5q24 22 45 39q31 24 80 74q11 11 20 26q14 27 23 42q5 9 3 18q-5 21 -9 41
q-2 14 -14.5 24.5t-26.5 11.5q-10 0 -48 -5q-8 -1 -18 -10l-34 -34q-24 -25 -49 -16q-28 10 -31 46q-1 20 7 40q44 110 155 127q95 14 157 -56q18 -20 31 -39q20 -29 22 -70q2 -51 -13 -116q-8 -32 -18 -59q-14 -37 -39 -65z" />
    <glyph glyph-name="three" unicode="3" horiz-adv-x="468" 
d="M398 27q-60 -76 -148 -70q-58 -3 -119 32q-45 26 -66 82q-9 24 -0.5 47.5t30 37t46.5 11t43 -20.5q9 -8 13 -14q10 -18 40 -23q38 -7 60 31q17 29 20 71q1 14 -8 25q-8 9 -16 17q-16 15 -37 10q-28 -7 -49 -3q-42 6 -52 44q-11 39 22 67q11 9 30 15q5 1 23 6q2 0 6.5 0.5
t7.5 1.5t5 3q9 12 9 27q0 8 -3 31q0 7 -4 11q-27 26 -32 30q-13 11 -37 8q-47 -7 -80 -37l-5 -5l-5.5 -5.5t-5.5 -4.5q-20 -16 -42 -10.5t-31 29.5q-8 21 -3 47q5 28 22 47q56 67 134 84q86 19 155 -39q22 -19 46 -47q34 -39 36 -90q2 -71 -18 -111q-4 -7 2 -13
q14 -12 31 -32q51 -63 40 -147q-12 -82 -60 -143z" />
    <glyph glyph-name="four" unicode="4" horiz-adv-x="427" 
d="M258 176q-5 0 -56 -3q-61 4 -81 9q-51 10 -89 51q-34 37 -20 91q16 62 59 136q18 31 41 61q8 10 29 39.5t33 44.5q2 2 6 10q9 17 22 30q22 23 51 27.5t57 -11.5q56 -31 63 -91q11 -88 17 -186q0 -17 2.5 -37l4.5 -36t4.5 -37.5t4.5 -36.5q1 -14 3 -39.5t3 -31.5
q7 -72 6 -96q-1 -19 -2 -23q-4 -25 -22.5 -41.5t-43.5 -17.5t-45 14t-27 39q-3 13 -2 23q1 20 -2.5 57t-4.5 45q0 11 -11 10zM240 457q-7 -13 -17.5 -31.5t-18 -32t-16 -31t-14.5 -33.5q10 -2 21.5 -3t25.5 -1t21 -1q8 -1 9.5 0.5t1.5 10.5q-1 17 -10 111q0 8 -3 11z" />
    <glyph glyph-name="five" unicode="5" horiz-adv-x="451" 
d="M211 507v-1h-42q-5 0 -7 -1t-3 -3.5t0 -7.5q1 -8 3.5 -26.5t3.5 -28.5t11 -9q75 12 165 -28q37 -16 68.5 -63t31.5 -92q1 -73 -40 -128q-24 -31 -44 -49q-26 -24 -61 -32q-36 -8 -86 -14q-35 -5 -68 10q-32 15 -44 49q-9 26 2.5 49.5t37.5 33.5q17 7 35 6q11 0 73 8
q12 2 19 11q13 18 17 24q10 16 5 31.5t-19 23.5q-55 31 -102 1q-7 -5 -18 -10q-33 -17 -67 -5.5t-50 44.5q-12 24 -14 58q0 2 -8 83q-6 57 8 96q2 5 2 10q1 31 30 53q39 29 93 41q40 8 110 4q28 -2 50 -23q18 -18 19 -43.5t-17 -45.5q-23 -25 -58 -26h-36z" />
    <glyph glyph-name="six" unicode="6" horiz-adv-x="442" 
d="M181 418q-3 -6 -2 -9q2 -1 10 0q30 5 68 -3q2 -1 5 -1.5t5.5 -1t5 -1.5t5.5 -1q79 -15 138 -99q16 -23 18 -55q4 -69 -28 -123q-55 -95 -164 -96q-66 -1 -116 23q-96 44 -111 147q-7 51 -7 100q1 130 102 226q48 45 124 57q18 3 34 -1q26 -8 31 -30q5 -23 -16 -38
q-31 -22 -70 -56q-19 -16 -32 -38zM194 181q22 -10 46 -8q22 -5 38 16q9 13 14 32q2 9 -5 16q-17 17 -36 20q-30 6 -36.5 5.5t-36.5 -12.5q-8 -3 -14 -5q-7 -1 -6 -8q2 -41 36 -56z" />
    <glyph glyph-name="seven" unicode="7" horiz-adv-x="382" 
d="M148 548q18 2 41 0q72 -5 77 -5q28 -2 56 -12q46 -16 50 -67q1 -10 0 -24q-7 -60 -24 -147q-5 -28 -33 -191q-1 -4 -1.5 -9.5t-1.5 -10.5t-1 -9q-3 -16 -11 -31q-12 -21 -32 -30.5t-43 -4.5q-22 4 -37 21t-17 40q-3 35 0 61q17 136 42 250q1 5 3 13t2 9q2 10 -7 10
q-8 1 -19.5 1.5t-19.5 1.5t-19 0.5t-20 -1.5q-8 -2 -53 -6q-15 -2 -28 1q-27 7 -38.5 31t0.5 49q11 23 38 37q15 8 54 17q21 5 42 6z" />
    <glyph glyph-name="eight" unicode="8" horiz-adv-x="403" 
d="M356 26q-45 -67 -119 -63q-51 2 -77 8q-66 15 -99.5 62.5t-33.5 103.5q0 79 43 125q6 7 0 14q-36 40 -57 109q-19 63 30 109q49 48 117.5 56.5t128.5 -25.5q28 -16 47.5 -40t29.5 -59t0 -76q-8 -31 -20 -55q-3 -7 1 -12q59 -62 44 -164q-8 -51 -35 -93zM235 406
q-2 4 -5 6.5t-5.5 5t-6 4.5t-5.5 3t-6.5 2.5t-6.5 2t-6.5 1.5t-5.5 1q-20 1 -47 -12q-9 -4 -7 -13q4 -23 4 -36q1 -17 17 -37q6 -6 13 -4q16 5 33 9q24 6 29 11t9 29q1 3 1 5q2 11 -5 22zM189 192q-23 -17 -22 -42q-1 -19 6.5 -29t25.5 -13q11 -3 34 -6q9 -2 13 3
q18 29 18 56q0 18 -13 25q-5 4 -14 11q-11 10 -15 10.5t-17 -5.5q-8 -4 -16 -10z" />
    <glyph glyph-name="nine" unicode="9" horiz-adv-x="462" 
d="M287 258q2 5 0 7q-2 1 -6 0q-66 -23 -150 1q-40 11 -67 45q-74 92 -50 216q4 21 14 47q23 61 79 89l13 6.5t13 7t13 7l13 6.5q103 53 195 -8q56 -37 72 -105q30 -124 27 -224q-1 -36 -7 -58q-15 -59 -20 -75q-25 -82 -85 -129q-65 -51 -133 -50q-38 1 -91 15
q-13 3 -25 12q-44 31 -55 39q-18 13 -23 34.5t4 41.5q10 21 30.5 30t42.5 4q14 -4 44 -22q25 -14 34 -17q39 -12 74 17q31 25 44 63zM180 402q28 -5 40 -5h9t8 0.5t6.5 0.5t5.5 0.5t5.5 1.5t6 2.5t6.5 3t8 4.5q3 1 9.5 5.5t10.5 5.5q12 6 10 21q-3 30 -22 107q-2 7 -6 11
q-32 31 -64 25q-2 -1 -9 -1q-19 -2 -34.5 -11.5t-25.5 -25t-12 -34.5q-5 -43 19 -90q10 -18 29 -21z" />
    <glyph glyph-name="colon" unicode=":" horiz-adv-x="168" 
d="M84 389q-32 0 -54 22t-22 54t22.5 54t55.5 22q31 0 52.5 -22.5t21.5 -54.5q-1 -32 -23 -53.5t-53 -21.5zM93 284q26 0 44.5 -19t18 -45.5t-19.5 -45t-45 -17.5t-44 19.5t-18 44.5t19 44.5t45 18.5z" />
    <glyph glyph-name="semicolon" unicode=";" horiz-adv-x="213" 
d="M132 536q31 0 52.5 -23t20.5 -55q-1 -31 -23 -52.5t-53 -21.5q-21 0 -38.5 10.5t-27.5 28t-10 38.5q1 32 23.5 54t55.5 21zM167 243q4 -8 6 -17q4 -19 7 -54q0 -23 -12 -61q-14 -47 -42 -78q-7 -8 -14 -14.5t-15 -10.5q-19 -11 -40 -7.5t-35 20t-14 37.5t13 38q2 3 3 4
q12 11 20 27.5t10.5 28t6.5 33.5q1 4 1.5 8.5t1 10t1.5 9.5q2 13 6 23q15 33 46 34q33 2 50 -31z" />
    <glyph glyph-name="less" unicode="&#x3c;" horiz-adv-x="287" 
d="M183 410q-5 -4 -10.5 -8t-13 -9.5t-12.5 -9.5q4 -2 30.5 -21.5t40.5 -28.5q17 -11 37 -26q8 -6 13 -12q17 -21 5 -45q-11 -22 -37 -22q-7 0 -19 4q-82 24 -170 85q-18 12 -27 24q-25 35 -1 69q9 13 19 22q50 49 121 73q23 8 43 1q24 -7 29 -28t-12 -39q-6 -6 -36 -29z
" />
    <glyph glyph-name="equal" unicode="=" horiz-adv-x="352" 
d="M342 297q4 -21 -6.5 -41t-30.5 -29q-13 -6 -23 -6q-22 -1 -65 -4t-62 -3q-56 1 -68 3q-25 4 -42 15q-36 22 -29 60q2 12 8.5 22t16.5 16.5t23 8.5q9 2 25 3q8 0 37 1q68 1 84 3q18 2 74 -1q23 -1 38.5 -14t19.5 -34zM37 400q-29 18 -29 49.5t29 49.5q16 10 38 14
q14 2 22 2q24 1 67.5 6t60.5 6q25 2 37 0q26 -4 42.5 -22.5t15.5 -44.5q0 -12 -5 -23t-13 -19.5t-19.5 -14t-24.5 -6.5q-7 0 -20 -2t-18 -2q-12 -2 -101 -11q-35 2 -54 6q-16 4 -28 12z" />
    <glyph glyph-name="greater" unicode="&#x3e;" horiz-adv-x="287" 
d="M139 369l-36 27q-30 23 -36 29q-17 18 -12 39t29 28q20 7 43 -1q71 -24 121 -73q10 -9 19 -22q24 -34 -1 -69q-9 -12 -27 -24q-88 -61 -170 -85q-12 -4 -19 -4q-26 0 -37 22q-12 24 5 45q5 6 13 12q20 15 37 26q10 6 22 14.5t26 19t23 16.5z" />
    <glyph glyph-name="question" unicode="?" horiz-adv-x="449" 
d="M440 584v-44q-2 -5 -3 -30q0 -24 -8 -42q-41 -95 -118 -136q-29 -16 -68 -25l-7.5 -1.5t-4.5 -1.5t-2.5 -2t-1 -3t0 -4.5t-0.5 -6.5q0 -21 -2 -30q-4 -24 -22 -38.5t-41 -14.5t-41 15.5t-21 38.5q-8 54 12 104q17 44 68 51q20 2 68 12q27 5 38 28q2 5 6 11.5t8 14t7 12.5
q6 11 6 21q-1 37 -3 55q-1 8 -2 10q-19 42 -54.5 64.5t-81.5 7.5q-23 -7 -45 -26q-15 -13 -16 -32q-1 -25 2 -47q1 -11 1 -16q0 -10 -5 -19t-13 -13.5t-18 -5t-20 4.5t-19 15t-12 19q-38 87 0 161q13 24 34 42q56 46 127 49q63 3 95 -9q110 -41 150 -152q2 -6 3.5 -18.5
t3.5 -18.5zM216 146q42 -20 43 -61q-1 -38 -24.5 -62t-58.5 -23q-54 3 -77 50q-5 11 -7 15q-9 23 -5.5 43t20 34.5t40.5 17.5q36 3 69 -14z" />
    <glyph glyph-name="at" unicode="@" horiz-adv-x="607" 
d="M8 271h1v33q1 59 35 106q21 28 32 41q37 47 99 78q33 16 80 10q41 -5 56 -8q91 -20 140 -80q18 -21 36 -53q20 -33 16 -75q-5 -54 -32 -125q-25 -64 -91 -80q-51 -12 -82 14q-17 14 -44 16q-40 4 -88 38q-25 18 -29 56q-5 56 26 107q22 37 71 45q22 4 50 -1q43 -7 54 -47
q12 -43 22 -102q2 -8 2 -10q5 -20 20 -6q10 10 15 24q11 31 14 41q10 34 -13 58q-14 14 -23 27q-14 19 -36 29q-39 17 -61 18q-12 1 -37 6q-18 4 -35 -2q-44 -17 -64 -47q-3 -5 -6 -8q-34 -36 -31 -92q2 -49 7 -63.5t33 -52.5l5 -5q6 -5 21.5 -18t27 -21.5t23.5 -13.5t14 -5
q5 -2 28.5 -7t33.5 -6.5t27.5 -3.5t32.5 -1q38 2 75 29q41 30 64 82q7 16 9 26q4 34 36 41t49 -21q18 -27 -3 -54q-9 -11 -11 -22q-1 -7 -3 -10q-28 -56 -62 -91q-2 -1 -5.5 -4t-4.5 -5q-21 -23 -49 -35.5t-62 -17.5q-47 -6 -99 -1q-29 3 -74 11q-36 6 -78 35q-28 21 -41 32
q-41 33 -75 91q-15 25 -16 64v36zM235 267q-1 -10 0.5 -13t13.5 -9q0 4 -1 22.5t-1 28.5q-10 -9 -12 -29z" />
    <glyph glyph-name="A" unicode="A" horiz-adv-x="548" 
d="M539 82q2 -17 -4 -32t-17.5 -25.5t-27.5 -15.5q-24 -7 -46 2t-36 31q-3 5 -16 39q-4 8 -12 9t-46.5 6t-58.5 6q-51 2 -88 6q-5 1 -7.5 0.5t-3 -2.5t-1.5 -7q-1 -13 -4.5 -36.5t-4.5 -33.5q-6 -52 -58 -67q-47 -14 -82 26q-19 22 -18 71q12 81 38 119q17 24 16 52
q-1 32 15 64q16 33 32 102q5 24 14 70t11 56q17 84 51 152q18 34 36 49q30 24 65.5 16t53.5 -42q6 -11 9 -26q20 -82 40 -132q14 -36 25 -81q2 -7 10.5 -29t21 -64.5t15.5 -50.5q7 -22 24 -73q7 -24 19 -40q28 -41 35 -119zM304 258q8 0 10 3q-26 85 -45 132l-4 -4
q-28 -73 -39 -120q-2 -7 -0.5 -8.5t7.5 -1.5q21 0 71 -1z" />
    <glyph glyph-name="A" unicode="&#xc5;" horiz-adv-x="548" 
d="M539 82q2 -17 -4 -32t-17.5 -25.5t-27.5 -15.5q-24 -7 -46 2t-36 31q-3 5 -16 39q-4 8 -12 9t-46.5 6t-58.5 6q-51 2 -88 6q-5 1 -7.5 0.5t-3 -2.5t-1.5 -7q-1 -13 -4.5 -36.5t-4.5 -33.5q-6 -52 -58 -67q-47 -14 -82 26q-19 22 -18 71q12 81 38 119q17 24 16 52
q-1 32 15 64q16 33 32 102q5 24 14 70t11 56q17 84 51 152q18 34 36 49q30 24 65.5 16t53.5 -42q6 -11 9 -26q20 -82 40 -132q14 -36 25 -81q2 -7 10.5 -29t21 -64.5t15.5 -50.5q7 -22 24 -73q7 -24 19 -40q28 -41 35 -119zM304 258q8 0 10 3q-26 85 -45 132l-4 -4
q-28 -73 -39 -120q-2 -7 -0.5 -8.5t7.5 -1.5q21 0 71 -1z" />
    <glyph glyph-name="A" unicode="&#xc4;" horiz-adv-x="548" 
d="M539 82q2 -17 -4 -32t-17.5 -25.5t-27.5 -15.5q-24 -7 -46 2t-36 31q-3 5 -16 39q-4 8 -12 9t-46.5 6t-58.5 6q-51 2 -88 6q-5 1 -7.5 0.5t-3 -2.5t-1.5 -7q-1 -13 -4.5 -36.5t-4.5 -33.5q-6 -52 -58 -67q-47 -14 -82 26q-19 22 -18 71q12 81 38 119q17 24 16 52
q-1 32 15 64q16 33 32 102q5 24 14 70t11 56q17 84 51 152q18 34 36 49q30 24 65.5 16t53.5 -42q6 -11 9 -26q20 -82 40 -132q14 -36 25 -81q2 -7 10.5 -29t21 -64.5t15.5 -50.5q7 -22 24 -73q7 -24 19 -40q28 -41 35 -119zM304 258q8 0 10 3q-26 85 -45 132l-4 -4
q-28 -73 -39 -120q-2 -7 -0.5 -8.5t7.5 -1.5q21 0 71 -1z" />
    <glyph glyph-name="A" unicode="&#xc3;" horiz-adv-x="548" 
d="M539 82q2 -17 -4 -32t-17.5 -25.5t-27.5 -15.5q-24 -7 -46 2t-36 31q-3 5 -16 39q-4 8 -12 9t-46.5 6t-58.5 6q-51 2 -88 6q-5 1 -7.5 0.5t-3 -2.5t-1.5 -7q-1 -13 -4.5 -36.5t-4.5 -33.5q-6 -52 -58 -67q-47 -14 -82 26q-19 22 -18 71q12 81 38 119q17 24 16 52
q-1 32 15 64q16 33 32 102q5 24 14 70t11 56q17 84 51 152q18 34 36 49q30 24 65.5 16t53.5 -42q6 -11 9 -26q20 -82 40 -132q14 -36 25 -81q2 -7 10.5 -29t21 -64.5t15.5 -50.5q7 -22 24 -73q7 -24 19 -40q28 -41 35 -119zM304 258q8 0 10 3q-26 85 -45 132l-4 -4
q-28 -73 -39 -120q-2 -7 -0.5 -8.5t7.5 -1.5q21 0 71 -1z" />
    <glyph glyph-name="A" unicode="&#xc2;" horiz-adv-x="548" 
d="M539 82q2 -17 -4 -32t-17.5 -25.5t-27.5 -15.5q-24 -7 -46 2t-36 31q-3 5 -16 39q-4 8 -12 9t-46.5 6t-58.5 6q-51 2 -88 6q-5 1 -7.5 0.5t-3 -2.5t-1.5 -7q-1 -13 -4.5 -36.5t-4.5 -33.5q-6 -52 -58 -67q-47 -14 -82 26q-19 22 -18 71q12 81 38 119q17 24 16 52
q-1 32 15 64q16 33 32 102q5 24 14 70t11 56q17 84 51 152q18 34 36 49q30 24 65.5 16t53.5 -42q6 -11 9 -26q20 -82 40 -132q14 -36 25 -81q2 -7 10.5 -29t21 -64.5t15.5 -50.5q7 -22 24 -73q7 -24 19 -40q28 -41 35 -119zM304 258q8 0 10 3q-26 85 -45 132l-4 -4
q-28 -73 -39 -120q-2 -7 -0.5 -8.5t7.5 -1.5q21 0 71 -1z" />
    <glyph glyph-name="A" unicode="&#xc1;" horiz-adv-x="548" 
d="M539 82q2 -17 -4 -32t-17.5 -25.5t-27.5 -15.5q-24 -7 -46 2t-36 31q-3 5 -16 39q-4 8 -12 9t-46.5 6t-58.5 6q-51 2 -88 6q-5 1 -7.5 0.5t-3 -2.5t-1.5 -7q-1 -13 -4.5 -36.5t-4.5 -33.5q-6 -52 -58 -67q-47 -14 -82 26q-19 22 -18 71q12 81 38 119q17 24 16 52
q-1 32 15 64q16 33 32 102q5 24 14 70t11 56q17 84 51 152q18 34 36 49q30 24 65.5 16t53.5 -42q6 -11 9 -26q20 -82 40 -132q14 -36 25 -81q2 -7 10.5 -29t21 -64.5t15.5 -50.5q7 -22 24 -73q7 -24 19 -40q28 -41 35 -119zM304 258q8 0 10 3q-26 85 -45 132l-4 -4
q-28 -73 -39 -120q-2 -7 -0.5 -8.5t7.5 -1.5q21 0 71 -1z" />
    <glyph glyph-name="A" unicode="&#xc0;" horiz-adv-x="548" 
d="M539 82q2 -17 -4 -32t-17.5 -25.5t-27.5 -15.5q-24 -7 -46 2t-36 31q-3 5 -16 39q-4 8 -12 9t-46.5 6t-58.5 6q-51 2 -88 6q-5 1 -7.5 0.5t-3 -2.5t-1.5 -7q-1 -13 -4.5 -36.5t-4.5 -33.5q-6 -52 -58 -67q-47 -14 -82 26q-19 22 -18 71q12 81 38 119q17 24 16 52
q-1 32 15 64q16 33 32 102q5 24 14 70t11 56q17 84 51 152q18 34 36 49q30 24 65.5 16t53.5 -42q6 -11 9 -26q20 -82 40 -132q14 -36 25 -81q2 -7 10.5 -29t21 -64.5t15.5 -50.5q7 -22 24 -73q7 -24 19 -40q28 -41 35 -119zM304 258q8 0 10 3q-26 85 -45 132l-4 -4
q-28 -73 -39 -120q-2 -7 -0.5 -8.5t7.5 -1.5q21 0 71 -1z" />
    <glyph glyph-name="B" unicode="B" horiz-adv-x="495" 
d="M471 285q23 -68 12 -146q-9 -61 -49 -102q-28 -28 -53 -45q-64 -44 -126 -51q-23 -2 -38 0q-43 6 -88 20q-24 7 -42 22q-37 31 -27 78q3 12 -1 20q-14 28 -13 67v38q3 78 4 84q4 61 -3 155q-2 23 0 31q3 22 -2 70q-2 15 -1 34q0 4 0.5 8.5t0.5 8.5v7q3 21 -15 35
q-19 15 -21.5 39t11.5 43q15 22 37 32q92 42 181 17q4 -1 28.5 -12.5t48.5 -23t27 -14.5q27 -19 55 -68q31 -54 25 -139q-4 -53 -25 -99q-5 -10 4 -16q51 -39 70 -93zM185 490q-2 -14 2 -24q7 -17 12 -51q2 -12 5 -16q38 21 43 24q6 3 10 11q16 27 13 51q-2 22 -2 34
q1 20 -13 44q-4 8 -13 11q-19 6 -39 19q-10 6 -15 4q0 -9 -1.5 -28t-1.5 -28q2 -32 0 -51zM327 161q0 1 3 30q0 23 -9 43q-9 23 -31 27t-40 -1q-23 -7 -35 -8q-9 0 -9 -9q-1 -27 -1 -31q0 -57 -6 -89q0 -1 -1 -5t-1 -5q-2 -8 5 -9q37 -11 58 -1q35 16 56 39q9 10 11 19z" />
    <glyph glyph-name="C" unicode="C" horiz-adv-x="486" 
d="M424 172q33 -8 47 -38t-2 -61q-17 -36 -61 -59q-63 -33 -136 -20q-42 7 -52 9q-52 10 -86 39q-17 14 -49 43q-34 32 -51 92q-2 4 -7.5 25t-8.5 32q-12 36 -10 78q3 54 15 106q15 65 66 110q76 67 176 67q33 0 60 -8q7 -2 15 -2q24 1 47 -11l11 -5.5t11.5 -5.5t10 -6
t10.5 -8q22 -20 24.5 -48.5t-16.5 -50.5q-18 -23 -47.5 -26t-52.5 16q-11 8 -25 8q-54 -3 -83 -14q-20 -8 -43 -29q-7 -7 -11 -20q-10 -39 -11 -88v-2q7 -38 25 -90q1 -4 12 -15q4 -3 9 -8q19 -18 26 -21t27 -7q11 -1 18 -2q4 -1 7 -2q30 -8 59 7q17 9 36 14q20 6 40 1z" />
    <glyph glyph-name="C" unicode="&#xc7;" horiz-adv-x="486" 
d="M424 172q33 -8 47 -38t-2 -61q-17 -36 -61 -59q-63 -33 -136 -20q-42 7 -52 9q-52 10 -86 39q-17 14 -49 43q-34 32 -51 92q-2 4 -7.5 25t-8.5 32q-12 36 -10 78q3 54 15 106q15 65 66 110q76 67 176 67q33 0 60 -8q7 -2 15 -2q24 1 47 -11l11 -5.5t11.5 -5.5t10 -6
t10.5 -8q22 -20 24.5 -48.5t-16.5 -50.5q-18 -23 -47.5 -26t-52.5 16q-11 8 -25 8q-54 -3 -83 -14q-20 -8 -43 -29q-7 -7 -11 -20q-10 -39 -11 -88v-2q7 -38 25 -90q1 -4 12 -15q4 -3 9 -8q19 -18 26 -21t27 -7q11 -1 18 -2q4 -1 7 -2q30 -8 59 7q17 9 36 14q20 6 40 1z" />
    <glyph glyph-name="D" unicode="D" horiz-adv-x="527" 
d="M516 379q7 -66 -5 -105q-27 -91 -56 -144q-35 -64 -100 -101q-26 -15 -62 -24q-46 -11 -91 -19q-20 -4 -52 -4t-44 3q-30 7 -46.5 30t-13.5 53q1 15 -2 26q-4 16 -6 51q-3 72 -2 177q0 27 -1.5 53.5t-5.5 67t-4 52.5q-1 6 -5 41t-4 54q1 7 -3 16q-7 17 -5 33.5t10 30.5
t22 24.5t31 14.5q66 16 128 2q9 -2 19.5 -4.5t22 -5.5t19.5 -5q43 -10 90 -48q6 -4 17 -13.5t16 -14.5q12 -8 22 -20t22 -27t19 -23q59 -66 70 -171zM361 316q2 5 2 26q-3 31 -3 33q-8 43 -26 65q-3 5 -9.5 12.5t-10.5 12.5l-10 12.5t-11 12.5l-11 11t-12 11.5t-12 10.5
q-26 19 -34 21q-15 4 -45 11q-6 2 -7.5 0.5t-1.5 -7.5q2 -26 6 -52q16 -95 13 -162q-1 -19 -1 -84t-3 -101q-1 -4 0.5 -6.5t6.5 -0.5q8 2 19.5 4t20.5 4t19.5 4.5t19.5 6.5q29 12 44 37q23 39 46 118z" />
    <glyph glyph-name="E" unicode="E" horiz-adv-x="442" 
d="M389 162q37 -16 43.5 -53.5t-23.5 -64.5q-20 -19 -45 -24q-27 -6 -65 -13q-40 -8 -87 -3q-31 4 -69 4q-6 0 -22 1q-32 1 -53 23t-26 50q-1 11 -2 27v120q0 37 -6 125q-1 23 -1 34q2 50 -9 119q-4 21 -6 49q-2 19 -7 35q-11 36 20 64q20 17 55 26q21 6 50 8q11 1 41 3.5
t51 3.5t41 0q36 -1 60 -8q6 -1 20.5 -4t21.5 -5q38 -11 50.5 -48.5t-11.5 -68.5q-22 -30 -60 -30q-11 0 -52 8q-14 2 -22 2q-57 0 -84 -1q-11 0 -12.5 -2t0.5 -13q9 -47 11 -71v-45q63 11 109 16q6 0 16 3t13 4q50 9 78 -31q27 -38 5 -80q-14 -27 -44 -36q-25 -8 -45 -10
q-87 -8 -113 -7q-9 0 -11 -1.5t-2 -9.5v-84v-6.5t2 -3t3.5 -2t7.5 -1.5q37 -6 97 5q11 2 27 4q29 3 55 -8z" />
    <glyph glyph-name="E" unicode="&#xcb;" horiz-adv-x="442" 
d="M389 162q37 -16 43.5 -53.5t-23.5 -64.5q-20 -19 -45 -24q-27 -6 -65 -13q-40 -8 -87 -3q-31 4 -69 4q-6 0 -22 1q-32 1 -53 23t-26 50q-1 11 -2 27v120q0 37 -6 125q-1 23 -1 34q2 50 -9 119q-4 21 -6 49q-2 19 -7 35q-11 36 20 64q20 17 55 26q21 6 50 8q11 1 41 3.5
t51 3.5t41 0q36 -1 60 -8q6 -1 20.5 -4t21.5 -5q38 -11 50.5 -48.5t-11.5 -68.5q-22 -30 -60 -30q-11 0 -52 8q-14 2 -22 2q-57 0 -84 -1q-11 0 -12.5 -2t0.5 -13q9 -47 11 -71v-45q63 11 109 16q6 0 16 3t13 4q50 9 78 -31q27 -38 5 -80q-14 -27 -44 -36q-25 -8 -45 -10
q-87 -8 -113 -7q-9 0 -11 -1.5t-2 -9.5v-84v-6.5t2 -3t3.5 -2t7.5 -1.5q37 -6 97 5q11 2 27 4q29 3 55 -8z" />
    <glyph glyph-name="E" unicode="&#xca;" horiz-adv-x="442" 
d="M389 162q37 -16 43.5 -53.5t-23.5 -64.5q-20 -19 -45 -24q-27 -6 -65 -13q-40 -8 -87 -3q-31 4 -69 4q-6 0 -22 1q-32 1 -53 23t-26 50q-1 11 -2 27v120q0 37 -6 125q-1 23 -1 34q2 50 -9 119q-4 21 -6 49q-2 19 -7 35q-11 36 20 64q20 17 55 26q21 6 50 8q11 1 41 3.5
t51 3.5t41 0q36 -1 60 -8q6 -1 20.5 -4t21.5 -5q38 -11 50.5 -48.5t-11.5 -68.5q-22 -30 -60 -30q-11 0 -52 8q-14 2 -22 2q-57 0 -84 -1q-11 0 -12.5 -2t0.5 -13q9 -47 11 -71v-45q63 11 109 16q6 0 16 3t13 4q50 9 78 -31q27 -38 5 -80q-14 -27 -44 -36q-25 -8 -45 -10
q-87 -8 -113 -7q-9 0 -11 -1.5t-2 -9.5v-84v-6.5t2 -3t3.5 -2t7.5 -1.5q37 -6 97 5q11 2 27 4q29 3 55 -8z" />
    <glyph glyph-name="E" unicode="&#xc9;" horiz-adv-x="442" 
d="M389 162q37 -16 43.5 -53.5t-23.5 -64.5q-20 -19 -45 -24q-27 -6 -65 -13q-40 -8 -87 -3q-31 4 -69 4q-6 0 -22 1q-32 1 -53 23t-26 50q-1 11 -2 27v120q0 37 -6 125q-1 23 -1 34q2 50 -9 119q-4 21 -6 49q-2 19 -7 35q-11 36 20 64q20 17 55 26q21 6 50 8q11 1 41 3.5
t51 3.5t41 0q36 -1 60 -8q6 -1 20.5 -4t21.5 -5q38 -11 50.5 -48.5t-11.5 -68.5q-22 -30 -60 -30q-11 0 -52 8q-14 2 -22 2q-57 0 -84 -1q-11 0 -12.5 -2t0.5 -13q9 -47 11 -71v-45q63 11 109 16q6 0 16 3t13 4q50 9 78 -31q27 -38 5 -80q-14 -27 -44 -36q-25 -8 -45 -10
q-87 -8 -113 -7q-9 0 -11 -1.5t-2 -9.5v-84v-6.5t2 -3t3.5 -2t7.5 -1.5q37 -6 97 5q11 2 27 4q29 3 55 -8z" />
    <glyph glyph-name="E" unicode="&#xc8;" horiz-adv-x="442" 
d="M389 162q37 -16 43.5 -53.5t-23.5 -64.5q-20 -19 -45 -24q-27 -6 -65 -13q-40 -8 -87 -3q-31 4 -69 4q-6 0 -22 1q-32 1 -53 23t-26 50q-1 11 -2 27v120q0 37 -6 125q-1 23 -1 34q2 50 -9 119q-4 21 -6 49q-2 19 -7 35q-11 36 20 64q20 17 55 26q21 6 50 8q11 1 41 3.5
t51 3.5t41 0q36 -1 60 -8q6 -1 20.5 -4t21.5 -5q38 -11 50.5 -48.5t-11.5 -68.5q-22 -30 -60 -30q-11 0 -52 8q-14 2 -22 2q-57 0 -84 -1q-11 0 -12.5 -2t0.5 -13q9 -47 11 -71v-45q63 11 109 16q6 0 16 3t13 4q50 9 78 -31q27 -38 5 -80q-14 -27 -44 -36q-25 -8 -45 -10
q-87 -8 -113 -7q-9 0 -11 -1.5t-2 -9.5v-84v-6.5t2 -3t3.5 -2t7.5 -1.5q37 -6 97 5q11 2 27 4q29 3 55 -8z" />
    <glyph glyph-name="F" unicode="F" horiz-adv-x="423" 
d="M326 400q12 1 23 -1t20 -7t17 -13t13 -18q10 -19 7.5 -40.5t-17 -39t-40.5 -23.5q-21 -6 -46 -7q-20 -1 -57 -2t-50 -2q-10 0 -11.5 -1.5t-1.5 -11.5q0 -28 2 -48q5 -45 -2 -77q-5 -20 -13 -33q-15 -24 -41.5 -27t-46.5 17q-17 16 -23 37q-22 64 -24 115q-1 23 -2.5 51.5
t-3.5 58t-3 51.5q-1 38 -15 107q-5 25 -1 51q7 46 51 64q26 11 62 18q61 12 107 25q35 9 73 5q5 0 20.5 -1.5t24.5 -2.5q47 -5 62 -48q15 -42 -19 -75q-17 -18 -45 -20q-18 -2 -48 1q-20 2 -37 -3q-52 -16 -88 -21q-11 -2 -9 -12q6 -24 9 -64q0 -9 2 -10.5t11 -0.5q5 0 59 2
q44 1 81 6z" />
    <glyph glyph-name="G" unicode="G" horiz-adv-x="535" 
d="M507 337q25 -59 18 -138q-9 -92 -92 -140q-48 -28 -86 -31q-95 -9 -158 24q-77 40 -125 98q-21 26 -35 54t-18 59q-2 15 -2 65q-5 64 32 162q40 106 127 154q94 51 191 12q38 -15 61 -46q13 -16 15 -37t-9.5 -38t-32.5 -23q-24 -6 -56 5q-29 11 -38 12q-48 6 -83 -25
q-33 -30 -45 -73q-18 -64 -16 -127q1 -37 27 -66q38 -42 85 -61q14 -5 25 -5q45 0 63 9q26 14 29 42q1 6 1 16q0 9 -1.5 10.5t-9.5 2.5q-10 1 -60 1q-26 1 -45 9q-21 9 -33 27t-11 40q0 21 13.5 38t35.5 25q15 6 30 6q42 2 64 0q39 -3 60 -4q55 -1 79 -57z" />
    <glyph glyph-name="H" unicode="H" horiz-adv-x="472" 
d="M461 242q4 -90 -1 -128q-4 -30 -16 -51q-17 -30 -48.5 -35t-56.5 17q-18 16 -23 45q-1 12 0 29q3 49 -2 145q-1 10 -10 9q-44 0 -61 -5q-7 -2 -32 -6q-9 -2 -10 -3.5t0 -9.5q6 -41 9 -89q6 -83 6 -97q-1 -18 -4 -27q-6 -24 -25.5 -39t-44.5 -15q-26 1 -45 16.5t-25 40.5
q-3 11 -3 25q-2 81 -21 226q-13 90 -15 106q-12 115 -14 150q-1 12 -4 33q-1 8 -5 23q-2 13 -2 26q2 40 34 57q34 18 69 -5q19 -13 30 -37q15 -31 20 -77q1 -11 2.5 -22.5t2.5 -22.5l2 -22t2.5 -23t2.5 -22q1 -7 3 -20.5t3 -20.5q1 -9 9 -8q1 0 5.5 0.5t6.5 1.5q46 13 96 11
q9 -1 11 1t1 11q-2 88 -15 202q-4 41 20 65q27 26 62.5 18t49.5 -43q6 -16 10 -52q1 -12 5.5 -41t5.5 -45q8 -98 11 -140q3 -62 4 -152z" />
    <glyph glyph-name="I" unicode="I" horiz-adv-x="188" 
d="M179 175v-9.5t0.5 -11t0.5 -9.5q0 -49 -40 -70q-39 -19 -78 8q-19 14 -26 41q-3 14 -3 23q-1 38 -7 107.5t-8 95.5v13q2 46 -9 152q-3 35 2 60q4 23 19.5 38.5t37.5 17.5q21 3 39.5 -8t28.5 -32q7 -15 15 -59q15 -75 14 -164q0 -39 6 -92q7 -54 8 -101z" />
    <glyph glyph-name="I" unicode="&#xcf;" horiz-adv-x="188" 
d="M179 175v-9.5t0.5 -11t0.5 -9.5q0 -49 -40 -70q-39 -19 -78 8q-19 14 -26 41q-3 14 -3 23q-1 38 -7 107.5t-8 95.5v13q2 46 -9 152q-3 35 2 60q4 23 19.5 38.5t37.5 17.5q21 3 39.5 -8t28.5 -32q7 -15 15 -59q15 -75 14 -164q0 -39 6 -92q7 -54 8 -101z" />
    <glyph glyph-name="I" unicode="&#xce;" horiz-adv-x="188" 
d="M179 175v-9.5t0.5 -11t0.5 -9.5q0 -49 -40 -70q-39 -19 -78 8q-19 14 -26 41q-3 14 -3 23q-1 38 -7 107.5t-8 95.5v13q2 46 -9 152q-3 35 2 60q4 23 19.5 38.5t37.5 17.5q21 3 39.5 -8t28.5 -32q7 -15 15 -59q15 -75 14 -164q0 -39 6 -92q7 -54 8 -101z" />
    <glyph glyph-name="I" unicode="&#xcd;" horiz-adv-x="188" 
d="M179 175v-9.5t0.5 -11t0.5 -9.5q0 -49 -40 -70q-39 -19 -78 8q-19 14 -26 41q-3 14 -3 23q-1 38 -7 107.5t-8 95.5v13q2 46 -9 152q-3 35 2 60q4 23 19.5 38.5t37.5 17.5q21 3 39.5 -8t28.5 -32q7 -15 15 -59q15 -75 14 -164q0 -39 6 -92q7 -54 8 -101z" />
    <glyph glyph-name="I" unicode="&#xcc;" horiz-adv-x="188" 
d="M179 175v-9.5t0.5 -11t0.5 -9.5q0 -49 -40 -70q-39 -19 -78 8q-19 14 -26 41q-3 14 -3 23q-1 38 -7 107.5t-8 95.5v13q2 46 -9 152q-3 35 2 60q4 23 19.5 38.5t37.5 17.5q21 3 39.5 -8t28.5 -32q7 -15 15 -59q15 -75 14 -164q0 -39 6 -92q7 -54 8 -101z" />
    <glyph glyph-name="J" unicode="J" horiz-adv-x="404" 
d="M394 269q3 -35 -3 -78q-10 -76 -66 -135q-20 -21 -51.5 -41.5t-68.5 -22.5q-70 -3 -132 18q-35 11 -53 39q-13 19 -12 41.5t15 41.5q13 18 33.5 24.5t43.5 -0.5q51 -16 83 -16q13 0 23 8q36 29 39 71q5 65 -2 113q-6 44 -11 128q-1 12 -3.5 28t-5 31.5t-2.5 28.5
q-2 22 -2 23q1 19 -4 40q-3 14 -4 24q-1 25 14 44.5t39 25.5q17 4 32 1t27.5 -13.5t19.5 -25.5q15 -31 16 -59q0 -15 2 -33t4 -32t5.5 -33.5t4.5 -32.5q12 -89 19 -157v-51z" />
    <glyph glyph-name="K" unicode="K" horiz-adv-x="495" 
d="M479 117q11 -24 6 -48.5t-24 -40.5q-21 -17 -46 -18t-47 15q-5 4 -6 5q-11 12 -39 38t-41 42q-29 32 -53 53q-4 3 -7 3q-1 -23 2 -51q2 -13 4.5 -37.5t3.5 -30.5q3 -27 -7 -47q-8 -18 -25.5 -28.5t-36.5 -9.5q-21 1 -37 14.5t-22 34.5q-3 12 -7 37q-3 25 -7 45
q-5 19 -6 31q-4 56 -29 177q-10 45 -9 86q1 17 4 29q5 22 -6 44q-14 26 -15 60q-1 37 -2 40q-2 21 -10 41q-15 40 -6 79q7 30 30.5 46t52.5 10q31 -7 47 -38q9 -18 10 -38q2 -47 19 -96q4 -10 9.5 -30t7.5 -26q21 42 22 45q9 19 28 51t26 44q3 6 10.5 20.5t11.5 22.5
q22 39 63 41q38 2 61.5 -26.5t15.5 -65.5q-8 -34 -32 -83q-29 -60 -91 -162q-4 -6 -12 -20.5t-13 -21.5q-5 -10 3 -18q31 -28 81 -76q33 -32 101 -115q9 -11 17 -27z" />
    <glyph glyph-name="L" unicode="L" horiz-adv-x="415" 
d="M403 110q11 -39 -19 -67q-14 -13 -32 -19q-52 -17 -105 -10q-44 5 -75 1q-34 -4 -70 11q-38 15 -49 51q-14 41 -17 95q-3 45 -8 101q-10 112 -11 145q2 37 3 41q0 9 -2 15q-6 16 -7 37q-4 76 -2 103q2 20 11 37q18 34 53.5 36t57.5 -30q14 -20 19 -48q12 -79 3 -125
q-1 -5 0 -9q8 -30 13 -97q3 -31 11 -91t10 -89q1 -4 2 -16.5t1 -18.5q1 -9 11 -10q4 0 8.5 0.5t9 0.5t8.5 1t8.5 1.5t8.5 0.5q68 5 107 -2q41 -6 52 -45z" />
    <glyph glyph-name="M" unicode="M" horiz-adv-x="546" 
d="M537 73q1 -20 0 -33q-4 -28 -24.5 -47t-48 -19t-48 18.5t-23.5 47.5q-4 40 -13 80q-2 8 -5 34q-2 21 -19 129q-2 8 -3 9q-2 0 -3.5 -1t-2.5 -3t-1 -3q-4 -5 -8 -11t-9 -13t-8 -11q-12 -18 -27 -28q-18 -11 -39.5 -10t-38.5 15q-12 10 -24 14q-8 2 -21 8.5t-17 7.5
q-2 -4 -2 -22q-1 -69 -12 -130q-4 -21 -13 -39q-6 -11 -13 -19.5t-17.5 -14t-22.5 -6.5q-34 -2 -53 28q-10 17 -11 37q-2 90 -2 111q2 36 3 131v71q-1 27 9 58q11 36 45 48.5t66 -8.5q14 -9 31 -28q24 -27 74 -91l7 -8q25 32 42 63q29 54 72 93q19 18 40 21q27 4 48.5 -9.5
t30.5 -39.5q6 -18 9 -48q4 -35 10 -76t13.5 -86.5t11.5 -75.5q1 -8 2.5 -18t2.5 -18t2.5 -17.5t3 -18t2.5 -18t2 -18t1.5 -18t0.5 -18.5z" />
    <glyph glyph-name="N" unicode="N" horiz-adv-x="509" 
d="M500 131q-1 -9 0 -27t1 -27q-2 -39 -34.5 -58t-66.5 0q-25 12 -34 32q-9 19 -34 42q-55 51 -95 116q-34 58 -63 87q-7 7 -10 7q-1 -3 -1 -17q-4 -97 -18 -171q-8 -44 -28 -83q-4 -6 -5 -9q-16 -27 -41 -27t-41 27q-12 19 -17 41q-5 24 -5 49q0 44 5 110q12 147 15 191
q2 15 5.5 42.5t4.5 37.5q5 36 39.5 51.5t68.5 -3.5q15 -9 29 -25q45 -52 95 -121q12 -15 64 -86l6 -5q0 43 -2 82q-1 15 -5 49.5t-5 52.5q-1 27 13.5 47t38.5 24q15 3 29.5 -1t25.5 -14t17 -24q5 -13 8 -36q23 -147 24 -157q17 -122 16 -197z" />
    <glyph glyph-name="N" unicode="&#xd1;" horiz-adv-x="509" 
d="M500 131q-1 -9 0 -27t1 -27q-2 -39 -34.5 -58t-66.5 0q-25 12 -34 32q-9 19 -34 42q-55 51 -95 116q-34 58 -63 87q-7 7 -10 7q-1 -3 -1 -17q-4 -97 -18 -171q-8 -44 -28 -83q-4 -6 -5 -9q-16 -27 -41 -27t-41 27q-12 19 -17 41q-5 24 -5 49q0 44 5 110q12 147 15 191
q2 15 5.5 42.5t4.5 37.5q5 36 39.5 51.5t68.5 -3.5q15 -9 29 -25q45 -52 95 -121q12 -15 64 -86l6 -5q0 43 -2 82q-1 15 -5 49.5t-5 52.5q-1 27 13.5 47t38.5 24q15 3 29.5 -1t25.5 -14t17 -24q5 -13 8 -36q23 -147 24 -157q17 -122 16 -197z" />
    <glyph glyph-name="O" unicode="O" horiz-adv-x="536" 
d="M524 392q2 -14 3 -16v-27q-1 -3 -3 -23q-6 -95 -14 -146q-9 -54 -60 -110q-9 -9 -21 -14q-7 -2 -11 -11q-41 -78 -130 -80q-59 -2 -101 23q-46 27 -87 59q-32 26 -51 66q-35 75 -40 123v3q-1 4 -1 6q-1 110 12 177q15 74 65 134q35 43 90 55q83 17 142 2q6 -2 16 -1
q39 4 75 -17q46 -28 74 -73q36 -59 42 -130zM390 229q14 48 10 78q-2 17 0 30q2 18 -6 51q-3 14 -23 48q-17 30 -54 62q-5 3 -9 3q-58 0 -91 -14q-10 -4 -14 -11q-37 -60 -42 -104q-1 -4 -6 -70v-21t1.5 -26.5t4.5 -20.5q6 -15 20 -48q8 -20 29 -28q24 -9 39 -16
q16 -7 55 -12q4 0 15 3q6 2 8 8q6 24 31 46q26 23 32 42z" />
    <glyph glyph-name="O" unicode="&#xd8;" horiz-adv-x="536" 
d="M524 392q2 -14 3 -16v-27q-1 -3 -3 -23q-6 -95 -14 -146q-9 -54 -60 -110q-9 -9 -21 -14q-7 -2 -11 -11q-41 -78 -130 -80q-59 -2 -101 23q-46 27 -87 59q-32 26 -51 66q-35 75 -40 123v3q-1 4 -1 6q-1 110 12 177q15 74 65 134q35 43 90 55q83 17 142 2q6 -2 16 -1
q39 4 75 -17q46 -28 74 -73q36 -59 42 -130zM390 229q14 48 10 78q-2 17 0 30q2 18 -6 51q-3 14 -23 48q-17 30 -54 62q-5 3 -9 3q-58 0 -91 -14q-10 -4 -14 -11q-37 -60 -42 -104q-1 -4 -6 -70v-21t1.5 -26.5t4.5 -20.5q6 -15 20 -48q8 -20 29 -28q24 -9 39 -16
q16 -7 55 -12q4 0 15 3q6 2 8 8q6 24 31 46q26 23 32 42z" />
    <glyph glyph-name="O" unicode="&#xd6;" horiz-adv-x="536" 
d="M524 392q2 -14 3 -16v-27q-1 -3 -3 -23q-6 -95 -14 -146q-9 -54 -60 -110q-9 -9 -21 -14q-7 -2 -11 -11q-41 -78 -130 -80q-59 -2 -101 23q-46 27 -87 59q-32 26 -51 66q-35 75 -40 123v3q-1 4 -1 6q-1 110 12 177q15 74 65 134q35 43 90 55q83 17 142 2q6 -2 16 -1
q39 4 75 -17q46 -28 74 -73q36 -59 42 -130zM390 229q14 48 10 78q-2 17 0 30q2 18 -6 51q-3 14 -23 48q-17 30 -54 62q-5 3 -9 3q-58 0 -91 -14q-10 -4 -14 -11q-37 -60 -42 -104q-1 -4 -6 -70v-21t1.5 -26.5t4.5 -20.5q6 -15 20 -48q8 -20 29 -28q24 -9 39 -16
q16 -7 55 -12q4 0 15 3q6 2 8 8q6 24 31 46q26 23 32 42z" />
    <glyph glyph-name="O" unicode="&#xd5;" horiz-adv-x="536" 
d="M524 392q2 -14 3 -16v-27q-1 -3 -3 -23q-6 -95 -14 -146q-9 -54 -60 -110q-9 -9 -21 -14q-7 -2 -11 -11q-41 -78 -130 -80q-59 -2 -101 23q-46 27 -87 59q-32 26 -51 66q-35 75 -40 123v3q-1 4 -1 6q-1 110 12 177q15 74 65 134q35 43 90 55q83 17 142 2q6 -2 16 -1
q39 4 75 -17q46 -28 74 -73q36 -59 42 -130zM390 229q14 48 10 78q-2 17 0 30q2 18 -6 51q-3 14 -23 48q-17 30 -54 62q-5 3 -9 3q-58 0 -91 -14q-10 -4 -14 -11q-37 -60 -42 -104q-1 -4 -6 -70v-21t1.5 -26.5t4.5 -20.5q6 -15 20 -48q8 -20 29 -28q24 -9 39 -16
q16 -7 55 -12q4 0 15 3q6 2 8 8q6 24 31 46q26 23 32 42z" />
    <glyph glyph-name="O" unicode="&#xd4;" horiz-adv-x="536" 
d="M524 392q2 -14 3 -16v-27q-1 -3 -3 -23q-6 -95 -14 -146q-9 -54 -60 -110q-9 -9 -21 -14q-7 -2 -11 -11q-41 -78 -130 -80q-59 -2 -101 23q-46 27 -87 59q-32 26 -51 66q-35 75 -40 123v3q-1 4 -1 6q-1 110 12 177q15 74 65 134q35 43 90 55q83 17 142 2q6 -2 16 -1
q39 4 75 -17q46 -28 74 -73q36 -59 42 -130zM390 229q14 48 10 78q-2 17 0 30q2 18 -6 51q-3 14 -23 48q-17 30 -54 62q-5 3 -9 3q-58 0 -91 -14q-10 -4 -14 -11q-37 -60 -42 -104q-1 -4 -6 -70v-21t1.5 -26.5t4.5 -20.5q6 -15 20 -48q8 -20 29 -28q24 -9 39 -16
q16 -7 55 -12q4 0 15 3q6 2 8 8q6 24 31 46q26 23 32 42z" />
    <glyph glyph-name="O" unicode="&#xd3;" horiz-adv-x="536" 
d="M524 392q2 -14 3 -16v-27q-1 -3 -3 -23q-6 -95 -14 -146q-9 -54 -60 -110q-9 -9 -21 -14q-7 -2 -11 -11q-41 -78 -130 -80q-59 -2 -101 23q-46 27 -87 59q-32 26 -51 66q-35 75 -40 123v3q-1 4 -1 6q-1 110 12 177q15 74 65 134q35 43 90 55q83 17 142 2q6 -2 16 -1
q39 4 75 -17q46 -28 74 -73q36 -59 42 -130zM390 229q14 48 10 78q-2 17 0 30q2 18 -6 51q-3 14 -23 48q-17 30 -54 62q-5 3 -9 3q-58 0 -91 -14q-10 -4 -14 -11q-37 -60 -42 -104q-1 -4 -6 -70v-21t1.5 -26.5t4.5 -20.5q6 -15 20 -48q8 -20 29 -28q24 -9 39 -16
q16 -7 55 -12q4 0 15 3q6 2 8 8q6 24 31 46q26 23 32 42z" />
    <glyph glyph-name="O" unicode="&#xd2;" horiz-adv-x="536" 
d="M524 392q2 -14 3 -16v-27q-1 -3 -3 -23q-6 -95 -14 -146q-9 -54 -60 -110q-9 -9 -21 -14q-7 -2 -11 -11q-41 -78 -130 -80q-59 -2 -101 23q-46 27 -87 59q-32 26 -51 66q-35 75 -40 123v3q-1 4 -1 6q-1 110 12 177q15 74 65 134q35 43 90 55q83 17 142 2q6 -2 16 -1
q39 4 75 -17q46 -28 74 -73q36 -59 42 -130zM390 229q14 48 10 78q-2 17 0 30q2 18 -6 51q-3 14 -23 48q-17 30 -54 62q-5 3 -9 3q-58 0 -91 -14q-10 -4 -14 -11q-37 -60 -42 -104q-1 -4 -6 -70v-21t1.5 -26.5t4.5 -20.5q6 -15 20 -48q8 -20 29 -28q24 -9 39 -16
q16 -7 55 -12q4 0 15 3q6 2 8 8q6 24 31 46q26 23 32 42z" />
    <glyph glyph-name="P" unicode="P" horiz-adv-x="554" 
d="M544 513q14 -155 -105 -275q-28 -30 -80 -51q-29 -12 -60 -22q-11 -4 -9 -14q3 -20 8 -59q5 -42 1 -79q-2 -21 -11.5 -36t-28.5 -23q-25 -11 -50 -0.5t-35 36.5q-4 10 -5 17q-1 17 -4.5 36.5t-6.5 35t-7.5 36t-7.5 35.5q-11 62 -12 121q-1 29 -7 52t-10 62q-1 13 -2 17
q-13 45 -19 82q-1 6 -7 19q-13 30 -14 55q0 10 -9 10q-35 3 -49.5 36.5t10.5 68.5q19 25 57 46q42 23 101 29q33 3 53 3q49 -1 59 -2q33 -4 58 -20q24 -17 50 -27q33 -14 60 -41l18 -18q57 -47 64 -130zM373 442q4 22 1 61q0 10 -8 18q-2 2 -8.5 9t-9 9.5l-8 8t-9.5 8.5
t-9.5 6.5t-11 6t-11.5 4.5q-3 1 -5 3q-18 17 -50 14h-2.5h-2.5q-9 0 -11 -2.5t0 -11.5q1 -6 3 -13q6 -20 9 -44q2 -25 7 -49q9 -44 8 -70q-1 -43 2 -59q1 -7 3 -8.5t9 0.5q17 5 30 10q61 24 74 99z" />
    <glyph glyph-name="Q" unicode="Q" horiz-adv-x="643" 
d="M621 240q-12 -45 -50 -96q-10 -13 -10 -17.5t8 -17.5q13 -23 24.5 -37t16.5 -30q6 -21 -0.5 -42.5t-23.5 -34.5q-37 -29 -80 -9q-13 7 -22 17q-5 6 -22.5 23.5t-25.5 28.5q-6 8 -15 3q-34 -17 -81 -17q-3 0 -42 -1.5t-41 1.5q-73 8 -135 44q-36 21 -68 69q-26 41 -36 79
t-10 98q-3 70 35 155q15 35 39 63q41 49 78 74q55 39 108 34q3 -1 18 2q80 15 133 1q85 -23 146 -106q2 -3 7 -10t7 -11q40 -51 52 -128q9 -62 -10 -135zM491 291q18 45 -2 103q-2 8 -6.5 16t-7.5 13t-10.5 13.5t-10 11l-12.5 12.5l-11 11q-2 2 -5 3q-36 11 -40 12
q-48 5 -82 2q-12 -1 -42.5 -6t-47.5 -5q-7 -1 -13 -9q-25 -30 -36 -63q-18 -52 -4 -120q19 -92 99 -107q1 0 2.5 -0.5t2.5 -0.5q23 -6 64 -5q-7 24 -8 25q-6 30 13 50.5t50 16.5q17 -2 35 -12q9 -4 34 -24q4 1 9 8q14 19 29 55z" />
    <glyph glyph-name="R" unicode="R" horiz-adv-x="500" 
d="M488 66q7 -22 1 -43t-24 -34q-40 -30 -82 0q-42 31 -117 95q-11 8 -16 10q-3 -40 -4 -44q-5 -23 -13 -37q-17 -30 -48 -30.5t-49 29.5q-16 26 -18 65q-2 36 -9 107t-8 106q-1 10 -2 15q-6 21 -13.5 66t-13.5 68q-2 8 -24 102q-1 3 -13 36q-1 2 -7 8q-31 30 -15 70
q12 30 46 47q21 11 45 15q69 10 116 6q25 -3 50 -15q31 -16 69 -39q17 -10 35 -30q46 -50 58 -85q10 -28 13 -68q7 -93 -23 -161q-21 -48 -61 -83q-12 -11 -12 -14.5t12 -13.5q37 -32 75 -79q7 -9 28 -31q17 -18 24 -38zM267 377q19 33 17 76v17q-1 24 -16 43q-27 34 -50 47
q-8 4 -12 9q-10 11 -32 9q-10 -1 -8 -11q3 -18 4 -25q2 -9 6 -26.5t7.5 -32t5.5 -26.5q5 -30 26 -106q3 -10 13 -7q24 9 39 33z" />
    <glyph glyph-name="S" unicode="S" horiz-adv-x="431" 
d="M421 215q3 -33 1 -54q-8 -94 -83 -146q-38 -26 -71 -34q-25 -6 -47 -6q-69 2 -115 40q-8 7 -24.5 20t-23.5 19q-38 31 -49 86q-6 33 19 55t58 12q29 -8 50 -41q9 -14 34 -27t41 -11q61 6 59 64q-1 21 -18 35q-24 21 -71 30q-49 9 -88 33q-62 38 -66 111q-4 66 26 123
q26 50 70 71.5t98 10.5q16 -3 56 -15q20 -6 36 -20q23 -19 18.5 -46t-31.5 -37q-53 -19 -92 -19q-18 0 -28 -10.5t-10 -29.5q0 -8 7 -12l3.5 -1.5t5.5 -2.5q64 -25 70 -26q44 -11 98 -52q60 -45 67 -120z" />
    <glyph glyph-name="T" unicode="T" horiz-adv-x="594" 
d="M554 746q36 -26 31 -70q-5 -43 -47 -60q-17 -8 -48 -12q-61 -9 -135 -13q-16 -1 -17.5 -3t-0.5 -18q2 -61 2 -76q1 -37 3 -90t3.5 -102.5t0.5 -90.5q0 -23 2.5 -77.5t0.5 -84.5l-2 -38q-5 -33 -28.5 -54t-56.5 -20.5t-56 22.5t-26 55q-1 10 -2 43q0 26 -2 79.5t-2 79.5
t1 80q-6 87 -1 211q0 9 1 28t1 28q1 12 -1 14t-13 3q-70 2 -76 3q-24 4 -38 13q-43 27 -40 75q4 49 50 68q17 7 41 8q53 3 76 3q51 0 90 5q16 2 70 3q134 5 167 4t52 -16z" />
    <glyph glyph-name="U" unicode="U" horiz-adv-x="484" 
d="M475 173q4 -50 -39 -104q-16 -19 -41 -34q-79 -46 -152 -40q-64 4 -117 47q-85 69 -106 166q-5 20 -6 43q-6 124 -6 131q-1 56 14 130q6 34 21 50q23 26 54.5 23.5t49.5 -32.5q11 -17 14 -42q3 -20 4 -35q2 -51 14 -218q4 -53 63 -90q10 -6 25 -3q3 1 34 11q9 3 10 14
q0 13 -7 82q-2 24 -4 69t-3 65q-1 3 -5 90q-1 18 1 34q1 10 4.5 19.5t9.5 16.5t13.5 12.5t16.5 9t19 3.5q25 1 44.5 -15t23.5 -41q23 -158 26 -191q2 -31 14 -82q7 -29 11 -89z" />
    <glyph glyph-name="U" unicode="&#xdc;" horiz-adv-x="484" 
d="M475 173q4 -50 -39 -104q-16 -19 -41 -34q-79 -46 -152 -40q-64 4 -117 47q-85 69 -106 166q-5 20 -6 43q-6 124 -6 131q-1 56 14 130q6 34 21 50q23 26 54.5 23.5t49.5 -32.5q11 -17 14 -42q3 -20 4 -35q2 -51 14 -218q4 -53 63 -90q10 -6 25 -3q3 1 34 11q9 3 10 14
q0 13 -7 82q-2 24 -4 69t-3 65q-1 3 -5 90q-1 18 1 34q1 10 4.5 19.5t9.5 16.5t13.5 12.5t16.5 9t19 3.5q25 1 44.5 -15t23.5 -41q23 -158 26 -191q2 -31 14 -82q7 -29 11 -89z" />
    <glyph glyph-name="U" unicode="&#xdb;" horiz-adv-x="484" 
d="M475 173q4 -50 -39 -104q-16 -19 -41 -34q-79 -46 -152 -40q-64 4 -117 47q-85 69 -106 166q-5 20 -6 43q-6 124 -6 131q-1 56 14 130q6 34 21 50q23 26 54.5 23.5t49.5 -32.5q11 -17 14 -42q3 -20 4 -35q2 -51 14 -218q4 -53 63 -90q10 -6 25 -3q3 1 34 11q9 3 10 14
q0 13 -7 82q-2 24 -4 69t-3 65q-1 3 -5 90q-1 18 1 34q1 10 4.5 19.5t9.5 16.5t13.5 12.5t16.5 9t19 3.5q25 1 44.5 -15t23.5 -41q23 -158 26 -191q2 -31 14 -82q7 -29 11 -89z" />
    <glyph glyph-name="U" unicode="&#xda;" horiz-adv-x="484" 
d="M475 173q4 -50 -39 -104q-16 -19 -41 -34q-79 -46 -152 -40q-64 4 -117 47q-85 69 -106 166q-5 20 -6 43q-6 124 -6 131q-1 56 14 130q6 34 21 50q23 26 54.5 23.5t49.5 -32.5q11 -17 14 -42q3 -20 4 -35q2 -51 14 -218q4 -53 63 -90q10 -6 25 -3q3 1 34 11q9 3 10 14
q0 13 -7 82q-2 24 -4 69t-3 65q-1 3 -5 90q-1 18 1 34q1 10 4.5 19.5t9.5 16.5t13.5 12.5t16.5 9t19 3.5q25 1 44.5 -15t23.5 -41q23 -158 26 -191q2 -31 14 -82q7 -29 11 -89z" />
    <glyph glyph-name="U" unicode="&#xd9;" horiz-adv-x="484" 
d="M475 173q4 -50 -39 -104q-16 -19 -41 -34q-79 -46 -152 -40q-64 4 -117 47q-85 69 -106 166q-5 20 -6 43q-6 124 -6 131q-1 56 14 130q6 34 21 50q23 26 54.5 23.5t49.5 -32.5q11 -17 14 -42q3 -20 4 -35q2 -51 14 -218q4 -53 63 -90q10 -6 25 -3q3 1 34 11q9 3 10 14
q0 13 -7 82q-2 24 -4 69t-3 65q-1 3 -5 90q-1 18 1 34q1 10 4.5 19.5t9.5 16.5t13.5 12.5t16.5 9t19 3.5q25 1 44.5 -15t23.5 -41q23 -158 26 -191q2 -31 14 -82q7 -29 11 -89z" />
    <glyph glyph-name="V" unicode="V" horiz-adv-x="428" 
d="M417 556q2 -10 2 -31q1 -78 -18 -226q-13 -111 -22 -166q-5 -27 -17 -67q-9 -28 -29 -48q-27 -28 -64.5 -26.5t-60.5 32.5q-57 79 -73 112t-42 103q-12 32 -32.5 93t-26.5 79q-17 46 -25 106q-3 21 1 37q8 27 32 37t49 -4q16 -10 27 -27q14 -20 25 -44q46 -102 80 -177
q6 -12 8 -14q3 2 4 7q2 16 6 40t7.5 46t6.5 40q2 14 3.5 30t3 33t3.5 29q4 35 27 53q35 29 76 13q41 -15 49 -60z" />
    <glyph glyph-name="W" unicode="W" horiz-adv-x="804" 
d="M793 623q-4 -13 -4 -28q0 -68 2 -110q2 -20 -5 -96q-10 -118 -36 -217q-12 -48 -40 -127q-3 -9 -9 -19q-19 -29 -49.5 -38t-61.5 4q-56 25 -94 70q-23 29 -59 66q-20 20 -38 48q-7 11 -10 12q-2 -2 -6 -15q-15 -52 -33 -91q-4 -11 -12 -24q-38 -70 -123 -56
q-61 11 -95 68q-14 24 -27 65q-26 77 -50 195q-3 14 -12.5 54.5t-13.5 63.5q-8 46 -9 79q-1 28 4 45q9 29 30 42q19 13 42.5 9t39.5 -22q15 -17 25 -40q7 -17 28 -83q18 -55 56 -213q3 -11 5 -14l3 2q5 13 21.5 51t23.5 59q2 8 0 18q-3 18 2 37q15 47 59 56t78 -28
q7 -7 18 -27q33 -58 65 -98q11 -15 38 -57q6 -8 12.5 -15.5t16 -17t13.5 -14.5q4 3 7 15q18 72 36 180q5 31 9 66t7.5 79.5t5.5 66.5q1 1 0.5 7.5t-0.5 7.5q0 47 39 67q41 21 77 -8t24 -75z" />
    <glyph glyph-name="X" unicode="X" horiz-adv-x="520" 
d="M489 141q36 -45 14 -94q-22 -47 -77 -49q-28 -1 -54 18q-14 11 -21 19q-25 32 -66 75q-33 -71 -67 -130q-4 -6 -11 -19.5t-11 -20.5q-38 -65 -95 -68q-55 -3 -72 56q-9 30 5 69q7 22 14 34q19 32 36 65.5t43 86t33 66.5q-27 34 -99 109q-28 29 -42 55q-14 25 -10.5 50.5
t21.5 43.5t43.5 21.5t49.5 -8.5q17 -9 57 -44q35 -30 69 -66q18 33 61 121q23 48 47 79q23 28 50.5 39t51.5 2q24 -10 34 -35.5t4 -59.5q-5 -24 -30 -87q-39 -96 -98 -198q10 -9 16 -16q46 -44 81 -88q4 -4 11.5 -13t11.5 -13z" />
    <glyph glyph-name="Y" unicode="Y" horiz-adv-x="573" 
d="M556 739q6 -21 9 -75q-6 -82 -29 -138q-4 -11 -50 -125q-1 -1 -2 -3t-1 -4q-30 -77 -106 -121q-14 -7 -13 -23q3 -37 4 -75t0 -95.5t-1 -74.5q0 -34 -19 -62q-27 -38 -72.5 -38t-71.5 39q-19 27 -19 65q-1 98 -1 103q0 62 -4 161q-1 8 -7 17q-4 7 -38.5 56.5t-50.5 76.5
q-22 35 -32 75q-19 71 -33 115q-9 32 -11 59q-1 31 10 53q15 30 45 38.5t58 -8.5q22 -14 40 -44q24 -40 42 -95q5 -14 21 -66q5 -18 17 -34q23 -32 33 -48q8 -11 27 -20q7 -3 10 3q6 11 8 14q15 34 23 52q21 50 38 83q22 40 25 82q1 18 5 45q5 31 27 50q31 26 69 14t50 -52z
" />
    <glyph glyph-name="Y" unicode="&#xdd;" horiz-adv-x="573" 
d="M556 739q6 -21 9 -75q-6 -82 -29 -138q-4 -11 -50 -125q-1 -1 -2 -3t-1 -4q-30 -77 -106 -121q-14 -7 -13 -23q3 -37 4 -75t0 -95.5t-1 -74.5q0 -34 -19 -62q-27 -38 -72.5 -38t-71.5 39q-19 27 -19 65q-1 98 -1 103q0 62 -4 161q-1 8 -7 17q-4 7 -38.5 56.5t-50.5 76.5
q-22 35 -32 75q-19 71 -33 115q-9 32 -11 59q-1 31 10 53q15 30 45 38.5t58 -8.5q22 -14 40 -44q24 -40 42 -95q5 -14 21 -66q5 -18 17 -34q23 -32 33 -48q8 -11 27 -20q7 -3 10 3q6 11 8 14q15 34 23 52q21 50 38 83q22 40 25 82q1 18 5 45q5 31 27 50q31 26 69 14t50 -52z
" />
    <glyph glyph-name="Z" unicode="Z" horiz-adv-x="800" 
d="M788 133q9 -33 -6 -64t-47 -45q-35 -15 -66 -14q-53 1 -166 -17q-91 -14 -123 -15l-7 -2h-200q-2 1 -11 3q-56 9 -75 59t17 93q50 61 88 109q24 31 39 55q19 31 47 64q22 28 60 83q5 7 5 11q-8 3 -24 3q-26 2 -64 5t-73 5.5t-64 2.5q-35 1 -63 15q-46 23 -47 70
q-1 29 18 51t49 25q94 11 181 5q32 -2 55 -2q31 1 57 -2q24 -3 47 1q32 5 78 4q39 0 71 -27q37 -33 32 -83q-3 -26 -19 -55q-19 -35 -52 -85q-66 -98 -104 -144q-18 -23 -49 -71q-2 -4 -1 -7q10 -1 28 2q125 19 130 20q71 11 120 9q6 0 30 4q38 7 68.5 -11.5t40.5 -54.5z
" />
    <glyph glyph-name="bracketleft" unicode="[" horiz-adv-x="243" 
d="M164 0h-24q-25 -1 -38 2q-29 7 -45.5 26.5t-17.5 48.5q0 17 -5 31q-3 10 -8 51q-17 137 -18 279q0 48 8 84q9 44 53 45q26 2 47 -5q9 -3 15 -6q24 -15 21 -40t-29 -34q-1 0 -2 -0.5l-1 -0.5q-8 -2 -9 -4t0 -10q0 -3 1.5 -18.5t2.5 -23.5q1 -25 4 -68.5t5.5 -80t4.5 -68.5
q5 -50 8 -67q1 -6 1.5 -7.5t2.5 -3.5t4 -2t7 -1q24 -2 33 -4q14 -4 24 -11q25 -18 25.5 -48t-24.5 -48q-10 -7 -21.5 -11t-24.5 -5z" />
    <glyph glyph-name="bracketright" unicode="]" horiz-adv-x="244" 
d="M232 206q3 -31 3 -60q-1 -56 1 -72q3 -27 -22 -44q-47 -33 -103 -30q-27 2 -46 22t-19 46t19 45.5t46 22.5h21q8 -1 9.5 0.5t1.5 9.5q-1 15 -9 66q-2 12 -9 50t-10.5 63.5t-4.5 50.5q-1 14 -2.5 43t-2.5 44q0 12 -2.5 34.5t-2.5 33.5q-1 10 -10 9q-19 -2 -35 0
q-13 1 -23 6q-11 6 -17.5 15.5t-6.5 22.5q0 26 25 39q13 6 39 9q6 0 31.5 1.5t38.5 4.5q18 3 33.5 -8.5t21.5 -31.5q4 -12 6 -41q12 -183 12 -191q2 -14 17 -160z" />
    <glyph glyph-name="asciicircum" unicode="^" horiz-adv-x="348" 
d="M172 647q-1 2 -11 19q-18 -44 -20 -47q-11 -27 -20 -40q-14 -23 -37 -30q-31 -10 -54.5 9t-21.5 51q1 13 6 26q18 53 57 133q11 22 34 51q17 23 46 25.5t53 -15.5q11 -8 24 -25q39 -50 62 -96q20 -39 36 -62q12 -18 13 -36q2 -37 -28.5 -56.5t-63.5 -2.5q-13 7 -27 24
q-15 19 -48 72z" />
    <glyph glyph-name="underscore" unicode="_" horiz-adv-x="431" 
d="M177 1q-16 -2 -41 -1q-11 0 -23 1t-28.5 3.5t-24.5 3.5q-12 1 -23 7q-27 14 -29 41t22 45q31 22 69 25q105 6 139 6q8 0 55.5 -1.5t72.5 -1.5q20 1 35 -10t20 -29q4 -19 -4 -36t-27 -26q-22 -11 -50 -12q-3 0 -16.5 -0.5t-20.5 -1.5q-34 -3 -126 -13z" />
    <glyph glyph-name="a" unicode="a" horiz-adv-x="378" 
d="M362 163q-3 -16 1 -25q8 -17 -1 -37q-16 -37 -49 -58q-23 -16 -57 -19q-60 -5 -84 1q-86 22 -110 93q-11 34 -3 78q9 54 49 94q35 34 86 38q27 2 50 -3q4 -1 5 3q2 28 3 50q0 6 -9 16q-22 26 -47 34q-8 3 -19 2q-13 0 -25.5 -3.5t-31 -11t-24.5 -9.5q-3 -1 -10.5 -4.5
t-11.5 -5.5q-21 -6 -39 3.5t-24 29.5q0 1 -3 10v13q1 3 3 11t4 12q19 42 70 62q79 31 163 -7q39 -18 55 -31q34 -27 47 -62q12 -29 13 -66q1 -15 3 -42t3 -40q3 -66 -7 -126zM250 145q6 43 4 64q0 10 1 11q0 8 -8 10q-1 0 -9 1.5t-13 2.5q-24 2 -36 -17q-13 -22 -10 -55
q1 -7 8 -10q9 -5 17.5 -7t23 -3.5t17.5 -2.5q4 -1 5 6z" />
    <glyph glyph-name="a" unicode="&#xe5;" horiz-adv-x="378" 
d="M362 163q-3 -16 1 -25q8 -17 -1 -37q-16 -37 -49 -58q-23 -16 -57 -19q-60 -5 -84 1q-86 22 -110 93q-11 34 -3 78q9 54 49 94q35 34 86 38q27 2 50 -3q4 -1 5 3q2 28 3 50q0 6 -9 16q-22 26 -47 34q-8 3 -19 2q-13 0 -25.5 -3.5t-31 -11t-24.5 -9.5q-3 -1 -10.5 -4.5
t-11.5 -5.5q-21 -6 -39 3.5t-24 29.5q0 1 -3 10v13q1 3 3 11t4 12q19 42 70 62q79 31 163 -7q39 -18 55 -31q34 -27 47 -62q12 -29 13 -66q1 -15 3 -42t3 -40q3 -66 -7 -126zM250 145q6 43 4 64q0 10 1 11q0 8 -8 10q-1 0 -9 1.5t-13 2.5q-24 2 -36 -17q-13 -22 -10 -55
q1 -7 8 -10q9 -5 17.5 -7t23 -3.5t17.5 -2.5q4 -1 5 6z" />
    <glyph glyph-name="a" unicode="&#xe4;" horiz-adv-x="378" 
d="M362 163q-3 -16 1 -25q8 -17 -1 -37q-16 -37 -49 -58q-23 -16 -57 -19q-60 -5 -84 1q-86 22 -110 93q-11 34 -3 78q9 54 49 94q35 34 86 38q27 2 50 -3q4 -1 5 3q2 28 3 50q0 6 -9 16q-22 26 -47 34q-8 3 -19 2q-13 0 -25.5 -3.5t-31 -11t-24.5 -9.5q-3 -1 -10.5 -4.5
t-11.5 -5.5q-21 -6 -39 3.5t-24 29.5q0 1 -3 10v13q1 3 3 11t4 12q19 42 70 62q79 31 163 -7q39 -18 55 -31q34 -27 47 -62q12 -29 13 -66q1 -15 3 -42t3 -40q3 -66 -7 -126zM250 145q6 43 4 64q0 10 1 11q0 8 -8 10q-1 0 -9 1.5t-13 2.5q-24 2 -36 -17q-13 -22 -10 -55
q1 -7 8 -10q9 -5 17.5 -7t23 -3.5t17.5 -2.5q4 -1 5 6z" />
    <glyph glyph-name="a" unicode="&#xe3;" horiz-adv-x="378" 
d="M362 163q-3 -16 1 -25q8 -17 -1 -37q-16 -37 -49 -58q-23 -16 -57 -19q-60 -5 -84 1q-86 22 -110 93q-11 34 -3 78q9 54 49 94q35 34 86 38q27 2 50 -3q4 -1 5 3q2 28 3 50q0 6 -9 16q-22 26 -47 34q-8 3 -19 2q-13 0 -25.5 -3.5t-31 -11t-24.5 -9.5q-3 -1 -10.5 -4.5
t-11.5 -5.5q-21 -6 -39 3.5t-24 29.5q0 1 -3 10v13q1 3 3 11t4 12q19 42 70 62q79 31 163 -7q39 -18 55 -31q34 -27 47 -62q12 -29 13 -66q1 -15 3 -42t3 -40q3 -66 -7 -126zM250 145q6 43 4 64q0 10 1 11q0 8 -8 10q-1 0 -9 1.5t-13 2.5q-24 2 -36 -17q-13 -22 -10 -55
q1 -7 8 -10q9 -5 17.5 -7t23 -3.5t17.5 -2.5q4 -1 5 6z" />
    <glyph glyph-name="a" unicode="&#xe2;" horiz-adv-x="378" 
d="M362 163q-3 -16 1 -25q8 -17 -1 -37q-16 -37 -49 -58q-23 -16 -57 -19q-60 -5 -84 1q-86 22 -110 93q-11 34 -3 78q9 54 49 94q35 34 86 38q27 2 50 -3q4 -1 5 3q2 28 3 50q0 6 -9 16q-22 26 -47 34q-8 3 -19 2q-13 0 -25.5 -3.5t-31 -11t-24.5 -9.5q-3 -1 -10.5 -4.5
t-11.5 -5.5q-21 -6 -39 3.5t-24 29.5q0 1 -3 10v13q1 3 3 11t4 12q19 42 70 62q79 31 163 -7q39 -18 55 -31q34 -27 47 -62q12 -29 13 -66q1 -15 3 -42t3 -40q3 -66 -7 -126zM250 145q6 43 4 64q0 10 1 11q0 8 -8 10q-1 0 -9 1.5t-13 2.5q-24 2 -36 -17q-13 -22 -10 -55
q1 -7 8 -10q9 -5 17.5 -7t23 -3.5t17.5 -2.5q4 -1 5 6z" />
    <glyph glyph-name="a" unicode="&#xe1;" horiz-adv-x="378" 
d="M362 163q-3 -16 1 -25q8 -17 -1 -37q-16 -37 -49 -58q-23 -16 -57 -19q-60 -5 -84 1q-86 22 -110 93q-11 34 -3 78q9 54 49 94q35 34 86 38q27 2 50 -3q4 -1 5 3q2 28 3 50q0 6 -9 16q-22 26 -47 34q-8 3 -19 2q-13 0 -25.5 -3.5t-31 -11t-24.5 -9.5q-3 -1 -10.5 -4.5
t-11.5 -5.5q-21 -6 -39 3.5t-24 29.5q0 1 -3 10v13q1 3 3 11t4 12q19 42 70 62q79 31 163 -7q39 -18 55 -31q34 -27 47 -62q12 -29 13 -66q1 -15 3 -42t3 -40q3 -66 -7 -126zM250 145q6 43 4 64q0 10 1 11q0 8 -8 10q-1 0 -9 1.5t-13 2.5q-24 2 -36 -17q-13 -22 -10 -55
q1 -7 8 -10q9 -5 17.5 -7t23 -3.5t17.5 -2.5q4 -1 5 6z" />
    <glyph glyph-name="a" unicode="&#xe0;" horiz-adv-x="378" 
d="M362 163q-3 -16 1 -25q8 -17 -1 -37q-16 -37 -49 -58q-23 -16 -57 -19q-60 -5 -84 1q-86 22 -110 93q-11 34 -3 78q9 54 49 94q35 34 86 38q27 2 50 -3q4 -1 5 3q2 28 3 50q0 6 -9 16q-22 26 -47 34q-8 3 -19 2q-13 0 -25.5 -3.5t-31 -11t-24.5 -9.5q-3 -1 -10.5 -4.5
t-11.5 -5.5q-21 -6 -39 3.5t-24 29.5q0 1 -3 10v13q1 3 3 11t4 12q19 42 70 62q79 31 163 -7q39 -18 55 -31q34 -27 47 -62q12 -29 13 -66q1 -15 3 -42t3 -40q3 -66 -7 -126zM250 145q6 43 4 64q0 10 1 11q0 8 -8 10q-1 0 -9 1.5t-13 2.5q-24 2 -36 -17q-13 -22 -10 -55
q1 -7 8 -10q9 -5 17.5 -7t23 -3.5t17.5 -2.5q4 -1 5 6z" />
    <glyph glyph-name="b" unicode="b" horiz-adv-x="469" 
d="M458 185q14 -85 -41 -156q-21 -27 -33 -40q-27 -27 -70 -44q-35 -14 -76 -11q-53 -2 -96 22q-20 11 -29 25q-4 7 -9 10q-27 16 -32 54q-1 16 -6.5 48t-7.5 48q-13 110 -15 131q0 13 -1 50.5t-3 58.5q-1 12 -4.5 46t-5.5 53q-1 7 -12 38q-12 36 -8 76q1 18 11.5 30
t27.5 14q28 4 47 -24q8 -13 23 -57q13 -38 16 -101q1 -29 16 -89q3 -11 6 -21q1 -6 5 -3q59 40 145 21q36 -9 70 -36q67 -55 82 -143zM325 123q10 27 -9 59q-29 51 -85 46q-8 -1 -15 -4q-30 -14 -34 -49q-2 -27 -2 -33.5t2.5 -33.5t3.5 -34q0 -4 6 -6q24 -9 37 -7
q45 -2 78 37q14 17 18 25z" />
    <glyph glyph-name="c" unicode="c" horiz-adv-x="433" 
d="M364 229q26 4 44.5 -14t15.5 -44q-2 -25 -22 -48q-41 -46 -96 -65q-53 -18 -114 -3q-44 12 -90 40q-29 19 -51 57q-31 55 -40 114q-9 55 11 118q13 43 34 72q25 35 72 52q41 15 97 16q35 -1 49 -5q32 -9 45 -30q13 -23 2 -46t-37 -28q-11 -2 -32 -4t-25 -2
q-34 -4 -55 -13q-10 -4 -13 -12q-21 -47 -21 -78q-1 -34 24 -78q18 -31 71 -43q43 -9 91 23q27 19 40 21z" />
    <glyph glyph-name="c" unicode="&#xe7;" horiz-adv-x="433" 
d="M364 229q26 4 44.5 -14t15.5 -44q-2 -25 -22 -48q-41 -46 -96 -65q-53 -18 -114 -3q-44 12 -90 40q-29 19 -51 57q-31 55 -40 114q-9 55 11 118q13 43 34 72q25 35 72 52q41 15 97 16q35 -1 49 -5q32 -9 45 -30q13 -23 2 -46t-37 -28q-11 -2 -32 -4t-25 -2
q-34 -4 -55 -13q-10 -4 -13 -12q-21 -47 -21 -78q-1 -34 24 -78q18 -31 71 -43q43 -9 91 23q27 19 40 21z" />
    <glyph glyph-name="d" unicode="d" horiz-adv-x="393" 
d="M376 156q6 -29 8 -88q1 -30 -22 -54q-30 -30 -40 -37q-57 -35 -125 -26q-65 9 -121 50q-42 31 -59 86q-10 33 -9 73q5 66 21 103q32 73 96 106q46 24 81 24q24 0 42 -4q6 -1 7.5 0t0.5 8q-2 14 -6 47t-6 51q0 1 -2.5 15.5t-2.5 21.5q0 6 -1.5 28.5t1.5 28.5
q5 23 28.5 31.5t41.5 -5.5q22 -17 25 -49q1 -12 5 -38.5t5 -40.5q7 -90 10 -137q9 -127 22 -194zM255 84q17 2 25 8.5t6 23.5v5q0 14 -3 31q-11 73 -11 82q-2 32 -3 43q-1 8 -5 8q-16 1 -21 1q-23 -1 -54 -19q-38 -23 -45 -54q-9 -37 -2 -69q5 -20 18 -30q44 -37 95 -30z
" />
    <glyph glyph-name="e" unicode="e" horiz-adv-x="443" 
d="M433 210q5 -47 -12 -81q-22 -47 -59 -76q-36 -28 -92 -34q-48 -4 -67 -2q-60 9 -101 49q-44 42 -64 85q-42 90 -25 180q1 5 3.5 27t6.5 34q2 7 6.5 23t9 28t10.5 22q8 13 22 29q33 38 56 48q32 13 59 14h29.5h29.5q49 1 87 -33q35 -30 58 -71t22 -106q0 -25 -16 -43
q-17 -19 -35 -19q-25 1 -74 -14q-29 -9 -86 -6h-51q-8 0 -6 -7q10 -35 33 -62q24 -29 39 -37q44 -27 87 -9q36 15 44 50q4 17 11 27q16 24 44 18q12 -2 21 -12t10 -22zM135 369q-1 -3 0 -4t4 -1q25 6 72 6q37 0 64 6q9 2 11 4.5t1 11.5l-2 8q-7 16 -13 25q-1 1 -3 4t-2.5 4
t-3 3.5l-3 3l-3 3t-3.5 2.5t-3.5 2t-4 1t-4.5 0q-25 -2 -50 -8q-9 -2 -17 -11q-3 -3 -13 -16q-19 -22 -27 -44z" />
    <glyph glyph-name="e" unicode="&#xeb;" horiz-adv-x="443" 
d="M433 210q5 -47 -12 -81q-22 -47 -59 -76q-36 -28 -92 -34q-48 -4 -67 -2q-60 9 -101 49q-44 42 -64 85q-42 90 -25 180q1 5 3.5 27t6.5 34q2 7 6.5 23t9 28t10.5 22q8 13 22 29q33 38 56 48q32 13 59 14h29.5h29.5q49 1 87 -33q35 -30 58 -71t22 -106q0 -25 -16 -43
q-17 -19 -35 -19q-25 1 -74 -14q-29 -9 -86 -6h-51q-8 0 -6 -7q10 -35 33 -62q24 -29 39 -37q44 -27 87 -9q36 15 44 50q4 17 11 27q16 24 44 18q12 -2 21 -12t10 -22zM135 369q-1 -3 0 -4t4 -1q25 6 72 6q37 0 64 6q9 2 11 4.5t1 11.5l-2 8q-7 16 -13 25q-1 1 -3 4t-2.5 4
t-3 3.5l-3 3l-3 3t-3.5 2.5t-3.5 2t-4 1t-4.5 0q-25 -2 -50 -8q-9 -2 -17 -11q-3 -3 -13 -16q-19 -22 -27 -44z" />
    <glyph glyph-name="e" unicode="&#xea;" horiz-adv-x="443" 
d="M433 210q5 -47 -12 -81q-22 -47 -59 -76q-36 -28 -92 -34q-48 -4 -67 -2q-60 9 -101 49q-44 42 -64 85q-42 90 -25 180q1 5 3.5 27t6.5 34q2 7 6.5 23t9 28t10.5 22q8 13 22 29q33 38 56 48q32 13 59 14h29.5h29.5q49 1 87 -33q35 -30 58 -71t22 -106q0 -25 -16 -43
q-17 -19 -35 -19q-25 1 -74 -14q-29 -9 -86 -6h-51q-8 0 -6 -7q10 -35 33 -62q24 -29 39 -37q44 -27 87 -9q36 15 44 50q4 17 11 27q16 24 44 18q12 -2 21 -12t10 -22zM135 369q-1 -3 0 -4t4 -1q25 6 72 6q37 0 64 6q9 2 11 4.5t1 11.5l-2 8q-7 16 -13 25q-1 1 -3 4t-2.5 4
t-3 3.5l-3 3l-3 3t-3.5 2.5t-3.5 2t-4 1t-4.5 0q-25 -2 -50 -8q-9 -2 -17 -11q-3 -3 -13 -16q-19 -22 -27 -44z" />
    <glyph glyph-name="e" unicode="&#xe9;" horiz-adv-x="443" 
d="M433 210q5 -47 -12 -81q-22 -47 -59 -76q-36 -28 -92 -34q-48 -4 -67 -2q-60 9 -101 49q-44 42 -64 85q-42 90 -25 180q1 5 3.5 27t6.5 34q2 7 6.5 23t9 28t10.5 22q8 13 22 29q33 38 56 48q32 13 59 14h29.5h29.5q49 1 87 -33q35 -30 58 -71t22 -106q0 -25 -16 -43
q-17 -19 -35 -19q-25 1 -74 -14q-29 -9 -86 -6h-51q-8 0 -6 -7q10 -35 33 -62q24 -29 39 -37q44 -27 87 -9q36 15 44 50q4 17 11 27q16 24 44 18q12 -2 21 -12t10 -22zM135 369q-1 -3 0 -4t4 -1q25 6 72 6q37 0 64 6q9 2 11 4.5t1 11.5l-2 8q-7 16 -13 25q-1 1 -3 4t-2.5 4
t-3 3.5l-3 3l-3 3t-3.5 2.5t-3.5 2t-4 1t-4.5 0q-25 -2 -50 -8q-9 -2 -17 -11q-3 -3 -13 -16q-19 -22 -27 -44z" />
    <glyph glyph-name="e" unicode="&#xe8;" horiz-adv-x="443" 
d="M433 210q5 -47 -12 -81q-22 -47 -59 -76q-36 -28 -92 -34q-48 -4 -67 -2q-60 9 -101 49q-44 42 -64 85q-42 90 -25 180q1 5 3.5 27t6.5 34q2 7 6.5 23t9 28t10.5 22q8 13 22 29q33 38 56 48q32 13 59 14h29.5h29.5q49 1 87 -33q35 -30 58 -71t22 -106q0 -25 -16 -43
q-17 -19 -35 -19q-25 1 -74 -14q-29 -9 -86 -6h-51q-8 0 -6 -7q10 -35 33 -62q24 -29 39 -37q44 -27 87 -9q36 15 44 50q4 17 11 27q16 24 44 18q12 -2 21 -12t10 -22zM135 369q-1 -3 0 -4t4 -1q25 6 72 6q37 0 64 6q9 2 11 4.5t1 11.5l-2 8q-7 16 -13 25q-1 1 -3 4t-2.5 4
t-3 3.5l-3 3l-3 3t-3.5 2.5t-3.5 2t-4 1t-4.5 0q-25 -2 -50 -8q-9 -2 -17 -11q-3 -3 -13 -16q-19 -22 -27 -44z" />
    <glyph glyph-name="f" unicode="f" horiz-adv-x="414" 
d="M405 468q2 -58 -8 -89q-12 -33 -50 -36q-9 -1 -19 2.5t-18.5 10.5t-12.5 16q-8 14 -10 44q-2 18 -2 31q-1 13 -7 23q-2 4 -5 9.5t-5.5 11t-5.5 9.5q-5 6 -13 9q-45 12 -86 -24q-11 -10 -31 -36q-4 -5 -6 -17q-3 -23 2 -71q2 -13 5.5 -37.5t4.5 -32.5q1 -7 8 -7q13 1 34 2
t39 2t34 3q12 2 24 -1.5t22 -11.5t15 -18q9 -18 7 -37t-15 -33q-12 -12 -36 -21q-29 -10 -101 -15q-19 -1 -20.5 -2.5t-0.5 -19.5q0 -1 6 -112q2 -38 -7 -62q-8 -22 -29 -29.5t-38 5.5q-15 10 -24 36q-32 93 -35 213q-1 12 1 94q1 17 -3 55q-6 78 -10 107q-6 50 27 97
q24 32 40 46q62 58 126 63l3 1h29q25 -4 66 -24q32 -15 54 -47q19 -26 41 -70q9 -16 10 -37z" />
    <glyph glyph-name="g" unicode="g" horiz-adv-x="442" 
d="M432 187q7 -76 -40 -141q-6 -9 -20 -24q-33 -35 -49 -47q-46 -32 -92 -31h-22q-52 -2 -108 19q-11 4 -34 22q-41 33 -56 87q-9 30 10 50q14 14 31.5 14t31.5 -13q11 -10 16 -20q14 -30 54 -38q30 -7 75 -2q16 2 25 18q3 5 12.5 20t14.5 26t8 22q6 23 7 26q1 4 -0.5 5
t-5.5 0q-17 -3 -51 -7q-44 -4 -95 15q-39 15 -72 44q-22 21 -36 60q-12 34 -13 69q-1 67 7 96q20 70 60 111q69 71 169 59q36 -5 60 -16q7 -3 12 -6q10 -7 27 -17t28 -39q20 -57 27 -134q2 -24 4.5 -74.5t5.5 -76.5q1 -12 4.5 -37.5t4.5 -39.5zM294 317q8 5 6 14
q-1 8 -3.5 27t-4.5 29q-12 80 -9 117q0 5 -1.5 6.5t-6.5 0.5q-37 -2 -70 -18q-15 -7 -23 -23q-22 -40 -19 -83q1 -26 1 -32q3 -20 23 -31q24 -13 69 -18q18 -2 38 11z" />
    <glyph glyph-name="h" unicode="h" horiz-adv-x="439" 
d="M428 89q3 -27 2 -51q-2 -40 -3 -46q-5 -25 -23.5 -41t-42.5 -15q-25 0 -42.5 17t-20.5 42q-2 15 -3 32t-1.5 37t-1.5 32q-5 66 -11 90q-1 5 -3 24q0 6 -2 12q-10 26 -44 12q-40 -17 -53 -63q-1 -3 0 -19q0 -8 1 -17.5t1.5 -17t1.5 -17.5t2 -17q2 -34 -1 -68
q-3 -32 -28 -48t-54 -4q-34 13 -41 53q-6 32 -10 113q-4 107 -6 121q-10 97 -16 139q-8 52 -13 93.5t-7 81.5q-2 29 3 44q8 23 30 27.5t39 -11.5q15 -14 24 -43q19 -51 31 -136q1 -3 13 -92v-2q1 -2 1 -3q0 -6 6 -3q1 0 10 5t14 7q57 24 120 -10q35 -19 57 -41
q37 -38 50 -92q10 -42 21 -125z" />
    <glyph glyph-name="i" unicode="i" horiz-adv-x="229" 
d="M214 141q6 -58 6 -64q0 -40 -16 -62q-13 -18 -32.5 -21.5t-37.5 11.5q-11 10 -18 33q-20 63 -31 167q-1 14 -3 31.5t-4.5 36t-4.5 31.5q-1 5 -2.5 16.5t-2.5 18.5q-3 37 27 55q31 18 61 -3q22 -15 24 -41q1 -22 14 -77q12 -49 20 -132zM134 494q-6 -19 -24 -30t-37 -8
q-25 4 -40 14q-25 15 -25 49q1 34 33 52q33 18 64 -4q18 -12 26 -33t3 -40z" />
    <glyph glyph-name="i" unicode="&#xef;" horiz-adv-x="229" 
d="M214 141q6 -58 6 -64q0 -40 -16 -62q-13 -18 -32.5 -21.5t-37.5 11.5q-11 10 -18 33q-20 63 -31 167q-1 14 -3 31.5t-4.5 36t-4.5 31.5q-1 5 -2.5 16.5t-2.5 18.5q-3 37 27 55q31 18 61 -3q22 -15 24 -41q1 -22 14 -77q12 -49 20 -132zM134 494q-6 -19 -24 -30t-37 -8
q-25 4 -40 14q-25 15 -25 49q1 34 33 52q33 18 64 -4q18 -12 26 -33t3 -40z" />
    <glyph glyph-name="i" unicode="&#xee;" horiz-adv-x="229" 
d="M214 141q6 -58 6 -64q0 -40 -16 -62q-13 -18 -32.5 -21.5t-37.5 11.5q-11 10 -18 33q-20 63 -31 167q-1 14 -3 31.5t-4.5 36t-4.5 31.5q-1 5 -2.5 16.5t-2.5 18.5q-3 37 27 55q31 18 61 -3q22 -15 24 -41q1 -22 14 -77q12 -49 20 -132zM134 494q-6 -19 -24 -30t-37 -8
q-25 4 -40 14q-25 15 -25 49q1 34 33 52q33 18 64 -4q18 -12 26 -33t3 -40z" />
    <glyph glyph-name="i" unicode="&#xed;" horiz-adv-x="229" 
d="M214 141q6 -58 6 -64q0 -40 -16 -62q-13 -18 -32.5 -21.5t-37.5 11.5q-11 10 -18 33q-20 63 -31 167q-1 14 -3 31.5t-4.5 36t-4.5 31.5q-1 5 -2.5 16.5t-2.5 18.5q-3 37 27 55q31 18 61 -3q22 -15 24 -41q1 -22 14 -77q12 -49 20 -132zM134 494q-6 -19 -24 -30t-37 -8
q-25 4 -40 14q-25 15 -25 49q1 34 33 52q33 18 64 -4q18 -12 26 -33t3 -40z" />
    <glyph glyph-name="i" unicode="&#xec;" horiz-adv-x="229" 
d="M214 141q6 -58 6 -64q0 -40 -16 -62q-13 -18 -32.5 -21.5t-37.5 11.5q-11 10 -18 33q-20 63 -31 167q-1 14 -3 31.5t-4.5 36t-4.5 31.5q-1 5 -2.5 16.5t-2.5 18.5q-3 37 27 55q31 18 61 -3q22 -15 24 -41q1 -22 14 -77q12 -49 20 -132zM134 494q-6 -19 -24 -30t-37 -8
q-25 4 -40 14q-25 15 -25 49q1 34 33 52q33 18 64 -4q18 -12 26 -33t3 -40z" />
    <glyph glyph-name="j" unicode="j" horiz-adv-x="343" 
d="M324 274q14 -51 10 -130q-2 -49 -4 -63q-4 -39 -33 -84q-18 -28 -52 -57q-13 -11 -56 -26q-26 -9 -74 -1q-42 7 -63 18q-38 20 -43 54q-5 31 17 48.5t51 6.5q8 -3 12 -5q21 -10 49 -4t39 20q22 28 22 52q-1 82 -8 112q-1 9 -4.5 19t-6 18t-6 18.5t-5.5 18.5
q-4 13 -11.5 36.5t-13 43t-8.5 37.5q-7 34 8 59q13 21 38.5 26.5t46.5 -8.5q26 -16 42 -51q22 -46 53 -158zM152 528q-28 1 -47.5 19t-19.5 46q1 28 19.5 49t47.5 21q27 1 44.5 -18t17.5 -48t-18 -49t-44 -20z" />
    <glyph glyph-name="k" unicode="k" horiz-adv-x="494" 
d="M337 315q-7 -8 -46 -47q-6 -6 -6 -8.5t5 -8.5q35 -44 57 -65q18 -16 50 -52t48 -52q16 -15 19.5 -35t-5.5 -37q-11 -21 -33 -29.5t-45 -0.5q-18 7 -41 32q-17 19 -31 36q-6 6 -18 25q-6 8 -18.5 23t-17.5 22q-3 3 -47 63q-4 5 -7 3q-6 -2 -5 -8q4 -26 8 -76.5t4 -55.5
q1 -4 2.5 -16.5t1.5 -16.5t-1 -16q-2 -16 -11 -29.5t-22.5 -21.5t-29.5 -8q-35 -1 -58 30q-15 20 -22 68q-3 17 -5 49.5t-3 43.5q-11 112 -12 120q-5 36 -12 66q-4 15 -4 27q1 35 -13 116q-9 55 -11 85q-2 43 14 66q19 29 54 29q15 0 29 -7t23.5 -19t13.5 -28q3 -11 14 -84
q8 -61 15 -147q0 -5 1 -5q1 -1 4 4q10 11 22 23.5t27.5 27.5t23.5 23l61 61q29 27 61 53q2 3 6.5 7.5t6.5 5.5q28 26 61 15q35 -12 40 -49q2 -24 -16 -50q-22 -29 -60 -69q-38 -38 -72 -83z" />
    <glyph glyph-name="l" unicode="l" horiz-adv-x="194" 
d="M184 17q1 -2 1 -5v-4q-1 -30 -14 -46t-35.5 -19t-39.5 9q-16 12 -24 40q-6 19 -11 67q-1 14 -5.5 45t-5.5 48q0 6 -1 18.5t-2 22.5t-2 19q-1 16 -7 46t-7 38q-10 59 -12 100q-1 12 -4 34.5t-4 30.5q-6 68 1 111q5 30 28 47q21 15 46 9t37 -29q11 -19 14 -52
q2 -23 8.5 -65.5t8.5 -58.5q3 -22 7 -64t7 -61q4 -34 5.5 -96t2.5 -85q1 -7 8 -100z" />
    <glyph glyph-name="m" unicode="m" horiz-adv-x="504" 
d="M495 79q3 -41 -26 -60q-33 -22 -67 0q-23 15 -25.5 42t-11 86t-10.5 90q-5 60 -11 87q-1 5 -3 8q-13 -29 -22 -47q-14 -23 -21 -32q-31 -34 -74 -14q-42 19 -65 42q-1 1 -19 22q-2 -3 -2 -11q3 -79 -3 -123q-6 -40 -15 -61q-16 -37 -50 -34q-24 2 -38 26q-10 17 -12 45
q-9 109 -9 218q0 36 -3 72q0 7 1 23.5t0 23.5q-3 21 7 39q14 28 43.5 33t51.5 -16q8 -8 16.5 -18t13 -16.5t14 -20.5t12.5 -19q36 -51 55 -68l4 -4t4.5 -4t4.5 -4q6 -6 11 2q22 39 46 88q15 32 43 67q21 26 51.5 22.5t44.5 -32.5q7 -14 17 -57q17 -71 26 -203q1 -16 4.5 -47
t4.5 -48q1 -15 6 -47.5t6 -49.5z" />
    <glyph glyph-name="n" unicode="n" horiz-adv-x="373" 
d="M364 187q2 -33 -8 -56q-12 -27 -38.5 -34.5t-52.5 7.5q-20 11 -48 44q-12 15 -34.5 45.5t-34.5 45.5q-1 0 -2 2q-2 4 -4 3t-3 -8q-6 -44 -18 -76q-9 -25 -26 -37q-24 -17 -53 -5t-33 43q-1 14 -1 19.5t1.5 19.5t1.5 19q2 22 4.5 47t6 55t5.5 47q4 30 11 59
q9 33 41.5 41.5t56.5 -15.5q62 -64 86 -104q0 -1 11 -17q0 32 -7 63q-6 27 0 44q13 35 47 39q16 1 30 -7t22 -23q9 -17 17 -62q13 -69 22 -199z" />
    <glyph glyph-name="n" unicode="&#xf1;" horiz-adv-x="373" 
d="M364 187q2 -33 -8 -56q-12 -27 -38.5 -34.5t-52.5 7.5q-20 11 -48 44q-12 15 -34.5 45.5t-34.5 45.5q-1 0 -2 2q-2 4 -4 3t-3 -8q-6 -44 -18 -76q-9 -25 -26 -37q-24 -17 -53 -5t-33 43q-1 14 -1 19.5t1.5 19.5t1.5 19q2 22 4.5 47t6 55t5.5 47q4 30 11 59
q9 33 41.5 41.5t56.5 -15.5q62 -64 86 -104q0 -1 11 -17q0 32 -7 63q-6 27 0 44q13 35 47 39q16 1 30 -7t22 -23q9 -17 17 -62q13 -69 22 -199z" />
    <glyph glyph-name="o" unicode="o" horiz-adv-x="421" 
d="M411 333q0 -2 2 -31q0 -80 -32 -136q-49 -88 -143 -98q-46 -5 -79 0q-28 3 -72 34q-34 23 -61 86q-26 59 -15 139q6 42 18 67q10 24 28 44q15 18 32 29q25 17 66 19q5 0 34 1q7 0 10 3q25 24 65 13q62 -16 101 -59q45 -49 46 -111zM303 331q1 22 -12 38q0 1 -1.5 3
t-2.5 3q-32 37 -65 27q-1 0 -2 -0.5t-2 -0.5q-44 -7 -62 -13q-12 -4 -15 -9q-14 -20 -15 -36q-3 -44 -1 -71q1 -24 19 -43q34 -37 76 -35q22 0 31.5 4t16.5 17q30 54 35 116z" />
    <glyph glyph-name="o" unicode="&#xf8;" horiz-adv-x="421" 
d="M411 333q0 -2 2 -31q0 -80 -32 -136q-49 -88 -143 -98q-46 -5 -79 0q-28 3 -72 34q-34 23 -61 86q-26 59 -15 139q6 42 18 67q10 24 28 44q15 18 32 29q25 17 66 19q5 0 34 1q7 0 10 3q25 24 65 13q62 -16 101 -59q45 -49 46 -111zM303 331q1 22 -12 38q0 1 -1.5 3
t-2.5 3q-32 37 -65 27q-1 0 -2 -0.5t-2 -0.5q-44 -7 -62 -13q-12 -4 -15 -9q-14 -20 -15 -36q-3 -44 -1 -71q1 -24 19 -43q34 -37 76 -35q22 0 31.5 4t16.5 17q30 54 35 116z" />
    <glyph glyph-name="o" unicode="&#xf6;" horiz-adv-x="421" 
d="M411 333q0 -2 2 -31q0 -80 -32 -136q-49 -88 -143 -98q-46 -5 -79 0q-28 3 -72 34q-34 23 -61 86q-26 59 -15 139q6 42 18 67q10 24 28 44q15 18 32 29q25 17 66 19q5 0 34 1q7 0 10 3q25 24 65 13q62 -16 101 -59q45 -49 46 -111zM303 331q1 22 -12 38q0 1 -1.5 3
t-2.5 3q-32 37 -65 27q-1 0 -2 -0.5t-2 -0.5q-44 -7 -62 -13q-12 -4 -15 -9q-14 -20 -15 -36q-3 -44 -1 -71q1 -24 19 -43q34 -37 76 -35q22 0 31.5 4t16.5 17q30 54 35 116z" />
    <glyph glyph-name="o" unicode="&#xf5;" horiz-adv-x="421" 
d="M411 333q0 -2 2 -31q0 -80 -32 -136q-49 -88 -143 -98q-46 -5 -79 0q-28 3 -72 34q-34 23 -61 86q-26 59 -15 139q6 42 18 67q10 24 28 44q15 18 32 29q25 17 66 19q5 0 34 1q7 0 10 3q25 24 65 13q62 -16 101 -59q45 -49 46 -111zM303 331q1 22 -12 38q0 1 -1.5 3
t-2.5 3q-32 37 -65 27q-1 0 -2 -0.5t-2 -0.5q-44 -7 -62 -13q-12 -4 -15 -9q-14 -20 -15 -36q-3 -44 -1 -71q1 -24 19 -43q34 -37 76 -35q22 0 31.5 4t16.5 17q30 54 35 116z" />
    <glyph glyph-name="o" unicode="&#xf4;" horiz-adv-x="421" 
d="M411 333q0 -2 2 -31q0 -80 -32 -136q-49 -88 -143 -98q-46 -5 -79 0q-28 3 -72 34q-34 23 -61 86q-26 59 -15 139q6 42 18 67q10 24 28 44q15 18 32 29q25 17 66 19q5 0 34 1q7 0 10 3q25 24 65 13q62 -16 101 -59q45 -49 46 -111zM303 331q1 22 -12 38q0 1 -1.5 3
t-2.5 3q-32 37 -65 27q-1 0 -2 -0.5t-2 -0.5q-44 -7 -62 -13q-12 -4 -15 -9q-14 -20 -15 -36q-3 -44 -1 -71q1 -24 19 -43q34 -37 76 -35q22 0 31.5 4t16.5 17q30 54 35 116z" />
    <glyph glyph-name="o" unicode="&#xf3;" horiz-adv-x="421" 
d="M411 333q0 -2 2 -31q0 -80 -32 -136q-49 -88 -143 -98q-46 -5 -79 0q-28 3 -72 34q-34 23 -61 86q-26 59 -15 139q6 42 18 67q10 24 28 44q15 18 32 29q25 17 66 19q5 0 34 1q7 0 10 3q25 24 65 13q62 -16 101 -59q45 -49 46 -111zM303 331q1 22 -12 38q0 1 -1.5 3
t-2.5 3q-32 37 -65 27q-1 0 -2 -0.5t-2 -0.5q-44 -7 -62 -13q-12 -4 -15 -9q-14 -20 -15 -36q-3 -44 -1 -71q1 -24 19 -43q34 -37 76 -35q22 0 31.5 4t16.5 17q30 54 35 116z" />
    <glyph glyph-name="o" unicode="&#xf2;" horiz-adv-x="421" 
d="M411 333q0 -2 2 -31q0 -80 -32 -136q-49 -88 -143 -98q-46 -5 -79 0q-28 3 -72 34q-34 23 -61 86q-26 59 -15 139q6 42 18 67q10 24 28 44q15 18 32 29q25 17 66 19q5 0 34 1q7 0 10 3q25 24 65 13q62 -16 101 -59q45 -49 46 -111zM303 331q1 22 -12 38q0 1 -1.5 3
t-2.5 3q-32 37 -65 27q-1 0 -2 -0.5t-2 -0.5q-44 -7 -62 -13q-12 -4 -15 -9q-14 -20 -15 -36q-3 -44 -1 -71q1 -24 19 -43q34 -37 76 -35q22 0 31.5 4t16.5 17q30 54 35 116z" />
    <glyph glyph-name="p" unicode="p" horiz-adv-x="333" 
d="M304 445q21 -44 21 -86q-2 -49 -28 -97q-20 -37 -37 -54q-35 -38 -89 -52q-21 -5 -23 -6q-9 -1 -10 -11q-2 -36 -3 -52q-3 -37 -15 -54q-10 -17 -25 -21q-25 -8 -43 14q-21 24 -26 69q-5 48 -3 94q2 57 -5 154q0 6 -3.5 44t-3.5 58q0 4 -2 12q-7 41 27 68q37 29 84 36
q49 7 96 -21q61 -37 88 -95zM187 307q15 26 13 41q-3 46 -29 65q-21 17 -41 18q-11 0 -8 -9q4 -40 4 -43q5 -48 9 -93q1 -8 8 -7q34 3 42 25l0.5 1.5t1.5 1.5z" />
    <glyph glyph-name="q" unicode="q" horiz-adv-x="378" 
d="M369 43q3 -37 -17 -57q-12 -12 -30 -11t-29 15q-15 19 -19 50q-3 21 -12.5 60t-11.5 49q-1 2 -3 11.5t-3 15.5q-2 9 -10 5q-41 -15 -82 -5q-68 17 -100 54q-14 16 -29 52q-33 81 8 175q20 47 32 63q21 29 39 43q22 18 51 22q8 1 15 4q20 8 36 8q46 0 73 -24
q11 -11 17 -37q14 -63 26 -135q4 -22 8 -47.5t8 -53.5t7 -47q13 -83 13 -100q1 -16 3.5 -35t5.5 -40t4 -35zM208 300q12 3 11 13q-2 8 -2.5 18t-1.5 21t-2 18q-9 83 -14 133q0 9 -9 6q-37 -14 -50 -49q-10 -29 -9 -59q-1 -39 15 -73q18 -38 62 -28z" />
    <glyph glyph-name="r" unicode="r" horiz-adv-x="294" 
d="M281 496q12 -31 -8 -58q-16 -20 -41 -22q-11 -1 -21 -1q-26 0 -52 -20q-6 -5 -16 -14t-12 -11q-5 -4 -4 -10q3 -30 12 -84.5t11 -69.5q4 -28 11 -91q3 -26 -2 -45q-8 -28 -29 -33q-30 -8 -46 23q-12 23 -22 68q-23 101 -35 173q-14 88 -18 115q-3 18 6.5 34.5t25.5 22.5
q7 3 18 16q34 41 91 47l17 1q31 -3 33 -3q6 -1 15.5 -1h15.5q36 -4 50 -37z" />
    <glyph glyph-name="s" unicode="s" horiz-adv-x="423" 
d="M412 210q0 -1 2 -26q0 -87 -77 -135q-47 -30 -99 -29h-20h-23t-19.5 2t-21.5 5q-61 22 -93 54q-34 33 -45 58q-15 35 -1 64q13 26 42.5 28t45.5 -22q17 -26 47 -46q52 -35 108 -2q6 4 7 5q11 7 13 16t-3 25q-13 45 -57 54q-21 5 -65 29q-31 16 -39 22q-38 31 -37 82
q0 39 15 70q20 44 47 64q24 17 60 22q57 8 113 -17q33 -15 47 -49q10 -23 -7 -39q-6 -6 -16 -7q-23 -1 -39 2.5t-31 2.5q-8 -1 -28 -1t-30 -1q-12 -2 -19.5 -11.5t-5.5 -21.5q0 -6 6 -9q46 -26 50 -29q13 -7 42 -11q39 -6 71 -36q48 -46 60 -113z" />
    <glyph glyph-name="s" unicode="&#xdf;" horiz-adv-x="423" 
d="M412 210q0 -1 2 -26q0 -87 -77 -135q-47 -30 -99 -29h-20h-23t-19.5 2t-21.5 5q-61 22 -93 54q-34 33 -45 58q-15 35 -1 64q13 26 42.5 28t45.5 -22q17 -26 47 -46q52 -35 108 -2q6 4 7 5q11 7 13 16t-3 25q-13 45 -57 54q-21 5 -65 29q-31 16 -39 22q-38 31 -37 82
q0 39 15 70q20 44 47 64q24 17 60 22q57 8 113 -17q33 -15 47 -49q10 -23 -7 -39q-6 -6 -16 -7q-23 -1 -39 2.5t-31 2.5q-8 -1 -28 -1t-30 -1q-12 -2 -19.5 -11.5t-5.5 -21.5q0 -6 6 -9q46 -26 50 -29q13 -7 42 -11q39 -6 71 -36q48 -46 60 -113z" />
    <glyph glyph-name="t" unicode="t" horiz-adv-x="485" 
d="M475 208q1 -7 2 -9v-8q-4 -30 -5 -31q-10 -54 -41 -88q-43 -48 -103 -45q-35 2 -62 6q-27 5 -52 25q-37 30 -53 58q-22 38 -35 91q-10 39 -15 94q-1 8 -2.5 9t-8.5 1q-26 -3 -48 1q-17 3 -29 13.5t-14 25.5q-3 15 4.5 29.5t22.5 23.5q18 11 66 25q9 3 10 14q5 45 15 68
q13 31 46 34q14 1 28.5 -8.5t19.5 -24.5q5 -12 6 -31q2 -20 2 -26q0 -8 8 -6q44 7 47 7q47 2 63 -38q7 -18 1.5 -38t-20.5 -32q-16 -12 -55 -19q-12 -3 -25 -4q-7 -1 -6 -8q6 -29 9.5 -44.5t12.5 -38.5t21 -41q14 -20 36 -18q7 0 10 5.5t7 21.5q8 31 22 49q16 18 40 21.5
t43 -9.5q29 -20 32 -55z" />
    <glyph glyph-name="u" unicode="u" horiz-adv-x="373" 
d="M359 260q5 -43 5 -53q0 -38 -8 -55q-10 -20 -32 -40q-29 -27 -62 -40q-35 -13 -81 -5q-36 6 -64 19q-23 11 -50 41q-40 44 -55 114q-4 16 -4 27q-1 88 10 162q4 30 15 49q17 34 54 28q16 -2 27.5 -14t13.5 -28q2 -11 3 -50q4 -91 8 -131q5 -43 34 -65q23 -17 50 -12
q10 1 9 13q-2 19 -4 55t-3 41q-2 38 -2 106q0 4 -2 19.5t0 19.5q7 34 38 44q33 10 58 -13q24 -23 25 -63q0 -25 2.5 -51.5t7.5 -66t7 -51.5z" />
    <glyph glyph-name="u" unicode="&#xfc;" horiz-adv-x="373" 
d="M359 260q5 -43 5 -53q0 -38 -8 -55q-10 -20 -32 -40q-29 -27 -62 -40q-35 -13 -81 -5q-36 6 -64 19q-23 11 -50 41q-40 44 -55 114q-4 16 -4 27q-1 88 10 162q4 30 15 49q17 34 54 28q16 -2 27.5 -14t13.5 -28q2 -11 3 -50q4 -91 8 -131q5 -43 34 -65q23 -17 50 -12
q10 1 9 13q-2 19 -4 55t-3 41q-2 38 -2 106q0 4 -2 19.5t0 19.5q7 34 38 44q33 10 58 -13q24 -23 25 -63q0 -25 2.5 -51.5t7.5 -66t7 -51.5z" />
    <glyph glyph-name="u" unicode="&#xfb;" horiz-adv-x="373" 
d="M359 260q5 -43 5 -53q0 -38 -8 -55q-10 -20 -32 -40q-29 -27 -62 -40q-35 -13 -81 -5q-36 6 -64 19q-23 11 -50 41q-40 44 -55 114q-4 16 -4 27q-1 88 10 162q4 30 15 49q17 34 54 28q16 -2 27.5 -14t13.5 -28q2 -11 3 -50q4 -91 8 -131q5 -43 34 -65q23 -17 50 -12
q10 1 9 13q-2 19 -4 55t-3 41q-2 38 -2 106q0 4 -2 19.5t0 19.5q7 34 38 44q33 10 58 -13q24 -23 25 -63q0 -25 2.5 -51.5t7.5 -66t7 -51.5z" />
    <glyph glyph-name="u" unicode="&#xfa;" horiz-adv-x="373" 
d="M359 260q5 -43 5 -53q0 -38 -8 -55q-10 -20 -32 -40q-29 -27 -62 -40q-35 -13 -81 -5q-36 6 -64 19q-23 11 -50 41q-40 44 -55 114q-4 16 -4 27q-1 88 10 162q4 30 15 49q17 34 54 28q16 -2 27.5 -14t13.5 -28q2 -11 3 -50q4 -91 8 -131q5 -43 34 -65q23 -17 50 -12
q10 1 9 13q-2 19 -4 55t-3 41q-2 38 -2 106q0 4 -2 19.5t0 19.5q7 34 38 44q33 10 58 -13q24 -23 25 -63q0 -25 2.5 -51.5t7.5 -66t7 -51.5z" />
    <glyph glyph-name="u" unicode="&#xf9;" horiz-adv-x="373" 
d="M359 260q5 -43 5 -53q0 -38 -8 -55q-10 -20 -32 -40q-29 -27 -62 -40q-35 -13 -81 -5q-36 6 -64 19q-23 11 -50 41q-40 44 -55 114q-4 16 -4 27q-1 88 10 162q4 30 15 49q17 34 54 28q16 -2 27.5 -14t13.5 -28q2 -11 3 -50q4 -91 8 -131q5 -43 34 -65q23 -17 50 -12
q10 1 9 13q-2 19 -4 55t-3 41q-2 38 -2 106q0 4 -2 19.5t0 19.5q7 34 38 44q33 10 58 -13q24 -23 25 -63q0 -25 2.5 -51.5t7.5 -66t7 -51.5z" />
    <glyph glyph-name="v" unicode="v" horiz-adv-x="351" 
d="M342 491q1 -18 -3 -81q-1 -10 -2 -27.5t-1.5 -32.5t-2.5 -28q-11 -128 -26 -204q-7 -39 -20 -56q-18 -26 -48 -30t-54 17q-38 35 -62 79q-4 7 -9.5 16t-12 19t-9.5 16q-24 41 -39 93q-24 83 -43 173q-5 25 3 44t28.5 21.5t33.5 -10.5q11 -12 27 -41q68 -127 87 -165
q11 -22 12 -23q1 3 8 38q4 20 17 119q8 65 8 66q2 20 18 33.5t37 13t36.5 -15t16.5 -34.5z" />
    <glyph glyph-name="w" unicode="w" horiz-adv-x="575" 
d="M561 497q0 -31 3 -106t2 -116q-1 -85 -15 -141q-7 -32 -16 -49q-14 -28 -40.5 -37t-54.5 4q-27 13 -60 42q-34 30 -67 74l-3 5q-3 -2 -5 -8q-11 -45 -26 -77q-24 -50 -51 -67q-42 -27 -88 -1q-26 16 -50 55q-39 67 -58 176q-16 92 -21 138q-5 60 1 88q7 28 25 37
q14 6 27.5 2.5t22.5 -15.5q12 -17 25 -52q12 -34 38 -145q13 -58 27 -96q2 -5 4 -5q1 0 3 5q6 16 28 91q13 43 23 72q11 28 41.5 36t54.5 -10q13 -10 28 -39q37 -68 58 -101q2 -2 11 -14q2 -3 3.5 -3t1.5 4q5 57 6 61q0 7 2.5 66.5t2.5 90.5q0 13 -4 28q-9 36 18 60
q31 26 68 7q29 -15 34 -51q1 -5 1 -9z" />
    <glyph glyph-name="x" unicode="x" horiz-adv-x="419" 
d="M397 201q15 -21 13.5 -47t-18.5 -44q-19 -19 -45 -22t-48 11.5t-43 38.5q-19 21 -48 45q-4 3 -7 -2q-23 -39 -42 -61q-40 -46 -70 -60q-26 -12 -50 1.5t-26 42.5q-2 33 23 63q12 15 24 32.5t26 40.5t21 34q4 6 -1 12q-57 57 -82 95q-20 29 -15 61q4 29 29 44.5t53 6.5
q24 -7 49 -29q6 -5 58 -56q5 -5 10 1q2 3 45 68q17 26 37 36q25 12 48.5 -3t23.5 -45q1 -14 -9 -31q-8 -13 -19 -36q-13 -29 -41 -71q-6 -9 1 -16q43 -40 55 -53q26 -28 48 -57z" />
    <glyph glyph-name="y" unicode="y" horiz-adv-x="447" 
d="M438 219v-22q-1 -44 -2 -54q-4 -31 -27 -66q-24 -39 -68 -73q-19 -15 -51 -21q-37 -7 -56 -8q-43 -4 -71 24q-25 25 -20.5 58.5t35.5 50.5q16 9 55 12q2 1 9.5 1.5t10.5 0.5q5 1 9 3t5.5 3.5t6 6.5t5.5 5q15 16 14 43q-2 47 -9 89q-2 9 -8 5q-42 -23 -118 -12
q-43 6 -70 27q-24 20 -40 48q-31 56 -38 108q-9 62 23 117q11 19 27 26q20 8 37.5 -3t20.5 -34q1 -9 2.5 -26t2.5 -25q6 -47 39 -91q6 -8 13 -10q30 -9 51 -7q9 2 28 12q3 2 2 9q-14 51 -18 66q-9 37 -5 64q3 22 16 36t35 16q19 1 38 -14q14 -12 33 -44q46 -78 69 -211
q13 -69 14 -110z" />
    <glyph glyph-name="y" unicode="&#xff;" horiz-adv-x="447" 
d="M438 219v-22q-1 -44 -2 -54q-4 -31 -27 -66q-24 -39 -68 -73q-19 -15 -51 -21q-37 -7 -56 -8q-43 -4 -71 24q-25 25 -20.5 58.5t35.5 50.5q16 9 55 12q2 1 9.5 1.5t10.5 0.5q5 1 9 3t5.5 3.5t6 6.5t5.5 5q15 16 14 43q-2 47 -9 89q-2 9 -8 5q-42 -23 -118 -12
q-43 6 -70 27q-24 20 -40 48q-31 56 -38 108q-9 62 23 117q11 19 27 26q20 8 37.5 -3t20.5 -34q1 -9 2.5 -26t2.5 -25q6 -47 39 -91q6 -8 13 -10q30 -9 51 -7q9 2 28 12q3 2 2 9q-14 51 -18 66q-9 37 -5 64q3 22 16 36t35 16q19 1 38 -14q14 -12 33 -44q46 -78 69 -211
q13 -69 14 -110z" />
    <glyph glyph-name="y" unicode="&#xfd;" horiz-adv-x="447" 
d="M438 219v-22q-1 -44 -2 -54q-4 -31 -27 -66q-24 -39 -68 -73q-19 -15 -51 -21q-37 -7 -56 -8q-43 -4 -71 24q-25 25 -20.5 58.5t35.5 50.5q16 9 55 12q2 1 9.5 1.5t10.5 0.5q5 1 9 3t5.5 3.5t6 6.5t5.5 5q15 16 14 43q-2 47 -9 89q-2 9 -8 5q-42 -23 -118 -12
q-43 6 -70 27q-24 20 -40 48q-31 56 -38 108q-9 62 23 117q11 19 27 26q20 8 37.5 -3t20.5 -34q1 -9 2.5 -26t2.5 -25q6 -47 39 -91q6 -8 13 -10q30 -9 51 -7q9 2 28 12q3 2 2 9q-14 51 -18 66q-9 37 -5 64q3 22 16 36t35 16q19 1 38 -14q14 -12 33 -44q46 -78 69 -211
q13 -69 14 -110z" />
    <glyph glyph-name="z" unicode="z" horiz-adv-x="483" 
d="M438 216q28 -16 34.5 -47.5t-12.5 -56.5t-62 -29q-23 -2 -84 -8.5t-95 -9.5q-23 -2 -94 -13l-2 -1h-32q-1 1 -4 1q-4 2 -6 2q-25 8 -39.5 27t-13.5 43q0 37 22 73q33 52 83 131q3 5 31 41q4 6 3 7h-44q-34 -1 -53 0q-26 1 -43.5 18t-18.5 42q-1 31 23 51q23 20 71 26
q62 8 148 7q2 0 19.5 0.5t19.5 0.5q42 -3 62.5 -35.5t5.5 -72.5q-6 -18 -45 -84q-11 -20 -36 -53.5t-34 -48.5q-1 -1 -1.5 -2t-1.5 -1q-4 -7 4 -7q64 1 138 7q36 3 57 -8z" />
    <glyph glyph-name="braceleft" unicode="{" horiz-adv-x="306" 
d="M64 150v38t-2 6.5t-7 1.5h-4q-29 2 -39 26q-11 25 9 47q9 10 26 24q8 8 7 19q-4 22 -5 51t-1 43.5t1.5 54t2.5 46.5q1 40 26 72q18 22 45 30q5 2 11.5 4t12 4t12 4.5t11.5 4.5q12 4 21 4q28 0 40 -25q13 -27 -8 -49q-16 -16 -41 -19q-23 -3 -28 -9t-4 -28q2 -79 5 -149
q2 -58 -11 -86q-3 -6 1 -10q14 -19 17 -58q2 -41 5 -92q2 -26 10 -77q4 -31 37 -27q20 2 37 -2t29 -16q17 -16 17.5 -37.5t-15.5 -37.5q-21 -24 -58 -22q-31 1 -54 16q-26 18 -28 19q-40 29 -55.5 76t-20.5 119q0 1 -2 34z" />
    <glyph glyph-name="braceright" unicode="}" horiz-adv-x="285" 
d="M200 491q5 -33 5 -67q-1 -15 0.5 -35t2.5 -39t0 -33q0 -9 9 -13q6 -2 18 -8t16 -7q22 -11 25 -32.5t-15 -37.5q-5 -5 -16 -13q-8 -6 -7 -15q1 -6 2 -19t2 -20q9 -59 2 -131q-4 -41 -30.5 -73t-63.5 -42q-28 -7 -58 -6q-20 1 -36 14q-17 14 -16.5 35.5t18.5 35.5
q12 9 36 14q2 0 5 0.5t5 1t4.5 1t4.5 1.5q29 8 28 37q-4 94 -8 124q-6 36 6 66q3 7 -2 12q-8 11 -12 33q-9 51 -11 164q-1 1 2 34q1 15 -7 23t-23 7q-25 -2 -38 1q-32 7 -38.5 37t19.5 50q2 1 5 3q33 20 75.5 8.5t61.5 -45.5q9 -17 15 -27q11 -18 14 -39z" />
    <glyph glyph-name="asciitilde" unicode="~" horiz-adv-x="363" 
d="M330 272q-53 -31 -84 -29q-34 0 -65 12q-20 8 -25.5 11.5t-11 6.5t-13 4t-11.5 1.5t-14 0.5t-12 1q-7 0 -15 -6q-19 -15 -21 -17q-19 -13 -35 -3q-17 10 -15 33q1 9 5 16q18 32 45 51q11 7 21 9q65 10 102 -1q27 -7 49 -15q25 -9 42 5q14 10 34 11q27 1 41.5 -20.5
t2.5 -46.5q-7 -16 -20 -24z" />
    <glyph glyph-name="nonbreakingspace" unicode="&#xa0;" horiz-adv-x="299" 
 />
    <glyph glyph-name="softhyphen" unicode="&#xad;" 
 />
  </font>
</defs>
</svg>
