<svg xmlns="http://www.w3.org/2000/svg" xmlns:xlink="http://www.w3.org/1999/xlink" width="329" height="367" viewBox="0 0 329 367">
  <defs>
    <clipPath id="clip-path">
      <rect id="Rectangle_1172" data-name="Rectangle 1172" width="329" height="367" rx="17" transform="translate(522 285)" fill="#fff" stroke="#707070" stroke-width="1"/>
    </clipPath>
  </defs>
  <g id="Mask_Group_42" data-name="Mask Group 42" transform="translate(-522 -285)" clip-path="url(#clip-path)">
    <path id="Path_381" data-name="Path 381" d="M84.9,332.638c5.543,2.5,11.04,5.268,16.638,7.453,28.282,11.034,54.676,4.027,78.545-20.634,11.883-12.278,20.914-29.219,27.243-48.69,2.084-6.412,2.386-14.151,3.34-21.328,5.89-44.329,7.211-88.434-1.979-132.358-5.049-24.137-12.2-46.7-22.229-66.912-13.75-27.7-33.009-42.066-55.6-46.925-6.013-1.3-12.173-1.092-18.2-2.329-3.03-1.705-11.012-.5-11.012-.5-2.344.227-4.71.877-7.029.613C74.974-1.23,58.95,10.046,45.387,30.241Q31.6,50.765,18.207,71.872c-9.11,14.3-14.262,31.563-16.5,50.878-.282,2.433-.749,4.822-1.258,8.036C-.69,136.184.7,148.214.7,148.214c5.456,38.908,10.665,78.043,26.12,111.6,4.61,10.008,10.917,18.278,16.466,27.321C51.328,307.186,84.9,332.638,84.9,332.638Z" transform="matrix(0.017, 1, -1, 0.017, 778.816, 153.615)" fill="#fc3"/>
    <g id="Group_187" data-name="Group 187" transform="translate(795.013 366.248) rotate(180)">
      <g id="Group_185" data-name="Group 185" transform="translate(33.199 0)">
        <path id="Path_382" data-name="Path 382" d="M12.276,45.611S1.593,44.92.658,36.58c-.751-6.7-2.852-17.987,8.348-23.693C16.553,9.042,22.907-1.175,28.491.111S37.937,17.7,36.463,27.152s-4.3,21.029-13.527,19.375C15.731,45.236,12.276,45.611,12.276,45.611Z" fill="#214f4b"/>
        <path id="Path_383" data-name="Path 383" d="M10.756,5.663a.658.658,0,0,1,.354-.38c1.08-.482,5.3-2.23,7.822-1.369,2.914.994,6.956-1.168,5.133-1.742s-6-.885-8.512.112S14.165,2,11.251,1.49,8.7,1.113,7.427,2.042s-.4.722-4.161-.68S-1.182-1.179,2.115,2.3s6.936,2.037,7.421,7.729a13.468,13.468,0,0,0,4.34,8.426.666.666,0,0,0,1.091-.3h0a.663.663,0,0,0-.259-.737A9.828,9.828,0,0,1,10.756,5.663Z" transform="translate(6.113 46.502)" fill="#81ad97"/>
        <path id="Path_384" data-name="Path 384" d="M.886,32.688s3.97-1.541,5.039-7.545S7.66,12.027,7.075,8.962,5.739,2.508,4.678.918,2.985-.226,3.517,2.5s.36,8.473-.218,14.636S.484,25.747.073,29.658C-.132,31.594.082,33.211.886,32.688Z" transform="translate(25.416 8.924)" fill="#82ad98"/>
        <path id="Path_385" data-name="Path 385" d="M2.122,1.246S1.989-.282,1.136.046C.106.444-.4,1.2.373,1.938S2.45,3.825,2.122,1.246Z" transform="translate(26.996 3.549)" fill="#82ad98"/>
      </g>
      <path id="Path_386" data-name="Path 386" d="M3.1,46.67s1.27-4.967.309-6.322C1.625,37.825-.482,35,1.2,29.791,4.119,20.778,11.164,13.67,14.561,8.78c4.216-6.07,1.971-10.573,4-8.079s12.094,15.193,9.645,23.474-8.38,9.9-16.023,13.455c-3.48,1.618-6.6.24-8.2,8.822A62.7,62.7,0,0,0,2.5,59.24c-.037.944-.979,1.978-1.945,1.689A1.609,1.609,0,0,1,0,59.572C.062,56.78,1.112,53.885,3.1,46.67Z" transform="translate(70.515 26.372)" fill="#81ad97"/>
      <g id="Group_186" data-name="Group 186" transform="translate(0 26.675)">
        <path id="Path_387" data-name="Path 387" d="M43.9,52.911s-6.382,8.469-13.8,4.707C24.146,54.6,14.6,48.078,11.745,40.188s-6.49-6.176-9.863-14.5S-.061,6.21,4.042,2.287,19.315-.194,26.79,4.2s16.79,2.9,23.817,9.263,12.836,19.063-.156,31.118C45.136,49.516,43.9,52.911,43.9,52.911Z" fill="#eb4f25"/>
        <path id="Path_388" data-name="Path 388" d="M21.883,22.216a1.242,1.242,0,0,0-.981.017c-2.04.906-9.814,4.611-11.8,9.24-2.287,5.341-10.421,8.28-8.924,5s6.335-9.533,10.9-11.794,1.363-2.3,4.318-7.035,2.692-4.049,5.6-4.664,1.52.347,4.3-6.693,2.051-9.446,2.764-.434-5.9,12.3,1.47,20.165c5.441,5.808,6.271,13.234,6.333,16.724a1.255,1.255,0,0,1-1.795,1.154h0a1.251,1.251,0,0,1-.707-1.295C33.824,39.26,34.454,27.411,21.883,22.216Z" transform="translate(35.229 31.056)" fill="#7fab95"/>
        <path id="Path_389" data-name="Path 389" d="M.367,1.438S-.716-.149.839.011s4.905,2.142,6.7,3.014,7.71,4.712,9.252,6.681,2.388,3.8.584,5.684-4.061,5.3-6.042,3.034a19.679,19.679,0,0,1-4.321-8.159C6.161,7.015,1.745,3.536.367,1.438Z" transform="translate(31.75 12.436)" fill="#f79461"/>
      </g>
    </g>
  </g>
</svg>
