<svg xmlns="http://www.w3.org/2000/svg" xmlns:xlink="http://www.w3.org/1999/xlink" width="329" height="367" viewBox="0 0 329 367">
  <defs>
    <clipPath id="clip-path">
      <rect id="Rectangle_1196" data-name="Rectangle 1196" width="329" height="367" rx="17" fill="#fff" stroke="#707070" stroke-width="1"/>
    </clipPath>
  </defs>
  <g id="Mask_Group_53" data-name="Mask Group 53" clip-path="url(#clip-path)">
    <path id="Path_428" data-name="Path 428" d="M84.9,12.525c5.543-2.5,11.04-5.268,16.638-7.453,28.282-11.034,54.676-4.027,78.545,20.634,11.883,12.278,20.914,29.219,27.243,48.69,2.084,6.412,2.386,14.151,3.34,21.328,5.89,44.329,7.211,88.434-1.979,132.358-5.049,24.137-12.2,46.7-22.229,66.912-13.75,27.7-33.009,42.066-55.6,46.925-6.013,1.3-12.173,1.092-18.2,2.329-3.03,1.705-11.012.5-11.012.5-2.344-.227-4.71-.877-7.029-.613-19.643,2.255-35.667-9.02-49.23-29.216Q31.6,294.4,18.207,273.291C9.1,259,3.945,241.728,1.708,222.413c-.282-2.433-.749-4.822-1.258-8.036C-.69,208.979.7,196.95.7,196.95c5.456-38.908,10.665-78.043,26.12-111.6,4.61-10.008,10.917-18.278,16.466-27.321C51.328,37.977,84.9,12.525,84.9,12.525Z" transform="matrix(-0.017, 1, -1, -0.017, 417.295, -125.361)" fill="#fc3"/>
    <g id="Group_283" data-name="Group 283" transform="translate(55.987 -20.499)">
      <g id="Group_281" data-name="Group 281" transform="translate(33.199 36.613)">
        <path id="Path_429" data-name="Path 429" d="M12.276,1.076S1.593,1.766.658,10.106C-.092,16.8-2.194,28.094,9.007,33.8c7.546,3.845,13.9,14.062,19.484,12.775s9.446-17.585,7.972-27.041S32.164-1.495,22.936.159C15.731,1.45,12.276,1.076,12.276,1.076Z" transform="translate(0 18.447)" fill="#214f4b"/>
        <path id="Path_430" data-name="Path 430" d="M10.756,12.968a.658.658,0,0,0,.354.38c1.08.482,5.3,2.23,7.822,1.369,2.914-.994,6.956,1.168,5.133,1.742s-6,.885-8.512-.112-1.389.279-4.3.794-2.549.376-3.824-.553-.4-.722-4.161.68-4.448,2.542-1.151-.935S9.051,14.3,9.535,8.6A13.468,13.468,0,0,1,13.876.179a.666.666,0,0,1,1.091.3h0a.663.663,0,0,1-.259.737A9.828,9.828,0,0,0,10.756,12.968Z" transform="translate(6.113 0)" fill="#81ad97"/>
        <path id="Path_431" data-name="Path 431" d="M.886.1S4.856,1.64,5.925,7.644,7.66,20.76,7.075,23.825s-1.336,6.454-2.4,8.045-1.694,1.143-1.161-1.579.36-8.473-.218-14.636S.485,7.041.073,3.129C-.132,1.193.082-.424.886.1Z" transform="translate(25.416 23.422)" fill="#82ad98"/>
        <path id="Path_432" data-name="Path 432" d="M2.122,1.595s-.132,1.528-.986,1.2C.106,2.4-.4,1.64.373.9S2.45-.984,2.122,1.595Z" transform="translate(26.996 58.744)" fill="#82ad98"/>
      </g>
      <path id="Path_433" data-name="Path 433" d="M3.1,14.309s1.27,4.967.309,6.322C1.625,23.154-.482,25.978,1.2,31.188,4.119,40.2,11.164,47.31,14.561,52.2c4.216,6.07,1.971,10.573,4,8.079S30.656,45.085,28.208,36.8s-8.38-9.9-16.023-13.455c-3.48-1.618-6.6-.24-8.2-8.822A62.7,62.7,0,0,1,2.5,1.739C2.466.795,1.524-.24.558.049A1.609,1.609,0,0,0,0,1.407C.062,4.2,1.112,7.094,3.1,14.309Z" transform="translate(70.515 14.395)" fill="#81ad97"/>
      <g id="Group_282" data-name="Group 282" transform="translate(0 0)">
        <path id="Path_434" data-name="Path 434" d="M43.9,5.671S37.513-2.8,30.1.963C24.146,3.985,14.6,10.5,11.745,18.394s-6.49,6.176-9.863,14.5-1.942,19.481,2.16,23.4,15.273,2.481,22.748-1.916,16.79-2.9,23.817-9.263S63.443,26.053,50.451,14C45.136,9.066,43.9,5.671,43.9,5.671Z" transform="translate(0 16.49)" fill="#eb4f25"/>
        <path id="Path_435" data-name="Path 435" d="M21.883,21.8a1.242,1.242,0,0,1-.981-.017c-2.04-.906-9.814-4.611-11.8-9.24C6.82,7.2-1.314,4.263.182,7.546s6.335,9.533,10.9,11.794,1.363,2.3,4.318,7.035,2.692,4.049,5.6,4.664,1.52-.347,4.3,6.693,2.051,9.446,2.764.434-5.9-12.3,1.47-20.165c5.441-5.808,6.271-13.234,6.333-16.724A1.255,1.255,0,0,0,34.081.123h0a1.251,1.251,0,0,0-.707,1.295C33.824,4.755,34.454,16.6,21.883,21.8Z" transform="translate(35.229 0)" fill="#7fab95"/>
        <path id="Path_436" data-name="Path 436" d="M.367,17.735s-1.083,1.587.471,1.427,4.905-2.142,6.7-3.014,7.71-4.712,9.252-6.681,2.388-3.8.584-5.684-4.061-5.3-6.042-3.034A19.679,19.679,0,0,0,7.011,8.907C6.161,12.158,1.745,15.637.367,17.735Z" transform="translate(31.75 43.462)" fill="#f79461"/>
      </g>
    </g>
  </g>
</svg>
