<svg xmlns="http://www.w3.org/2000/svg" width="49.57142871739916" height="47.71428581159944"><rect id="backgroundrect" width="100%" height="100%" x="0" y="0" fill="none" stroke="none" class="" style=""/>
  
<g class="currentLayer" style=""><title>Layer 1</title><g id="Group_153" data-name="Group 153" class="selected">
    <ellipse id="Ellipse_119" data-name="Ellipse 119" cx="24.785714149475098" cy="23.85714292526245" rx="20.5" ry="21" fill="#f42424"/>
    <g id="Group_152" data-name="Group 152">
      <path id="Path_338" data-name="Path 338" d="M29.357714109897643,12.658142960071558 c-0.49300000000000027,0.232 -0.986,0.466 -1.482,0.6920000000000008 a0.5650000000000005,0.5650000000000005 0 0 1 -0.22000000000000014,0.013000000000000015 h-2.017 c0.055000000000000035,0.06700000000000009 0.0860000000000001,0.11100000000000007 0.12300000000000007,0.15000000000000013 c0.3180000000000003,0.3420000000000004 0.6490000000000007,0.6730000000000008 0.9540000000000005,1.026 a4.67,4.67 0 0 1 0,6.206 a9.832,9.832 0 0 1 -0.8730000000000006,0.8530000000000005 c-0.30000000000000027,0.28400000000000025 -0.6290000000000006,0.544 -0.911,0.8460000000000005 a1.417,1.417 0 0 0 -0.06600000000000007,1.8730000000000002 a8.393,8.393 0 0 0 1.542,1.468 c0.28400000000000025,0.21300000000000013 0.5660000000000005,0.4320000000000003 0.8360000000000005,0.6630000000000008 a4.63,4.63 0 0 1 1.622,3.5 a4.725,4.725 0 0 1 -2.848,4.589 a8.951,8.951 0 0 1 -4.75,0.8860000000000007 a11.22,11.22 0 0 1 -3.537,-0.7000000000000005 a5.611,5.611 0 0 1 -2.186,-1.408 a2.9370000000000003,2.9370000000000003 0 0 1 -0.786,-1.612 a0.6920000000000008,0.6920000000000008 0 0 0 -0.04200000000000004,-0.125 v-0.5790000000000005 a0.455,0.455 0 0 0 0.03800000000000001,-0.1 a3.987,3.987 0 0 1 0.923,-2.085 a7.138,7.138 0 0 1 4.131,-2.3930000000000002 a13.778,13.778 0 0 1 2.7670000000000003,-0.2 c0.0850000000000001,0 0.17,-0.008000000000000009 0.3120000000000003,-0.016000000000000018 a2.5300000000000002,2.5300000000000002 0 0 1 -0.6000000000000005,-3.267 c-0.3810000000000003,0 -0.7210000000000005,0.01700000000000002 -1.06,0 a5.308,5.308 0 0 1 -3.452,-1.4420000000000002 a4.768,4.768 0 0 1 -0.6000000000000005,-6.274 a6.432,6.432 0 0 1 3.561,-2.327 c0.406,-0.10700000000000007 0.8270000000000005,-0.15600000000000014 1.241,-0.232 zm-7.078,21.669 c0.18500000000000014,-0.010000000000000009 0.3710000000000003,-0.015000000000000015 0.555,-0.030000000000000034 a7.442,7.442 0 0 0 2.363,-0.5660000000000005 a3.166,3.166 0 0 0 0.6380000000000007,-5.4 c-0.512,-0.35400000000000026 -1.014,-0.7220000000000005 -1.5270000000000001,-1.076 a1.2930000000000001,1.2930000000000001 0 0 0 -0.3780000000000003,-0.17600000000000013 a5.945,5.945 0 0 0 -2.62,-0.135 a5.447,5.447 0 0 0 -3.246,1.6480000000000001 a2.808,2.808 0 0 0 -0.8,2.232 a3.43,3.43 0 0 0 1.315,2.388 A5.355,5.355 0 0 0 22.279714109897668,34.32414296007157 zm3.136,-15.626 a5.329,5.329 0 0 0 -0.28500000000000025,-1.749 a5.024,5.024 0 0 0 -2.205,-2.8840000000000003 a2.7,2.7 0 0 0 -2.049,-0.36400000000000027 a2.637,2.637 0 0 0 -1.933,1.935 a5.368,5.368 0 0 0 0.44800000000000034,4.155 a4.57,4.57 0 0 0 2.06,2.143 a2.5060000000000002,2.5060000000000002 0 0 0 3.5,-1.135 A4.316,4.316 0 0 0 25.41671410989761,18.698142960071564 z" fill="#fff"/>
      <path id="Path_339" data-name="Path 339" d="M33.93771386575696,24.036148453235626 v3.552 h-1.4 v-3.533 h-3.551 V22.643148453235625 h3.532 v-3.552 h1.412 v3.533 h3.551 v1.412 z" fill="#fff"/>
    </g>
  </g></g></svg>