<svg xmlns="http://www.w3.org/2000/svg" width="46.71428581159944" height="47.71428581159945"><rect id="backgroundrect" width="100%" height="100%" x="0" y="0" fill="none" stroke="none" class="" style=""/>
  
<g class="currentLayer" style=""><title>Layer 1</title><g id="Group_154" data-name="Group 154" class="selected">
    <ellipse id="Ellipse_119" data-name="Ellipse 119" cx="23.35714292526245" cy="23.85714292526245" rx="20.5" ry="21" fill="#725bb1"/>
    <g id="Group_152" data-name="Group 152">
      <path id="Path_322" data-name="Path 322" d="M22.764143310546874,14.297143364429473 a36.446,36.446 0 0 1 4.755,0.132 a6.126,6.126 0 0 1 2.245,0.4 a4.638,4.638 0 0 1 2.245,2.245 a6.126,6.126 0 0 1 0.4,2.245 c0,1.189 0.132,1.585 0.132,4.7540000000000004 a36.446,36.446 0 0 1 -0.132,4.755 a6.126,6.126 0 0 1 -0.4,2.245 a4.638,4.638 0 0 1 -2.245,2.245 a6.126,6.126 0 0 1 -2.245,0.4 c-1.189,0 -1.585,0.132 -4.7540000000000004,0.132 a36.445,36.445 0 0 1 -4.7540000000000004,-0.132 a6.126,6.126 0 0 1 -2.245,-0.4 a4.638,4.638 0 0 1 -2.245,-2.245 a6.126,6.126 0 0 1 -0.4,-2.245 c0,-1.189 -0.132,-1.585 -0.132,-4.7540000000000004 a36.446,36.446 0 0 1 0.132,-4.7540000000000004 a6.126,6.126 0 0 1 0.4,-2.245 a4.743,4.743 0 0 1 0.924,-1.3210000000000002 a2.233,2.233 0 0 1 1.3210000000000002,-0.924 a6.126,6.126 0 0 1 2.245,-0.4 a36.446,36.446 0 0 1 4.7540000000000004,-0.132 m0,-2.113 A39.023,39.023 0 0 0 17.878143310546875,12.316143364429474 A8.153,8.153 0 0 0 14.972143310546876,12.844143364429474 A5.17,5.17 0 0 0 12.859143310546875,14.165143364429474 A5.17,5.17 0 0 0 11.538143310546875,16.278143364429475 A6.018,6.018 0 0 0 11.010143310546875,19.184143364429474 A39.023,39.023 0 0 0 10.878143310546875,24.070143364429473 a39.023,39.023 0 0 0 0.132,4.8870000000000005 A8.153,8.153 0 0 0 11.538143310546875,31.862143364429475 a5.17,5.17 0 0 0 1.3210000000000002,2.113 a5.17,5.17 0 0 0 2.113,1.3210000000000002 A8.153,8.153 0 0 0 17.878143310546875,35.824143364429474 a39.023,39.023 0 0 0 4.8870000000000005,0.132 a39.023,39.023 0 0 0 4.8870000000000005,-0.132 a8.154,8.154 0 0 0 2.906,-0.528 a5.541,5.541 0 0 0 3.434,-3.434 a8.153,8.153 0 0 0 0.528,-2.906 c0,-1.3210000000000002 0.132,-1.717 0.132,-4.8870000000000005 A39.023,39.023 0 0 0 34.518143310546876,19.184143364429474 a8.154,8.154 0 0 0 -0.528,-2.906 a5.17,5.17 0 0 0 -1.3210000000000002,-2.113 A5.17,5.17 0 0 0 30.556143310546876,12.844143364429474 A8.153,8.153 0 0 0 27.651143310546875,12.316143364429474 A39.023,39.023 0 0 0 22.764143310546874,12.184143364429474 m0,5.811 a5.977,5.977 0 0 0 -6.075,6.075 a6.075,6.075 0 1 0 6.075,-6.075 m0,10.037 a3.891,3.891 0 0 1 -3.962,-3.962 a3.891,3.891 0 0 1 3.962,-3.962 a3.891,3.891 0 0 1 3.962,3.962 a3.891,3.891 0 0 1 -3.962,3.962 M29.104143310546874,16.278143364429475 a1.453,1.453 0 1 0 1.453,1.453 a1.466,1.466 0 0 0 -1.453,-1.453 " fill="#fff" fill-rule="evenodd"/>
    </g>
  </g></g></svg>