<svg xmlns="http://www.w3.org/2000/svg" xmlns:xlink="http://www.w3.org/1999/xlink" width="877" height="555" viewBox="0 0 877 555">
  <defs>
    <clipPath id="clip-path">
      <rect id="Rectangle_1163" data-name="Rectangle 1163" width="877" height="555" rx="17" fill="#fff" stroke="#707070" stroke-width="1"/>
    </clipPath>
  </defs>
  <g id="Mask_Group_35" data-name="Mask Group 35" clip-path="url(#clip-path)">
    <path id="Path_324" data-name="Path 324" d="M128.39,18.941c8.383-3.781,16.7-7.967,25.161-11.27,42.77-16.686,82.686-6.09,118.782,31.2,17.971,18.568,31.627,44.188,41.2,73.633,3.152,9.7,3.608,21.4,5.05,32.254,8.908,67.037,10.9,133.738-2.993,200.163-7.636,36.5-18.446,70.627-33.616,101.191-20.794,41.9-49.919,63.616-84.086,70.965-9.093,1.961-18.409,1.652-27.517,3.523-4.582,2.579-16.653.758-16.653.758-3.544-.343-7.123-1.326-10.629-.927-29.706,3.41-53.939-13.641-74.45-44.182q-20.853-31.038-41.105-62.958c-13.777-21.619-21.568-47.733-24.95-76.942-.427-3.68-1.132-7.293-1.9-12.152-1.725-8.163.37-26.355.37-26.355C9.3,239,17.18,179.821,40.552,129.076c6.971-15.136,16.51-27.642,24.9-41.317C77.622,57.432,128.39,18.941,128.39,18.941Z" transform="matrix(-0.017, 1, -1, -0.017, 1010.527, -189.582)" fill="#fc3"/>
    <g id="Group_144" data-name="Group 144" transform="translate(464.126 -31)">
      <g id="Group_142" data-name="Group 142" transform="translate(50.207 55.369)">
        <path id="Path_330" data-name="Path 330" d="M18.565,1.627S2.409,2.671,1,15.284C-.14,25.413-3.318,42.486,13.62,51.115c11.412,5.814,21.022,21.266,29.466,19.32S57.371,43.841,55.142,29.542s-6.5-31.8-20.457-29.3C23.789,2.194,18.565,1.627,18.565,1.627Z" transform="translate(0 27.898)" fill="#214f4b"/>
        <path id="Path_331" data-name="Path 331" d="M16.266,19.611a.994.994,0,0,0,.536.575c1.633.729,8.01,3.372,11.829,2.07,4.407-1.5,10.52,1.766,7.762,2.635s-9.076,1.339-12.872-.169-2.1.422-6.506,1.2-3.855.569-5.783-.836S10.624,24,4.939,26.115-1.787,29.959,3.2,24.7s10.489-3.08,11.222-11.689C14.96,6.656,18.938,2.179,20.984.27a1.006,1.006,0,0,1,1.65.451h0a1,1,0,0,1-.392,1.115C20.014,3.358,12.618,9.337,16.266,19.611Z" transform="translate(9.244)" fill="#81ad97"/>
        <path id="Path_332" data-name="Path 332" d="M1.34.15s6,2.33,7.62,11.41S11.584,31.4,10.7,36.03,8.679,45.791,7.075,48.2s-2.561,1.729-1.756-2.388.544-12.814-.329-22.134S.733,10.647.11,4.732C-.2,1.8.124-.641,1.34.15Z" transform="translate(38.436 35.421)" fill="#82ad98"/>
        <path id="Path_333" data-name="Path 333" d="M3.209,2.412s-.2,2.311-1.491,1.814C.16,3.625-.6,2.48.565,1.366S3.706-1.488,3.209,2.412Z" transform="translate(40.826 88.837)" fill="#82ad98"/>
      </g>
      <path id="Path_334" data-name="Path 334" d="M4.693,21.64s1.92,7.511.467,9.561c-2.7,3.815-5.889,8.085-3.34,15.965,4.409,13.63,15.064,24.38,20.2,31.774C28.4,88.12,25,94.93,28.072,91.158s18.289-22.976,14.586-35.5S29.985,40.684,18.427,35.311c-5.263-2.447-9.987-.363-12.394-13.342C5.289,17.959,4.27,14.848,3.786,2.63,3.73,1.2,2.3-.362.844.075A2.434,2.434,0,0,0,0,2.128C.094,6.351,1.682,10.729,4.693,21.64Z" transform="translate(106.639 21.77)" fill="#81ad97"/>
      <g id="Group_143" data-name="Group 143">
        <path id="Path_335" data-name="Path 335" d="M66.382,8.576S56.73-4.232,45.519,1.457c-9,4.569-23.447,14.428-27.758,26.36S7.946,37.157,2.845,49.74-.092,79.2,6.112,85.134s23.1,3.752,34.4-2.9S65.906,77.85,76.532,68.228,95.944,39.4,76.3,21.168C68.258,13.71,66.382,8.576,66.382,8.576Z" transform="translate(0 24.937)" fill="#eb4f25"/>
        <path id="Path_336" data-name="Path 336" d="M33.093,32.966a1.878,1.878,0,0,1-1.483-.025c-3.085-1.37-14.842-6.973-17.838-13.973C10.314,10.891-1.987,6.446.276,11.411S9.857,25.828,16.765,29.247s2.061,3.477,6.53,10.639,4.071,6.124,8.475,7.053,2.3-.525,6.505,10.122,3.1,14.285,4.18.657-8.924-18.6,2.223-30.495c8.228-8.783,9.484-20.014,9.577-25.292A1.9,1.9,0,0,0,51.541.186h0a1.892,1.892,0,0,0-1.069,1.958C51.151,7.19,52.1,25.11,33.093,32.966Z" transform="translate(53.276)" fill="#7fab95"/>
        <path id="Path_337" data-name="Path 337" d="M.555,26.82s-1.638,2.4.713,2.158S8.686,25.738,11.4,24.42s11.66-7.126,13.991-10.1,3.611-5.74.883-8.6-6.141-8.008-9.137-4.588A29.761,29.761,0,0,0,10.6,13.47C9.317,18.387,2.638,23.647.555,26.82Z" transform="translate(48.015 65.727)" fill="#f79461"/>
      </g>
    </g>
  </g>
</svg>
