<svg xmlns="http://www.w3.org/2000/svg" width="69" height="70.59459466425676"><rect id="backgroundrect" width="100%" height="100%" x="0" y="0" fill="none" stroke="none" class="" style=""/>
  
<g class="currentLayer" style=""><title>Layer 1</title><g id="Group_153" data-name="Group 153" class="">
    <ellipse id="Ellipse_119" data-name="Ellipse 119" cx="34.5" cy="35.29729542136192" rx="29.5" ry="30" fill="#f42424"/>
    <g id="Group_152" data-name="Group 152">
      <path id="Path_338" data-name="Path 338" d="M41.63499927043915,18.856293624639505 c-0.7120000000000006,0.33400000000000046 -1.4220000000000002,0.6730000000000009 -2.138,1 a0.8160000000000006,0.8160000000000006 0 0 1 -0.31800000000000034,0.01900000000000002 h-2.909 c0.07900000000000008,0.1 0.125,0.15900000000000017 0.17700000000000016,0.21600000000000016 c0.459,0.4930000000000003 0.937,0.97 1.3760000000000001,1.48 a6.736,6.736 0 0 1 0,8.951 a14.186,14.186 0 0 1 -1.259,1.23 c-0.43500000000000033,0.4100000000000003 -0.908,0.784 -1.314,1.22 a2.044,2.044 0 0 0 -0.1,2.7 a12.1,12.1 0 0 0 2.225,2.117 c0.4100000000000003,0.30800000000000033 0.8160000000000006,0.6230000000000007 1.206,0.9570000000000006 a6.678,6.678 0 0 1 2.339,5.051 c0.12400000000000008,3.14 -1.474,5.219 -4.108,6.619 a12.909,12.909 0 0 1 -6.85,1.278 a16.182,16.182 0 0 1 -5.1,-1.011 a8.093,8.093 0 0 1 -3.153,-2.031 a4.236,4.236 0 0 1 -1.134,-2.325 a1,1 0 0 0 -0.06000000000000006,-0.18100000000000016 V45.30629362463951 a0.6530000000000008,0.6530000000000008 0 0 0 0.05500000000000004,-0.14900000000000016 a5.75,5.75 0 0 1 1.332,-3.007 a10.3,10.3 0 0 1 5.958,-3.452 a19.872,19.872 0 0 1 3.99,-0.2860000000000003 c0.12300000000000008,0 0.24600000000000016,-0.01200000000000001 0.45,-0.02200000000000004 a3.649,3.649 0 0 1 -0.8700000000000007,-4.713 c-0.55,0 -1.041,0.025000000000000033 -1.528,0 a7.655,7.655 0 0 1 -4.979,-2.08 a6.877,6.877 0 0 1 -0.8690000000000007,-9.048 a9.277,9.277 0 0 1 5.136,-3.357 c0.5850000000000006,-0.15500000000000017 1.193,-0.22500000000000023 1.79,-0.33500000000000046 zm-10.208,31.253 c0.267,-0.01400000000000001 0.534,-0.021000000000000026 0.8,-0.04400000000000006 a10.733,10.733 0 0 0 3.408,-0.8160000000000006 c2.942,-1.27 3.859,-5.756 0.92,-7.784 c-0.7390000000000007,-0.51 -1.463,-1.042 -2.2,-1.5510000000000002 a1.8650000000000002,1.8650000000000002 0 0 0 -0.545,-0.254 a8.575,8.575 0 0 0 -3.779,-0.2 a7.855,7.855 0 0 0 -4.682,2.3770000000000002 a4.05,4.05 0 0 0 -1.158,3.219 a4.947,4.947 0 0 0 1.9,3.4450000000000003 A7.723,7.723 0 0 0 31.425999270439092,50.106293624639505 zm4.524,-22.537 a7.683,7.683 0 0 0 -0.4110000000000003,-2.523 a7.246,7.246 0 0 0 -3.181,-4.159 a3.8920000000000003,3.8920000000000003 0 0 0 -2.955,-0.525 a3.8,3.8 0 0 0 -2.787,2.791 a7.742,7.742 0 0 0 0.6460000000000008,5.993 a6.591,6.591 0 0 0 2.971,3.091 a3.615,3.615 0 0 0 5.042,-1.637 A6.226,6.226 0 0 0 35.94999927043909,27.56829362463951 z" fill="#fff"/>
      <path id="Path_339" data-name="Path 339" d="M48.23999658489225,35.26829215979575 v5.122 h-2.025 v-5.1 h-5.122 v-2.037 h5.095 v-5.123 h2.036 v5.1 h5.122 v2.037 z" fill="#fff"/>
    </g>
  </g></g></svg>