<svg xmlns="http://www.w3.org/2000/svg" width="69.18918932851341" height="69.59459466425665" style=""><rect id="backgroundrect" width="100%" height="100%" x="0" y="0" fill="none" stroke="none" class="" style=""/>
  
<g class="currentLayer" style=""><title>Layer 1</title><g id="Group_154" data-name="Group 154" class="">
    <ellipse id="Ellipse_119" data-name="Ellipse 119" cx="34.59459461148754" cy="34.79729659048826" rx="29.5" ry="30" fill="#725bb1"/>
    <g id="Group_152" data-name="Group 152">
      <path id="Path_322" data-name="Path 322" d="M34.279595262847096,20.72129538552076 A52.565,52.565 0 0 1 41.136595262847095,20.91129538552076 a8.835,8.835 0 0 1 3.238,0.5710000000000006 a6.69,6.69 0 0 1 3.238,3.238 a8.835,8.835 0 0 1 0.5710000000000006,3.238 c0,1.714 0.19000000000000034,2.286 0.19000000000000034,6.857 A52.565,52.565 0 0 1 48.1845952628471,41.67329538552076 a8.835,8.835 0 0 1 -0.5710000000000006,3.238 a6.69,6.69 0 0 1 -3.238,3.238 A8.835,8.835 0 0 1 41.136595262847095,48.72129538552076 c-1.714,0 -2.286,0.19000000000000034 -6.857,0.19000000000000034 a52.564,52.564 0 0 1 -6.857,-0.19000000000000034 a8.835,8.835 0 0 1 -3.238,-0.5710000000000006 A6.69,6.69 0 0 1 20.946595262847097,44.912295385520764 A8.835,8.835 0 0 1 20.374595262847095,41.67329538552076 c0,-1.714 -0.19000000000000034,-2.286 -0.19000000000000034,-6.857 a52.565,52.565 0 0 1 0.19000000000000034,-6.857 A8.835,8.835 0 0 1 20.946595262847097,24.72129538552076 a6.841,6.841 0 0 1 1.3330000000000002,-1.9 a3.22,3.22 0 0 1 1.9,-1.3330000000000002 a8.835,8.835 0 0 1 3.238,-0.5710000000000006 a52.565,52.565 0 0 1 6.857,-0.19000000000000034 m0,-3.048 A56.282,56.282 0 0 0 27.236595262847096,17.863295385520757 A11.76,11.76 0 0 0 23.036595262847094,18.625295385520758 a7.457,7.457 0 0 0 -3.048,1.9 A7.457,7.457 0 0 0 18.088595262847093,23.57329538552076 A8.679,8.679 0 0 0 17.326595262847093,27.77329538552076 A56.282,56.282 0 0 0 17.136595262847095,34.81629538552076 a56.282,56.282 0 0 0 0.19000000000000034,7.048 a11.76,11.76 0 0 0 0.7620000000000013,4.191 a7.457,7.457 0 0 0 1.9,3.048 a7.457,7.457 0 0 0 3.048,1.9 A11.76,11.76 0 0 0 27.236595262847096,51.77329538552076 a56.282,56.282 0 0 0 7.048,0.19000000000000034 a56.282,56.282 0 0 0 7.048,-0.19000000000000034 a11.76,11.76 0 0 0 4.191,-0.7620000000000013 a7.992,7.992 0 0 0 4.953,-4.953 a11.759,11.759 0 0 0 0.7620000000000013,-4.191 c0,-1.9 0.19000000000000034,-2.476 0.19000000000000034,-7.048 A56.282,56.282 0 0 0 51.236595262847096,27.77329538552076 A11.76,11.76 0 0 0 50.4705952628471,23.57329538552076 a7.457,7.457 0 0 0 -1.9,-3.048 a7.457,7.457 0 0 0 -3.048,-1.9 A11.76,11.76 0 0 0 41.3275952628471,17.863295385520757 A56.282,56.282 0 0 0 34.279595262847096,17.67329538552076 m0,8.381 a8.621,8.621 0 0 0 -8.762,8.762 a8.762,8.762 0 1 0 8.762,-8.762 m0,14.477 a5.612,5.612 0 0 1 -5.714,-5.714 a5.612,5.612 0 0 1 5.714,-5.714 a5.612,5.612 0 0 1 5.714,5.714 a5.612,5.612 0 0 1 -5.714,5.714 M43.422595262847096,23.57329538552076 a2.1,2.1 0 1 0 2.1,2.1 a2.114,2.114 0 0 0 -2.1,-2.1 " fill="#fff" fill-rule="evenodd"/>
    </g>
  </g></g></svg>